<svg version="1.1" id="Layer_1" xmlns="http://www.w3.org/2000/svg" xmlns:xlink="http://www.w3.org/1999/xlink" x="0px" y="0px"
	 width="100%" viewBox="0 0 736 736" enable-background="new 0 0 736 736" xml:space="preserve">
<path fill="#000000" opacity="1.000000" stroke="none" 
	d="
M395.468536,737.000000 
	C394.278564,722.179260 394.574829,707.345398 395.208832,692.547546 
	C395.865448,677.221619 395.499451,661.898804 395.918854,646.579407 
	C397.314026,595.618286 397.193268,544.642517 396.559235,493.678528 
	C396.145172,460.397980 394.908173,427.119080 391.987396,393.930756 
	C390.980835,382.492950 390.389832,371.017700 389.674835,359.555450 
	C389.280273,353.229492 388.919342,352.938202 382.880737,354.626495 
	C343.165985,365.730011 302.793121,372.950531 261.591827,375.463867 
	C235.727036,377.041687 209.977631,377.224915 184.717697,370.302429 
	C170.802567,366.489014 157.919861,360.239166 145.651947,352.741089 
	C140.213287,349.417084 138.770584,343.172668 141.831497,337.965515 
	C144.663696,333.147430 150.721863,331.433807 156.204651,334.368927 
	C168.699295,341.057831 181.126526,347.822754 195.168732,350.856720 
	C216.541702,355.474548 238.140198,355.334076 259.802795,354.103088 
	C280.591492,352.921753 301.250397,350.552643 321.694641,346.651978 
	C354.090149,340.471039 386.383972,333.729401 416.497559,319.622345 
	C433.677887,311.573975 436.690979,300.746704 426.421875,284.589325 
	C414.932556,266.512177 398.001099,254.904175 378.862640,246.253815 
	C359.993561,237.725235 340.052338,233.538437 319.452545,232.070114 
	C275.096161,228.908447 232.033829,234.677612 190.674088,251.210449 
	C145.571838,269.239319 110.000221,298.649170 85.692162,341.064789 
	C70.601936,367.396027 60.652950,395.792725 52.215302,424.800262 
	C40.765907,464.161743 32.619076,504.258057 25.256714,544.537781 
	C19.665649,575.126770 14.899667,605.853210 10.612894,636.639832 
	C7.266456,660.673218 3.804045,684.720276 2.292052,708.977966 
	C2.221523,710.109558 1.773351,711.217590 1.250527,712.668335 
	C1.000000,660.645752 1.000000,608.291565 1.000000,555.468628 
	C3.925126,545.785706 4.797427,536.157104 6.637720,526.726562 
	C17.579054,470.658356 29.354862,414.820129 51.450462,361.794128 
	C68.399094,321.120026 93.442596,286.674530 129.375275,260.541077 
	C162.786743,236.241302 200.268234,221.934921 240.667969,214.808090 
	C275.341919,208.691360 310.132263,207.264526 344.958130,213.669022 
	C377.259583,219.609299 406.500885,231.917389 430.207031,255.407974 
	C438.312256,263.439484 445.085297,272.474426 449.689392,283.011292 
	C458.379120,302.898438 453.010193,321.574554 435.146667,333.827148 
	C428.773254,338.198700 421.776245,341.325439 414.625916,344.063446 
	C411.249359,345.356354 409.998505,347.190582 410.286194,350.758301 
	C411.449371,365.184265 412.459442,379.622833 413.471771,394.060577 
	C414.414307,407.503693 415.535278,420.940521 416.142853,434.399750 
	C417.615173,467.015320 418.642670,499.646545 418.343628,532.304565 
	C418.332123,533.560852 418.342194,534.817322 419.125610,536.216125 
	C424.245453,524.897644 429.349762,513.572144 434.488007,502.261963 
	C449.100342,470.097717 463.816681,437.984283 484.054993,408.809845 
	C485.721802,406.407043 485.634338,404.543823 484.199066,402.018036 
	C477.546906,390.311737 479.221710,378.578857 488.861481,369.326202 
	C490.852722,367.414978 491.635376,365.476776 491.748322,362.803314 
	C492.064209,355.326019 492.853973,347.897644 494.529846,340.568756 
	C496.494232,331.978180 501.935730,327.068817 510.291931,325.054657 
	C512.070923,324.625824 513.854004,324.204224 515.650452,323.858734 
	C525.573303,321.950531 525.574951,321.958923 526.623230,311.906677 
	C528.220093,296.594666 532.568542,291.383698 547.692932,288.452545 
	C568.580139,284.404602 589.747864,284.486694 610.907898,285.270477 
	C624.886658,285.788239 638.792236,286.905945 652.574036,289.620728 
	C666.208801,292.306580 674.928345,299.761017 678.487854,313.371155 
	C680.337891,320.444733 682.693176,327.356354 683.695068,334.665955 
	C684.304626,339.113556 684.122803,343.364227 682.463806,347.415833 
	C678.681824,356.652069 675.181946,366.065613 668.936707,374.047607 
	C667.370178,376.049774 667.256775,378.282257 667.124084,380.631744 
	C665.826416,403.607697 666.420044,426.604462 666.300781,449.593445 
	C666.279236,453.749542 666.388794,457.896820 665.554871,462.037506 
	C663.305481,473.206085 656.972229,478.965668 645.532166,480.316284 
	C638.719604,481.120544 631.894836,481.397186 625.080933,480.956421 
	C602.622314,479.503693 580.102295,481.126953 557.643311,479.371643 
	C545.186829,478.398102 539.856445,474.371185 537.139221,462.251282 
	C536.231140,458.201263 535.639343,454.062378 535.190979,449.932800 
	C534.806946,446.395203 533.132202,445.145905 529.609009,445.249176 
	C521.607056,445.483826 513.651917,444.522949 505.696594,443.770935 
	C500.142334,443.245880 495.388885,441.245117 492.457397,435.304047 
	C486.101166,444.907684 481.229126,454.348785 476.461731,463.807495 
	C455.761902,504.876923 437.859009,547.224060 419.415436,589.323303 
	C418.445068,591.538269 418.292572,593.798523 418.263214,596.145386 
	C417.875641,627.131531 417.770569,658.125732 416.928040,689.099792 
	C416.502136,704.755859 416.565643,720.414307 416.030731,736.532166 
	C409.312347,737.000000 402.624725,737.000000 395.468536,737.000000 
M544.662415,416.558258 
	C543.834351,417.349792 543.127258,418.358643 542.158752,418.897888 
	C535.466553,422.624237 519.874329,420.787109 514.163818,415.692139 
	C513.199036,414.831360 512.547363,413.611633 510.987000,413.487183 
	C507.137360,413.180145 501.817139,418.278259 501.381409,422.795868 
	C500.760315,429.235352 502.983429,432.268890 508.806183,432.701508 
	C518.095642,433.391754 527.383484,434.216949 536.687622,434.552124 
	C541.977661,434.742676 544.666809,437.095032 545.421753,442.147369 
	C546.304688,448.056122 547.244446,453.956482 548.184021,459.856598 
	C549.002563,464.996918 551.816162,467.426971 557.227234,467.971649 
	C569.367126,469.193604 581.526917,468.949677 593.653320,468.764252 
	C610.122192,468.512421 626.570496,470.859985 643.036377,468.968475 
	C652.113525,467.925781 654.613831,465.386169 654.762939,456.232300 
	C655.129028,433.765747 655.395447,411.297424 655.652466,388.829254 
	C655.719482,382.967285 655.575012,382.915619 649.701416,383.884491 
	C635.053284,386.300812 625.367554,381.996490 619.279785,369.766205 
	C617.577576,366.346405 616.010254,365.162445 612.144775,366.053345 
	C608.079041,366.990387 604.274963,364.979279 600.839294,362.925690 
	C597.306885,360.814301 594.020813,358.290680 590.575745,355.912079 
	C589.925903,356.354095 589.340088,356.673187 588.847107,357.099579 
	C578.677795,365.895508 575.129517,366.065308 564.635925,358.120941 
	C563.653015,357.376831 562.773071,356.700897 561.499756,357.152130 
	C556.133484,359.053711 550.659668,359.984436 544.963745,358.205872 
	C543.866150,361.736542 544.336182,364.570923 544.306702,367.351593 
	C544.135559,383.490906 545.902832,399.603210 544.662415,416.558258 
M669.178589,321.233215 
	C667.009399,307.591034 658.679749,301.147278 645.251709,299.470856 
	C621.887268,296.553894 598.491455,295.550781 574.999023,296.750732 
	C565.369385,297.242584 555.751526,297.869446 546.312866,300.235870 
	C541.831238,301.359467 539.454651,303.969849 538.534668,308.268036 
	C536.463318,317.945282 536.810181,327.440369 540.620239,336.690613 
	C545.002502,347.329987 549.075195,349.261200 559.865845,345.768158 
	C566.517334,343.614960 568.481384,344.140717 572.537109,349.753693 
	C574.878662,352.994232 577.187378,353.090332 579.904419,350.384705 
	C582.026489,348.271484 584.030334,346.006775 586.343994,344.125885 
	C590.496277,340.750397 593.080078,340.972748 596.665100,344.940704 
	C599.584839,348.172333 602.605652,351.221893 606.419250,353.415100 
	C608.910645,354.847931 611.277649,355.099365 613.979065,353.766327 
	C622.567444,349.528046 625.025146,350.720154 627.333862,359.824036 
	C628.822815,365.695435 631.179749,371.522034 637.812195,372.469513 
	C646.087280,373.651642 655.340820,374.238586 660.665283,366.249939 
	C669.550293,352.918945 677.020142,338.809235 669.178589,321.233215 
M522.653259,346.695801 
	C525.543213,346.423096 528.594177,347.345367 531.344666,345.798676 
	C527.795959,331.953125 527.967163,333.522736 517.164368,335.175079 
	C515.045532,335.499176 512.930969,336.057648 510.912842,336.782166 
	C508.453064,337.665283 506.718445,339.404968 505.927338,341.997040 
	C504.213867,347.611023 503.779327,353.414001 503.308350,359.214722 
	C503.095612,361.835083 504.413788,362.621124 506.883514,362.750641 
	C512.201660,363.029480 510.828979,358.607727 511.460754,356.049988 
	C513.130981,349.288116 514.783630,347.521942 522.653259,346.695801 
M533.687439,394.497742 
	C533.369324,383.684998 533.041992,372.872498 532.741455,362.059265 
	C532.686218,360.073090 532.376099,358.242950 529.889404,358.226959 
	C527.359924,358.210663 523.710083,356.764191 522.775513,359.831451 
	C521.757812,363.171539 520.648071,366.932098 523.932495,370.525391 
	C533.408569,380.892517 533.767578,393.045410 525.523132,404.645294 
	C524.795593,405.668976 523.571533,406.557343 524.117004,408.361420 
	C525.128906,408.628662 526.220337,408.971893 527.335083,409.202026 
	C532.961121,410.363373 533.753235,409.724213 533.769470,403.987305 
	C533.777527,401.156128 533.720581,398.324768 533.687439,394.497742 
z"/>
<path fill="#000000" opacity="1.000000" stroke="none" 
	d="
M191.304962,307.384583 
	C191.233978,299.567017 194.536621,295.014954 200.714752,293.891602 
	C205.810257,292.965118 211.166901,296.051758 213.066055,301.008667 
	C215.211334,306.607971 212.809998,312.830200 207.547592,315.307953 
	C202.065506,317.889130 195.928085,316.090210 192.820709,310.929871 
	C192.229004,309.947205 191.874786,308.821533 191.304962,307.384583 
z"/>
<path fill="#000000" opacity="1.000000" stroke="none" 
	d="
M374.333313,279.131653 
	C380.600739,276.106903 385.073273,276.407013 388.833527,280.262756 
	C392.094269,283.606323 393.322876,287.702087 391.407806,292.156342 
	C389.419861,296.780182 386.065186,299.534729 380.635437,299.460327 
	C375.429993,299.389008 372.014923,296.781769 370.345825,292.252930 
	C368.522339,287.305054 369.661285,282.762085 374.333313,279.131653 
z"/>
</svg>