<svg version="1.1" id="Layer_1" xmlns="http://www.w3.org/2000/svg" xmlns:xlink="http://www.w3.org/1999/xlink" x="0px" y="0px"
	 width="100%" viewBox="0 0 1024 1024" enable-background="new 0 0 1024 1024" xml:space="preserve">
<path fill="#000000" opacity="1.000000" stroke="none" 
	d="
M831.468506,1025.000000 
	C829.506653,1011.417419 826.589905,998.098450 823.131714,984.916504 
	C813.334717,947.572144 806.039062,909.731262 799.589905,871.683838 
	C795.368469,846.779175 789.964722,822.077209 785.372864,797.232300 
	C781.471375,776.122498 779.433960,754.761414 777.626953,733.384949 
	C775.455872,707.701111 772.367859,682.125671 768.447693,656.653320 
	C764.757629,632.675842 761.197754,608.674988 756.270996,584.905701 
	C749.886719,554.104614 738.840027,524.838623 726.677979,495.979889 
	C719.825134,479.719086 712.216064,463.777924 705.018494,447.661133 
	C693.801819,422.544891 677.559265,400.504913 662.353699,377.832245 
	C657.714905,370.915375 652.641479,364.283173 648.154480,357.272705 
	C633.720642,334.721741 613.009827,320.307465 588.487061,310.785339 
	C564.137634,301.330475 538.738647,296.819458 512.765564,297.578094 
	C497.040253,298.037476 481.410248,301.305511 465.705475,303.018890 
	C433.949310,306.483521 405.824951,319.001129 379.614899,336.676453 
	C369.566986,343.452454 362.617706,353.084320 355.100250,362.127502 
	C344.563995,374.802216 334.761688,388.086090 324.603485,401.076630 
	C321.625763,404.884613 320.055878,408.791687 322.646271,413.476746 
	C323.689178,415.362976 323.410522,417.302307 322.380432,419.203094 
	C320.873291,421.984131 319.680359,424.954742 317.992401,427.615448 
	C305.926880,446.634003 302.586029,468.099030 300.165649,489.883484 
	C298.274719,506.902985 295.838287,523.863281 294.058167,540.893188 
	C292.586853,554.969177 292.574554,569.147888 291.947449,583.283691 
	C290.728302,610.766113 291.718964,638.260925 291.127533,665.742676 
	C290.511139,694.383362 290.252747,723.042236 288.998535,751.656311 
	C287.262909,791.254028 286.576416,830.880310 285.047913,870.477478 
	C283.672943,906.096802 283.455994,941.744080 281.923340,977.347656 
	C281.350464,990.655396 282.015991,1004.007446 280.467102,1017.281433 
	C280.201385,1019.558716 280.631104,1021.917114 280.869781,1024.619019 
	C275.311951,1025.000000 269.623932,1025.000000 263.467957,1025.000000 
	C262.339142,1010.327881 263.893463,995.712402 264.151184,981.061462 
	C264.379608,968.074951 265.132812,955.098572 265.554565,942.114502 
	C266.338501,917.979675 267.196594,893.845703 267.730499,869.704956 
	C268.004974,857.295959 265.350555,854.608337 253.734879,849.806641 
	C228.092209,839.206299 201.663666,831.500977 174.427231,826.282104 
	C162.211029,823.941345 157.628571,818.774536 156.566254,806.333008 
	C155.504578,793.899170 155.261627,781.393372 154.739258,768.915833 
	C153.346497,735.647339 152.028549,702.375549 150.588226,669.109131 
	C150.411438,665.026062 149.670959,660.967346 149.215302,657.097778 
	C146.637894,656.392273 145.749603,658.242615 144.380844,658.997925 
	C141.225082,660.739624 137.974792,662.259277 134.446762,660.509216 
	C130.891907,658.745789 128.096924,659.932983 125.227013,661.960144 
	C120.277809,665.456055 116.005020,669.547668 112.621063,674.636108 
	C110.023735,678.541748 106.532242,681.088074 101.092529,680.071594 
	C101.687698,675.216858 105.683586,672.447815 106.915840,667.953308 
	C100.604210,664.458862 94.429787,664.747925 88.283165,668.479492 
	C84.660561,670.678894 81.922371,673.826782 79.194122,676.978699 
	C70.116150,687.466125 59.739292,696.625000 49.551079,705.976379 
	C48.950325,706.527832 48.287212,707.075439 46.377163,706.610962 
	C47.177620,696.643250 57.881371,692.495056 60.375710,683.436523 
	C56.378120,683.706360 53.065971,685.758240 49.438709,686.661499 
	C47.502678,687.143616 46.169014,686.893433 45.380169,684.990479 
	C44.592262,683.089783 45.934452,682.235352 47.236393,681.447266 
	C54.504936,677.047607 61.788181,672.672241 69.068756,668.292419 
	C71.096802,667.072449 73.191841,665.807739 73.489449,663.208252 
	C74.004745,658.707275 77.179520,656.645691 80.804756,655.162354 
	C93.829796,649.833069 104.279640,640.705322 115.090286,632.110046 
	C116.019348,631.371338 117.714722,630.545593 116.661766,628.929810 
	C115.395302,626.986389 114.063232,628.525391 112.852127,629.234985 
	C109.547119,631.171448 106.279732,633.172546 102.964409,635.090942 
	C101.514107,635.930176 99.876877,636.894409 98.467285,635.187439 
	C96.981308,633.387878 98.371552,632.088989 99.651749,630.984863 
	C111.331902,620.911011 121.717339,609.724915 129.623871,596.380981 
	C130.797974,594.399414 132.675735,593.217407 134.915756,592.971680 
	C143.213715,592.061523 149.424622,587.469543 154.916367,581.693970 
	C168.081131,567.848755 178.405945,551.846680 188.768631,535.953674 
	C219.431122,488.927673 254.663757,445.501740 291.967255,403.679565 
	C296.223572,398.907623 299.820160,393.766357 302.471497,387.957794 
	C306.018921,380.186157 311.311005,373.831726 318.381409,369.085114 
	C332.427002,359.655853 345.185333,349.059692 355.539886,335.354034 
	C363.571503,324.723022 375.458893,318.306702 387.149872,312.139221 
	C419.124756,295.271179 453.094849,285.656921 489.260254,283.556030 
	C518.640503,281.849304 547.954163,281.289154 576.482605,289.758148 
	C606.489807,298.666168 633.294739,312.893433 654.424072,337.024933 
	C667.165222,351.576416 682.740601,363.339203 698.423279,374.639740 
	C718.581848,389.165527 732.755188,408.310547 743.758972,430.209045 
	C757.543823,457.642365 772.526672,484.421539 791.213318,508.842865 
	C807.409363,530.009338 824.417175,550.556274 841.158020,571.302979 
	C844.485046,575.426025 848.205994,579.237549 852.896240,582.362610 
	C855.881165,579.331848 858.240051,575.863464 861.946411,573.787476 
	C867.768494,570.526428 871.506348,571.250549 875.122803,576.701660 
	C876.040222,578.084412 877.000000,579.510742 877.541260,581.056763 
	C878.734497,584.465332 880.748657,586.694763 884.432739,587.469177 
	C886.006897,587.800049 887.745361,588.535645 888.867920,589.638367 
	C897.142273,597.766724 904.180420,606.721375 906.948181,618.342041 
	C907.350647,620.032104 907.219177,621.688354 906.536926,623.239990 
	C903.683411,629.729065 906.151794,634.322937 911.377625,638.340576 
	C922.477478,646.874329 933.018677,656.087402 943.529602,665.333374 
	C946.591431,668.026733 949.389648,671.056641 950.778015,674.761963 
	C953.101685,680.963074 957.041809,685.594543 962.163025,689.561523 
	C965.331787,692.016113 967.746094,695.272278 970.068176,698.542053 
	C970.933350,699.760437 971.972473,700.975891 970.006958,703.484680 
	C956.816284,694.659363 944.821350,684.047729 931.969421,674.734680 
	C927.136841,680.643433 926.833313,684.091248 930.880005,689.422302 
	C937.936096,698.718262 944.757751,708.174438 951.131958,717.949097 
	C952.738281,720.412231 954.430969,722.915527 953.660034,727.408691 
	C922.796021,711.730835 898.023682,689.505066 874.304199,664.060547 
	C873.060059,669.680237 872.587952,674.106079 872.838684,678.707214 
	C873.695862,694.434875 878.275940,709.462158 881.300781,724.782471 
	C884.556152,741.269958 886.121948,757.999939 888.310669,774.640015 
	C892.385010,805.615540 895.490479,836.716858 900.664490,867.550720 
	C902.877197,880.737305 899.066406,887.417053 886.359436,891.728760 
	C870.129150,897.236145 853.668152,902.062256 837.319031,907.221313 
	C834.786438,908.020447 832.203125,908.798645 829.850281,909.994080 
	C826.364441,911.765259 824.772278,914.785339 825.692810,918.709229 
	C833.363342,951.407410 839.492371,984.486450 849.830261,1016.527954 
	C850.645874,1019.055786 851.192627,1021.670288 851.932190,1024.622314 
	C845.312378,1025.000000 838.624695,1025.000000 831.468506,1025.000000 
M275.032257,632.708923 
	C275.910736,606.919128 277.143768,581.134888 277.551392,555.337646 
	C277.857086,535.987183 280.384583,516.880066 282.256104,497.691986 
	C282.799896,492.117126 282.632721,486.594269 282.260406,480.760529 
	C279.211334,481.850891 278.706909,484.134094 277.674866,485.943726 
	C265.634583,507.055359 254.660431,528.845093 239.418472,547.953369 
	C229.861526,559.934509 222.224335,573.357117 211.913193,584.718933 
	C206.185181,591.030518 200.848785,597.619080 195.897522,604.504517 
	C192.852921,608.738464 190.506470,613.488098 190.520065,619.243591 
	C194.866989,619.420410 198.024551,617.314636 201.477768,616.346741 
	C203.068420,615.900940 204.915710,615.032532 205.967575,616.896179 
	C207.023895,618.767639 205.358139,619.934204 204.103027,621.019348 
	C200.034241,624.536987 195.168259,626.800110 190.611649,629.550842 
	C178.855606,636.647705 170.273300,646.236145 167.467072,660.045166 
	C165.975662,667.384155 165.203232,674.892883 165.452255,682.370239 
	C166.072403,700.990417 167.778290,719.546570 169.176086,738.122559 
	C170.685822,758.185852 171.078064,778.324768 173.163040,798.357971 
	C174.332687,809.596313 176.173630,811.848022 187.560333,813.697632 
	C212.890244,817.812134 238.105957,822.168640 261.287750,834.166138 
	C267.763367,837.517578 270.142761,835.703064 270.590210,827.958008 
	C271.099152,819.148987 271.438995,810.323181 271.568512,801.500549 
	C272.023193,770.528320 272.630829,739.562134 273.580231,708.599121 
	C274.345764,683.631104 274.547302,658.645752 275.032257,632.708923 
M792.956360,715.815674 
	C795.373901,735.103027 797.859436,754.382141 800.193298,773.679626 
	C803.885132,804.205383 808.053650,834.654541 814.414124,864.760376 
	C816.127930,872.872620 817.064148,881.179016 820.615662,888.842529 
	C822.212341,892.287720 824.352356,893.520508 828.127319,892.324280 
	C831.763062,891.172119 835.574097,890.586365 839.275146,889.624878 
	C850.540771,886.698486 862.039673,884.678467 873.090698,880.917480 
	C878.393433,879.112793 882.200317,875.889709 882.629395,869.984192 
	C883.100281,863.502563 883.042908,856.992188 882.304077,850.525269 
	C880.492554,834.667297 878.614258,818.816895 876.726013,802.967773 
	C873.541443,776.237610 870.607422,749.485840 865.360596,723.031006 
	C861.420532,703.165222 856.503906,683.429504 855.382080,663.089294 
	C854.958069,655.401184 853.836792,648.133057 846.675964,643.430420 
	C845.551208,642.691711 844.973572,641.242859 845.030640,639.903870 
	C845.379272,631.728760 840.058594,626.895142 834.751587,621.963501 
	C812.202026,601.008850 788.238586,581.360840 772.199036,554.363525 
	C771.369934,552.968018 770.563416,550.940796 766.921753,551.310364 
	C778.246094,605.537476 786.368225,660.113159 792.956360,715.815674 
z"/>
<path fill="#000000" opacity="1.000000" stroke="none" 
	d="
M587.552734,460.559814 
	C604.019287,493.569824 618.224609,527.116882 628.743469,562.114868 
	C633.656372,578.460999 635.193970,595.289551 634.625183,612.415649 
	C634.277222,622.891357 637.349854,633.135742 638.774414,643.499268 
	C639.362122,647.774536 640.321350,651.997559 640.984924,656.264038 
	C642.042725,663.064453 638.440857,669.503235 632.210571,671.918945 
	C604.221191,682.771484 575.726807,691.780884 545.844543,695.840088 
	C521.962952,699.084106 498.082092,698.832031 474.125885,696.698547 
	C457.890228,695.252563 441.598663,694.435547 425.332886,693.325806 
	C422.179504,693.110596 419.031555,692.813599 415.877625,692.607727 
	C413.136566,692.428894 410.324982,691.521667 408.243744,694.610657 
	C407.205719,696.151306 405.144470,695.275452 403.531433,695.101868 
	C385.681824,693.180603 367.843140,691.152832 349.982574,689.340637 
	C342.194366,688.550293 338.016418,684.976501 337.752197,677.569885 
	C336.743744,649.300232 333.999054,621.099609 334.611420,592.762207 
	C334.910492,578.922180 337.049164,565.301819 338.794708,551.632935 
	C341.529755,530.215210 343.991577,508.731049 348.744110,487.645203 
	C356.336548,453.959595 367.513611,421.582123 387.797638,393.226013 
	C405.202179,368.895294 430.178223,358.007935 459.404968,358.225800 
	C488.595947,358.443390 513.720398,370.152069 534.890869,390.157837 
	C556.403748,410.487091 573.467834,434.187286 587.552734,460.559814 
M448.935669,373.301453 
	C440.515228,374.029480 433.408875,377.931122 426.541840,382.479309 
	C396.510803,402.369354 379.044800,430.831390 370.178558,465.129669 
	C363.621826,490.493805 360.766571,516.443359 357.927887,542.411499 
	C356.155548,558.624207 354.481384,574.841858 353.333832,591.105408 
	C352.207153,607.072876 348.559967,622.851746 351.756409,639.137024 
	C353.333923,647.174133 351.971619,655.757263 352.300995,664.079041 
	C352.629059,672.368652 355.893555,675.375610 364.100830,675.689270 
	C367.098267,675.803894 370.116180,675.673340 373.093201,675.970581 
	C379.427643,676.603027 383.131866,674.181152 385.622131,668.020935 
	C396.625305,640.801880 415.190033,621.021973 442.964691,610.097900 
	C453.963623,605.772034 464.150543,604.548096 475.087860,610.156250 
	C486.481628,615.998413 498.596954,616.848877 510.965942,612.837646 
	C516.774841,610.953796 522.764648,610.790466 528.694763,612.483276 
	C551.805847,619.080811 569.288330,633.372009 583.134399,652.545410 
	C585.567810,655.915100 587.535706,659.617859 589.901367,663.040405 
	C592.466919,666.752136 595.870239,668.094849 600.320618,666.335999 
	C604.500671,664.684021 608.763123,663.237976 613.005005,661.746094 
	C622.316833,658.471130 623.766846,655.816589 622.156006,646.059509 
	C619.202515,628.169922 617.371887,610.141296 615.696655,592.093689 
	C614.203308,576.006226 612.303650,559.919617 606.735168,544.663757 
	C598.107361,521.026245 587.443542,498.217499 576.870422,475.415558 
	C563.473389,446.523621 544.993713,421.075409 521.008484,400.049652 
	C500.797729,382.332611 477.281891,372.325226 448.935669,373.301453 
M402.376312,673.236084 
	C403.890778,678.248657 408.329163,677.533203 411.873657,677.585388 
	C439.510254,677.992249 467.060333,680.429749 494.683380,680.915466 
	C497.945648,680.972839 499.732483,683.890747 502.990021,683.448975 
	C523.073120,680.725098 543.191772,678.261169 563.266235,675.477722 
	C573.383545,674.074890 575.462646,668.565857 568.716309,660.879272 
	C563.342102,654.756104 557.554504,648.976257 551.719543,643.280457 
	C533.834961,625.822144 510.736176,623.058350 488.986481,635.465881 
	C482.665283,639.071960 477.678833,644.181213 472.506378,649.121216 
	C470.609589,650.932739 468.429169,652.159912 465.734222,651.051636 
	C462.947510,649.905701 462.719879,647.436462 462.643433,644.811279 
	C462.448151,638.107422 464.397827,631.688477 465.282562,625.212097 
	C461.267029,622.984802 457.199738,622.628479 452.732361,624.114868 
	C435.046143,629.999451 421.049622,640.872864 410.421875,656.033020 
	C406.916016,661.034058 403.469666,666.229858 402.376312,673.236084 
z"/>
<path fill="#000000" opacity="1.000000" stroke="none" 
	d="
M420.432220,324.192566 
	C427.632019,328.541992 430.516296,334.624573 428.656097,340.966553 
	C426.572510,348.070099 420.976868,352.331116 413.968323,352.151093 
	C407.158539,351.976166 401.556702,347.134003 400.076263,339.963806 
	C398.041626,330.109680 408.658722,319.720398 420.432220,324.192566 
z"/>
<path fill="#000000" opacity="1.000000" stroke="none" 
	d="
M605.304565,373.492828 
	C596.828125,375.785797 589.783264,372.384644 586.737183,364.856293 
	C584.130737,358.414673 586.903198,350.861298 593.179504,347.304993 
	C599.304260,343.834534 607.519653,345.617004 612.003296,351.370056 
	C617.361572,358.245361 614.840271,369.942719 605.304565,373.492828 
z"/>
</svg>