<svg version="1.1" id="Layer_1" xmlns="http://www.w3.org/2000/svg" xmlns:xlink="http://www.w3.org/1999/xlink" x="0px" y="0px"
	 width="100%" viewBox="0 0 1024 1024" enable-background="new 0 0 1024 1024" xml:space="preserve">
<path fill="#000000" opacity="1.000000" stroke="none" 
	d="
M757.468628,1025.000000 
	C758.933899,1008.932922 759.363342,992.790955 758.417847,976.670166 
	C757.590759,962.569397 755.840881,948.525330 754.709595,934.439270 
	C752.088501,901.802185 750.662354,869.052368 745.542358,836.653503 
	C742.846313,819.593262 739.732239,802.596436 737.232666,785.508728 
	C734.948425,769.892944 733.071106,754.220154 731.537903,738.497314 
	C730.297546,725.778748 727.618958,713.204285 726.255981,700.493225 
	C722.958435,669.739685 714.667786,639.756775 711.988464,608.967041 
	C710.623413,593.280273 708.728027,577.476929 710.559265,561.631287 
	C710.749512,559.984985 710.571228,558.299377 710.649536,556.636047 
	C710.770630,554.060730 709.502502,553.148499 707.029419,553.053650 
	C693.567810,552.537781 680.164368,551.240234 666.648682,551.262390 
	C643.006592,551.301208 619.452209,548.984253 595.862793,547.547424 
	C562.856262,545.536926 530.633362,538.883301 498.414551,532.179382 
	C487.650085,529.939575 477.456726,525.546387 467.655701,520.514771 
	C457.739075,515.423767 451.312592,506.973053 446.745911,497.094269 
	C444.068512,491.302338 446.012634,488.968872 452.323395,489.742676 
	C455.556061,490.139008 458.508759,491.534180 460.985504,493.425354 
	C482.588593,509.921051 508.313416,514.814270 534.075562,519.587769 
	C557.136841,523.860779 580.380676,526.973389 603.691528,529.408752 
	C616.585571,530.755920 629.602844,530.929993 642.565613,531.611328 
	C666.360657,532.862122 690.161987,533.203735 713.992859,532.733582 
	C757.825012,531.868958 801.078125,526.677185 842.593689,512.335632 
	C861.230042,505.897736 876.182129,493.528656 882.028992,473.099365 
	C883.248108,468.839600 882.041260,464.783600 881.072510,460.816132 
	C875.663696,438.664368 866.829834,418.068298 850.899475,401.374634 
	C839.639282,389.574982 825.949219,380.867249 810.819397,374.757599 
	C777.339111,361.237701 742.219727,353.466614 707.052429,346.024323 
	C687.358948,341.856689 667.434814,339.153748 647.268188,338.210571 
	C633.968933,337.588562 620.697388,335.945007 607.370178,336.357758 
	C581.580139,337.156494 555.825317,338.596558 530.128540,341.090668 
	C516.391663,342.424011 502.442474,342.178467 488.857605,344.336029 
	C463.405945,348.378387 438.186951,353.751221 413.193481,360.213074 
	C384.809692,367.551453 357.765656,378.110687 332.085266,392.148499 
	C298.370178,410.578369 268.248077,433.780701 241.301376,461.154510 
	C229.149628,473.498840 216.046860,485.233398 208.418488,501.067261 
	C198.230576,522.213867 189.431747,543.968689 182.215195,566.379333 
	C171.265152,600.383972 165.494019,635.462402 159.155304,670.471130 
	C153.884247,699.583191 147.722656,728.533997 141.952850,757.555664 
	C138.058502,777.143921 136.357849,797.050110 133.420151,816.778931 
	C129.845520,840.784973 127.869949,864.993469 125.206299,889.115112 
	C123.528358,904.310303 121.565788,919.468994 120.046638,934.690186 
	C118.055649,954.638733 118.373734,974.605591 118.234673,994.581116 
	C118.166245,1004.410767 118.169212,1014.240967 118.069931,1024.535400 
	C111.978844,1025.000000 105.957695,1025.000000 99.468269,1025.000000 
	C98.636017,1002.182861 98.738869,979.377686 99.303444,956.555115 
	C99.893539,932.701233 103.612915,909.190491 105.887482,885.529541 
	C108.622055,857.083496 111.962898,828.694397 116.319572,800.422668 
	C118.899246,783.682373 120.320572,766.772156 123.634872,750.118164 
	C131.259155,711.806702 139.055588,673.523682 146.081070,635.100891 
	C150.995255,608.224976 156.624847,581.528320 165.213196,555.625488 
	C175.022446,526.040344 186.683807,497.154419 203.068771,470.426971 
	C206.599762,464.667114 210.857635,459.600281 216.503586,455.835236 
	C229.220840,447.354675 238.995834,435.566711 250.492355,425.704071 
	C287.506531,393.950226 328.053436,368.033844 374.321533,352.097748 
	C406.123230,341.144318 438.881897,333.606323 471.994293,327.478821 
	C490.025269,324.142181 508.145203,321.790955 526.339417,320.091858 
	C541.075806,318.715668 555.924561,318.273102 570.734070,318.011627 
	C595.724182,317.570404 620.738403,317.537170 645.697754,318.845245 
	C665.842896,319.900970 685.592773,324.078888 705.105103,329.043274 
	C739.767883,337.862335 774.448792,346.643585 808.922424,356.163849 
	C846.493164,366.539398 873.084351,390.120880 889.496643,425.461182 
	C895.298706,437.954559 899.611877,450.756500 901.062744,464.498993 
	C901.847351,471.930725 900.228882,479.068573 898.979492,486.276367 
	C898.554871,488.725891 897.843262,491.270935 898.127869,493.669708 
	C898.853516,499.785889 895.864197,503.631134 891.443115,507.219818 
	C875.285522,520.335144 857.222717,529.379822 837.078430,534.798523 
	C819.046814,539.648926 800.862244,543.656067 782.464478,546.606567 
	C767.028687,549.081970 751.408630,550.290771 735.801758,551.175842 
	C731.038513,551.445984 729.409912,553.101318 729.286011,557.713989 
	C728.569946,584.379761 729.257019,610.953369 733.069946,637.411255 
	C737.499878,668.150879 741.617310,698.927063 746.965942,729.538208 
	C749.909180,746.382690 752.154663,763.342041 755.779907,780.082581 
	C756.966675,785.562988 756.984863,791.315674 757.307556,796.957031 
	C757.517212,800.621582 758.787354,803.386536 761.411804,806.155762 
	C772.344971,817.691650 784.481445,827.804382 797.031738,837.471558 
	C798.599182,838.678955 800.035645,840.168152 803.205994,839.828369 
	C805.963562,830.137817 809.192627,820.208923 811.576782,810.081177 
	C815.203796,794.673645 815.865967,778.825562 817.700256,763.150940 
	C819.777039,745.403809 819.764648,727.597961 819.613342,709.783325 
	C819.519836,698.768311 820.433228,687.851379 822.409241,677.023865 
	C822.794739,674.911682 822.519775,673.074219 821.126709,671.414062 
	C808.776550,656.697327 809.973083,640.072632 814.753235,623.179565 
	C815.984070,618.829773 816.329651,614.918823 815.147949,610.595886 
	C812.472778,600.809265 810.348633,590.895325 809.162781,580.797058 
	C808.731262,577.122620 808.809692,573.522705 809.523743,569.870850 
	C810.022888,567.318115 811.031616,565.410217 813.655273,564.870911 
	C816.535400,564.278809 818.342102,565.864136 819.735352,568.211914 
	C822.133789,572.253540 823.932312,576.558838 825.183777,581.058594 
	C827.321472,588.744324 829.210266,596.499084 831.336243,604.188171 
	C831.907043,606.252625 831.387878,609.386169 834.560852,609.646729 
	C837.980347,609.927551 841.401550,609.138550 843.230957,605.841125 
	C844.920593,602.795654 846.163574,599.496826 847.527527,596.277527 
	C849.934509,590.596069 852.535217,585.008911 855.738220,579.730835 
	C857.477295,576.864990 859.548828,574.257874 862.662415,572.703186 
	C865.827026,571.123108 868.927124,571.607483 871.666443,573.469604 
	C874.164673,575.167847 873.457336,578.002625 873.045898,580.394104 
	C871.572571,588.957886 869.175110,597.285950 865.473877,605.155212 
	C863.350159,609.670715 863.098328,613.351501 865.812073,618.154663 
	C869.734863,625.097717 867.796692,633.132812 866.908081,640.691833 
	C865.162476,655.541199 859.013550,667.773743 845.283447,675.182922 
	C843.093384,676.364807 842.438660,678.535461 842.455505,680.698669 
	C842.634766,703.748108 837.785522,726.361328 836.516174,749.254578 
	C835.287903,771.406067 832.286377,793.266724 828.241760,815.016418 
	C826.415710,824.835999 823.140930,834.298645 820.367920,843.889343 
	C816.408386,857.583862 794.814453,862.451416 785.592102,853.404602 
	C778.605896,846.551392 770.503174,840.835815 762.882629,834.632080 
	C762.659851,834.450623 762.271240,834.472839 761.470703,834.285828 
	C761.184814,836.765686 761.377869,839.097595 761.793579,841.521057 
	C766.595825,869.513550 772.124023,897.413574 775.816833,925.553772 
	C778.557434,946.437378 780.918030,967.439514 781.560913,988.600830 
	C781.922363,1000.498535 784.347839,1012.333557 785.921753,1024.598389 
	C776.645752,1025.000000 767.291565,1025.000000 757.468628,1025.000000 
z"/>
<path fill="#000000" opacity="1.000000" stroke="none" 
	d="
M386.468628,1025.000000 
	C387.036011,1014.524414 385.707916,1004.079712 385.381805,993.634766 
	C384.945892,979.673950 383.435974,965.749451 382.856689,951.789795 
	C381.628174,922.184387 380.732666,892.565186 379.646393,862.953735 
	C378.358307,827.841797 377.215302,792.729431 377.678864,757.583740 
	C377.804840,748.033386 379.454315,738.718323 381.630249,729.488159 
	C383.223541,722.729492 386.911316,718.387634 390.344818,718.549438 
	C393.938782,718.718811 397.649658,724.534973 398.239349,731.280212 
	C399.224579,742.549561 399.872559,753.851746 401.037903,765.101257 
	C403.379242,787.702515 401.692627,810.362488 402.322205,832.987183 
	C403.141937,862.445435 403.329071,891.925781 404.493683,921.368713 
	C405.618195,949.797363 407.711426,978.185242 408.477295,1006.638000 
	C408.633667,1012.447021 409.484680,1018.243225 409.099915,1024.541382 
	C401.645752,1025.000000 394.291504,1025.000000 386.468628,1025.000000 
z"/>
<path fill="#000000" opacity="1.000000" stroke="none" 
	d="
M719.076965,489.991455 
	C706.516785,480.263062 700.548218,467.202148 697.649780,452.381775 
	C696.819641,448.136932 695.982605,443.867950 693.996216,439.963776 
	C691.597656,435.249451 688.046570,431.570496 682.573669,431.441528 
	C676.932617,431.308563 673.650208,435.251373 671.309204,439.987885 
	C668.843079,444.977448 667.872742,450.420715 666.784424,455.779266 
	C661.032837,484.098633 641.761597,497.680084 615.187744,503.190399 
	C602.689758,505.781982 589.998474,505.887115 577.422363,503.972626 
	C556.354187,500.765411 541.160400,485.088745 536.764893,462.630096 
	C535.063904,453.938751 534.443054,445.143219 534.743042,436.308655 
	C534.919861,431.103943 533.561279,427.495300 527.634338,427.010437 
	C524.913269,426.787842 523.638000,425.096283 523.698486,422.238983 
	C523.804260,417.243530 523.796936,412.241333 523.662842,407.246674 
	C523.578857,404.118683 524.789795,402.917297 527.999268,402.643463 
	C560.089111,399.905640 592.239868,400.415955 624.367615,401.071503 
	C646.151855,401.516022 667.864380,404.037079 689.700684,403.754089 
	C704.865112,403.557556 719.922546,401.677521 735.065247,401.257935 
	C761.041321,400.538116 787.018250,400.210541 812.989258,401.434845 
	C820.799500,401.803009 828.599426,402.425781 836.412170,402.687622 
	C839.971863,402.806885 841.560486,404.115112 841.416565,407.786987 
	C841.234070,412.444550 841.269165,417.117279 841.399170,421.778198 
	C841.486938,424.924835 840.505371,426.866486 837.094177,427.232086 
	C833.206604,427.648743 831.679688,429.966888 831.001770,433.855865 
	C829.309875,443.561676 830.476379,453.480652 828.235901,463.144592 
	C824.143127,480.798218 815.040710,494.446259 797.698547,501.187988 
	C787.639587,505.098358 776.874695,505.404022 766.182068,505.127991 
	C749.149780,504.688354 733.302124,500.405304 719.076965,489.991455 
M725.440857,440.257477 
	C725.404236,443.237091 725.251526,446.221130 725.365173,449.195007 
	C725.468628,451.900085 726.884399,453.792328 729.433044,454.926208 
	C732.129822,456.125916 734.262024,455.002808 736.368958,453.568848 
	C738.483459,452.129669 739.236511,449.771606 739.445435,447.532288 
	C739.932678,442.310028 742.802002,439.106659 747.205322,436.811096 
	C748.660400,436.052551 750.077576,435.095459 751.257446,433.963745 
	C753.141479,432.156586 755.604065,430.235138 754.108154,427.213470 
	C752.696533,424.361908 750.691650,422.195374 746.834717,422.201843 
	C737.478088,422.217590 729.482300,428.535522 725.440857,440.257477 
M575.985474,422.377838 
	C562.833191,425.705719 555.219604,436.726379 557.618408,448.912445 
	C558.244202,452.091309 559.653015,454.805725 563.095581,455.141052 
	C566.212891,455.444702 568.931824,453.921539 570.583496,451.177216 
	C571.508545,449.640259 572.133301,447.859283 572.576965,446.108124 
	C573.750305,441.477173 576.380859,438.203644 580.632935,435.941284 
	C584.191162,434.048035 586.788635,431.208954 585.616394,426.693665 
	C584.391846,421.976562 580.574158,422.122406 575.985474,422.377838 
M823.469238,439.358917 
	C823.091553,441.480560 822.931213,443.619537 823.621765,445.690613 
	C824.212402,447.461914 825.639465,448.417114 827.432739,448.107910 
	C829.125854,447.815979 829.031006,446.150787 828.908142,444.891785 
	C828.702026,442.779572 828.295227,440.681671 827.873474,438.597900 
	C827.648682,437.487671 827.367554,436.144226 826.007751,435.990723 
	C824.205444,435.787201 824.140015,437.460907 823.469238,439.358917 
z"/>
</svg>