<svg version="1.1" id="Layer_1" xmlns="http://www.w3.org/2000/svg" xmlns:xlink="http://www.w3.org/1999/xlink" x="0px" y="0px"
	 width="100%" viewBox="0 0 1008 1024" enable-background="new 0 0 1008 1024" xml:space="preserve">
<path fill="#000000" opacity="1.000000" stroke="none" 
	d="
M1.000000,661.468628 
	C3.685887,657.894470 3.547233,653.779785 4.315381,650.176697 
	C10.379672,621.731628 18.450502,593.933167 31.813601,568.020935 
	C44.790180,542.858032 57.426655,517.545837 69.410538,491.898193 
	C72.849724,484.537750 78.671432,478.898499 84.377983,473.292938 
	C88.630791,469.115417 91.886780,464.357330 93.745842,458.727112 
	C95.093124,454.646851 97.836174,453.090851 101.803177,454.015869 
	C104.650452,454.679779 107.016632,453.995728 109.415298,452.684814 
	C123.927940,444.753082 139.568039,444.659790 155.588043,445.165100 
	C179.916626,445.932465 202.767395,453.033081 225.802628,459.640564 
	C227.304291,460.071289 228.835938,461.210327 230.845337,460.107391 
	C230.594986,455.863495 228.670242,451.944183 227.724640,447.802094 
	C222.876953,426.567169 217.186569,405.481689 213.408188,384.058685 
	C210.180176,365.756226 208.532654,347.129028 210.344620,328.378540 
	C211.063049,320.944122 210.534470,313.392029 210.646072,305.894623 
	C210.682526,303.445160 209.521515,301.840942 207.596527,300.541107 
	C190.303909,288.864777 177.330902,273.087830 166.015045,255.903091 
	C160.261246,247.165146 161.569366,237.197403 164.400848,227.957886 
	C165.973465,222.826187 172.059647,221.400650 176.973114,219.820679 
	C182.517700,218.037781 188.191528,216.661285 193.779327,215.007294 
	C202.704468,212.365433 210.620605,207.935349 217.519501,201.636093 
	C221.630692,197.882248 226.099045,195.994980 232.101364,197.431992 
	C239.548615,199.214951 243.799469,192.897232 240.462250,184.907776 
	C238.628433,180.517563 238.596634,176.199783 238.657242,171.717529 
	C238.682922,169.817230 239.069138,167.863159 240.560410,166.715195 
	C249.266342,160.013550 258.221588,151.395950 269.931763,155.529633 
	C278.316895,158.489563 283.654022,155.591476 289.848358,151.892029 
	C317.720551,135.245850 348.980530,129.030029 380.235229,123.063248 
	C387.001556,121.771507 394.194305,122.666939 401.190857,122.653923 
	C403.576385,122.649490 405.699829,122.214508 407.860565,121.053902 
	C417.448242,115.903992 427.637329,115.582367 437.925354,118.213943 
	C444.660522,119.936729 446.127014,122.564728 446.268860,129.279144 
	C446.356262,133.415894 443.723389,138.153061 446.221802,141.446716 
	C448.639771,144.634277 453.770477,144.574356 457.717316,145.473480 
	C475.891602,149.613861 493.864868,154.510696 511.696167,159.856720 
	C528.967834,165.034943 545.095398,173.151794 561.200500,181.137589 
	C568.796204,184.903992 572.047607,191.577240 572.801208,200.193542 
	C573.703186,210.507187 572.171570,219.381042 563.607544,226.122345 
	C561.126709,228.075180 558.949219,230.408096 556.555420,232.477356 
	C528.187073,256.999451 501.453308,283.248596 475.490936,310.255432 
	C466.158447,319.963409 457.881195,330.694519 447.846710,339.779633 
	C446.392456,341.096313 444.826660,342.352844 446.623138,344.789886 
	C459.578827,362.365204 471.067108,380.884033 482.326355,399.585083 
	C489.810791,412.016418 497.285126,424.390259 503.364746,437.588654 
	C507.123535,445.748566 513.045105,452.576385 517.607117,460.603638 
	C521.304749,457.762054 523.700867,454.517120 525.479309,451.015747 
	C532.707214,436.785950 544.285522,426.524078 556.407288,416.808350 
	C582.762207,395.684601 612.536377,380.497925 643.416260,367.298187 
	C645.574158,366.375824 647.531128,365.299438 649.459473,363.929138 
	C652.922363,361.468384 656.461548,358.746735 661.303406,360.601105 
	C662.240967,360.960205 663.616455,360.529022 664.680420,360.152740 
	C687.901245,351.939911 711.967773,351.354614 736.192627,352.141266 
	C752.339722,352.665558 768.499146,352.933563 784.632385,353.732880 
	C813.062622,355.141418 839.773987,362.492218 864.013000,377.816193 
	C870.938904,382.194733 876.423157,387.536041 878.445862,396.082214 
	C880.769043,405.898193 878.072510,413.099457 869.314575,418.033997 
	C867.144592,419.256622 865.029785,420.665405 862.717285,421.524933 
	C859.695312,422.648132 859.067932,424.263153 860.145630,427.259125 
	C866.956543,446.193390 868.249329,466.024384 867.990417,485.796600 
	C867.565308,518.261475 860.008789,549.032043 843.094604,577.180603 
	C837.315125,586.798828 828.457520,591.903687 818.458557,595.697144 
	C816.951721,596.268860 815.722046,596.086487 814.278015,595.147278 
	C810.045288,592.394165 808.768433,593.176636 808.373779,598.402588 
	C808.010742,603.211304 807.636902,608.019592 807.211914,612.823120 
	C807.086243,614.242981 807.416748,615.903625 805.575134,616.795532 
	C803.326599,615.187500 803.540649,612.395935 802.494324,610.227661 
	C801.738159,608.660767 800.953125,607.120544 798.882690,607.432617 
	C797.060791,607.707153 796.732483,609.338196 796.368469,610.790894 
	C795.354614,614.836121 795.658508,619.234924 793.526733,623.339478 
	C791.134766,621.433105 791.891663,619.288696 791.776611,617.423096 
	C790.785583,601.355591 793.793091,585.557129 795.126160,569.648804 
	C796.335266,555.219604 797.519409,540.770325 799.402771,526.420227 
	C801.618591,509.537140 808.360413,493.735016 812.080200,477.164154 
	C814.656128,465.689270 816.066772,454.277588 815.931274,442.555969 
	C815.881714,438.260010 814.184875,437.188904 810.245422,437.183807 
	C790.022278,437.157715 770.054382,439.216705 750.274414,443.483429 
	C739.014404,445.912323 727.424683,445.696838 716.016907,447.014191 
	C701.763062,448.660248 687.731873,451.415558 673.921570,455.286285 
	C671.154175,456.061920 668.359863,456.621582 665.536682,456.167786 
	C661.481628,455.515991 657.778503,453.402863 657.260010,449.298553 
	C656.769531,445.415314 659.811707,442.563110 663.392029,441.046600 
	C668.010742,439.090363 672.932983,438.132629 677.873108,437.340332 
	C690.883240,435.253723 703.332153,430.781769 716.254395,428.330475 
	C718.046265,427.990509 719.892456,427.649994 721.698608,427.716095 
	C743.262573,428.505585 764.563049,425.633453 785.921997,423.372650 
	C797.167297,422.182404 808.574036,422.970520 819.767944,420.800018 
	C827.013062,419.395203 833.782715,416.566193 840.708801,414.192322 
	C843.542786,413.221039 844.115234,411.632416 842.926819,408.822632 
	C840.853760,403.921051 838.523132,400.965332 832.085754,400.790161 
	C823.889465,400.567078 815.750854,398.010986 807.602844,396.383270 
	C805.721558,396.007416 804.628601,394.531860 802.905823,392.359375 
	C813.682617,391.922089 822.600891,399.494446 832.727356,396.586121 
	C833.124390,394.412537 831.791504,393.445770 830.818726,392.396851 
	C825.267639,386.411316 819.642273,380.494659 814.083435,374.516235 
	C812.402100,372.708008 810.270569,371.899323 807.964905,371.386169 
	C796.550293,368.845734 784.974060,367.729736 773.304138,367.267303 
	C751.327026,366.396454 729.356140,365.714661 707.375793,367.191589 
	C704.669861,367.373413 702.043762,367.681854 699.710815,369.111877 
	C689.365784,375.453369 683.657837,386.020782 676.260559,395.373322 
	C688.754700,392.958740 701.248779,390.544159 714.269836,388.027771 
	C713.623474,391.780609 711.473572,391.784607 709.899902,392.315186 
	C702.958618,394.655487 695.989685,396.918762 688.995361,399.096039 
	C680.414307,401.767181 674.458313,407.200531 670.123169,415.102203 
	C650.249573,451.325409 626.201599,484.650787 599.109192,515.787903 
	C583.321594,533.932495 566.012268,550.508972 546.670288,564.870789 
	C535.113770,573.451721 522.541443,578.608643 507.651215,577.530518 
	C502.593994,577.164368 499.432007,573.341431 493.921051,572.366394 
	C488.092712,626.378296 480.343170,679.908386 477.095856,734.227478 
	C474.584869,731.768372 473.259491,727.247375 469.070526,731.447205 
	C466.197662,734.327454 466.144653,741.713745 469.003387,744.335022 
	C470.710236,745.899963 472.211670,745.951233 473.539429,743.910034 
	C474.416718,742.561279 475.272766,741.198608 476.171600,739.790100 
	C477.320648,740.766724 477.011597,741.833252 477.072723,742.760315 
	C477.672638,751.858398 474.625732,754.071228 466.055817,750.927246 
	C463.794830,750.097656 463.671600,748.311462 463.723175,746.476440 
	C464.269989,727.008667 464.306152,707.505371 465.590302,688.085144 
	C467.069885,665.708679 469.592560,643.398865 471.798401,621.073608 
	C473.156586,607.327698 474.881744,593.617676 476.202148,579.868530 
	C476.621490,575.502197 476.267639,571.061523 475.979675,566.605713 
	C470.166382,591.022461 467.948395,616.062866 463.306274,641.812927 
	C460.611115,636.966614 462.412598,632.832764 462.979767,629.145508 
	C466.766663,604.526611 469.837189,579.779785 475.354584,555.448059 
	C475.753326,553.689514 476.119354,551.644714 475.615875,550.004700 
	C471.649750,537.086365 478.805359,526.873535 483.506897,516.006592 
	C489.630524,501.852844 499.239288,489.735718 506.495605,476.244019 
	C508.187073,473.099060 508.634155,470.476715 506.420105,467.517517 
	C493.382721,450.092133 484.806305,430.039001 473.547455,411.556335 
	C462.366150,393.200867 450.790741,375.147888 438.428955,357.545563 
	C429.080872,344.234558 419.811310,330.758881 413.795441,315.362518 
	C410.713409,307.474823 403.862732,302.588989 396.929474,298.118744 
	C395.637115,297.285461 394.121613,296.885101 392.618439,297.102417 
	C380.609161,298.838806 368.489044,299.911163 358.736389,308.705841 
	C352.568939,314.267487 345.436920,318.747742 339.123566,324.163025 
	C334.336334,328.269226 329.004608,329.029816 323.258911,328.194672 
	C310.824890,326.387390 300.304108,321.294495 293.888153,309.829163 
	C290.798309,304.307526 287.837433,298.710968 284.935303,293.087860 
	C281.875824,287.159912 278.977753,281.144440 274.223663,276.307190 
	C270.672546,272.694031 269.888977,268.081451 269.951630,263.366882 
	C270.093292,252.708923 269.524567,241.912292 271.055176,231.436584 
	C272.748871,219.844727 279.208130,209.765640 287.772430,202.037201 
	C296.153931,194.473709 304.820557,187.131439 313.576416,179.950562 
	C329.812164,166.635208 349.324280,161.103012 369.345215,156.965988 
	C380.241394,154.714462 391.172516,152.655106 402.283356,151.555740 
	C407.014191,151.087631 410.912323,148.084183 414.293365,144.805511 
	C417.432617,141.761261 417.017883,139.772278 412.908844,138.211349 
	C403.568359,134.663223 393.879364,132.440094 384.123962,135.724640 
	C371.736603,139.895309 358.838043,141.432327 346.199097,144.280853 
	C326.173523,148.794174 307.575745,156.621628 291.139435,169.273865 
	C281.528961,176.671753 270.986481,182.812393 263.659973,192.977402 
	C247.085587,215.973267 235.120270,240.959564 229.375183,268.827820 
	C227.836212,276.292938 226.041428,283.716125 224.026505,291.066040 
	C223.382843,293.413910 223.697372,294.933014 225.530701,296.250916 
	C244.983200,310.234741 257.541962,330.459656 272.508575,348.469574 
	C278.226776,355.350494 282.681030,363.283417 287.690552,370.750885 
	C290.106842,374.352814 288.402466,377.127014 285.639069,379.432495 
	C282.782867,381.815430 279.757233,381.842529 277.270752,378.875000 
	C274.923096,376.073181 272.609344,373.190704 270.693451,370.088745 
	C263.209351,357.971588 254.213943,347.083954 244.229797,336.983795 
	C240.320770,333.029388 237.836761,328.047882 234.425140,323.745636 
	C231.560242,320.132812 228.705505,316.459076 224.488678,314.413971 
	C221.577896,316.189301 222.461227,318.770569 222.353607,320.945770 
	C220.976761,348.770264 225.077057,375.940918 231.654297,402.904236 
	C235.432983,418.394897 238.295822,434.113556 241.374634,449.768158 
	C242.652359,456.264923 246.125946,462.232941 245.805038,469.125549 
	C245.731842,470.697662 247.529846,471.477997 248.746964,472.318207 
	C260.511505,480.438995 271.719208,489.238800 284.511353,496.010040 
	C297.759064,503.022430 305.221100,515.855835 311.576721,529.121521 
	C324.076752,555.211731 330.377899,583.000305 335.505066,611.303345 
	C339.560760,633.691650 343.742737,656.084045 348.417175,678.363037 
	C350.717468,689.326538 356.907715,698.667603 362.951141,707.793274 
	C372.225769,721.797913 378.865143,736.958191 385.116394,752.428345 
	C393.560089,773.324158 396.270203,795.487427 400.073669,817.397766 
	C401.057098,823.062805 400.349854,829.037415 400.257660,834.867310 
	C400.197937,838.645874 397.515625,839.775330 394.289551,840.356628 
	C387.110962,841.650085 379.969910,840.753540 372.911224,839.737122 
	C362.295807,838.208557 362.457245,837.987854 362.327881,848.827942 
	C362.128937,865.496521 363.848999,882.120605 363.312073,898.796265 
	C363.090546,905.676697 363.204468,905.700867 355.608887,904.682678 
	C355.425262,901.027771 355.111572,897.256531 355.067383,893.482117 
	C354.864655,876.150635 354.710571,858.818420 354.606140,841.486084 
	C354.586304,838.193909 353.972870,835.565674 350.184509,834.762024 
	C325.122772,829.445374 302.741791,817.302368 279.811523,806.688965 
	C252.743134,794.160217 227.525787,778.039917 200.718414,764.956604 
	C196.372452,762.835510 192.746872,759.544434 189.353180,756.047058 
	C186.454391,753.059814 183.331116,750.291565 180.393112,747.340820 
	C175.550858,742.477600 170.614166,740.654541 163.486313,743.480347 
	C155.663239,746.581604 147.637283,743.829590 140.384079,740.255127 
	C135.613480,737.904114 135.729858,734.516846 140.407455,731.851990 
	C143.836349,729.898621 144.004898,728.483826 141.330002,725.490173 
	C136.538315,720.127502 135.462708,713.357849 135.703598,706.364441 
	C135.730728,705.576538 135.936859,704.329529 136.434494,704.097107 
	C140.231705,702.323364 139.848816,699.645874 138.887909,696.251831 
	C138.089493,693.431641 139.969864,691.514709 142.747757,690.804321 
	C145.477036,690.106323 148.311005,689.792297 149.193466,693.388977 
	C150.561493,698.964600 155.439270,702.801697 156.463623,708.558777 
	C156.672943,709.735291 157.824951,710.836365 158.742371,711.777344 
	C161.622208,714.731079 163.500275,714.245239 164.792603,710.380615 
	C165.929413,706.981140 165.537506,703.452087 165.837509,699.979492 
	C166.123672,696.667114 166.805542,693.743591 171.308487,693.812500 
	C175.840073,693.881897 176.031052,696.567566 176.338028,700.079041 
	C177.175461,709.659058 176.487091,719.370789 179.054077,728.827148 
	C179.726120,731.302856 180.763977,733.017639 182.714798,734.439392 
	C188.658035,738.770630 194.156082,743.581421 198.928024,749.217285 
	C201.422012,752.162842 204.455124,754.544983 207.927933,756.270081 
	C234.181229,769.311279 259.081329,784.900940 285.754791,797.183044 
	C303.910583,805.543091 322.017395,813.990784 340.492096,821.625732 
	C342.176270,822.321716 343.939728,822.891724 345.718842,823.279175 
	C350.468781,824.313477 354.042938,821.267639 353.587524,816.431458 
	C351.854553,798.028931 351.724731,779.539246 350.525513,761.116272 
	C349.078308,738.882874 346.288361,716.799561 340.248230,695.233337 
	C338.822845,690.143921 336.685669,685.645203 333.343201,681.574219 
	C330.817719,678.498352 328.193390,675.406738 326.857483,671.550720 
	C326.365753,670.131409 326.028381,668.487488 327.316528,667.328491 
	C328.485229,666.277039 329.810944,667.028992 331.061768,667.531189 
	C332.408997,668.072205 333.621094,669.213501 335.742554,668.449036 
	C335.994293,662.288330 334.733856,656.122925 333.661804,649.977966 
	C329.002106,623.269104 322.815033,596.892761 316.358582,570.569275 
	C308.294189,537.689758 287.390472,514.160400 261.275177,494.445618 
	C248.383392,484.713409 235.655380,474.470093 220.089294,469.230011 
	C190.453049,459.253357 160.039825,454.082520 128.672043,456.510925 
	C122.058075,457.022919 115.516479,458.655945 109.327148,461.281036 
	C105.390823,462.950562 102.805222,465.605774 102.840805,470.177032 
	C105.051277,471.094238 106.146263,469.455231 107.544205,468.746155 
	C109.768562,467.617828 111.903625,466.281219 114.202324,465.340149 
	C116.831314,464.263947 119.687820,464.109375 121.283607,466.935120 
	C122.793594,469.608917 121.025940,471.719788 119.015717,473.385437 
	C115.292000,476.470856 111.791756,479.767670 108.370094,483.194855 
	C104.968636,486.601868 103.914009,489.313171 108.723778,492.193604 
	C109.326057,492.554291 109.522552,493.592560 109.623085,494.816162 
	C102.763397,497.922180 96.189850,500.297394 89.413818,495.845947 
	C88.350975,495.147736 87.097076,495.086731 86.182838,496.024567 
	C82.302353,500.005157 78.216576,503.828186 74.791191,509.054108 
	C82.837914,512.863647 89.852730,517.206909 96.486290,522.164795 
	C97.931458,523.244873 99.615105,524.060425 101.284370,524.774719 
	C104.744171,526.255249 107.066788,524.484619 106.339806,521.277039 
	C104.221863,511.932343 107.528564,503.556122 109.974144,494.968018 
	C113.491676,490.933197 119.443222,488.706970 119.331192,481.957489 
	C119.304916,480.374237 120.938965,479.510529 122.355499,478.925232 
	C125.849701,477.481415 129.489410,477.007751 133.093887,478.238770 
	C136.056381,479.250549 139.405899,480.248627 139.141068,484.432526 
	C138.944382,487.539673 134.177948,491.944183 130.892502,491.090973 
	C125.982529,489.815887 125.808472,492.965363 124.122437,495.930237 
	C118.909248,505.097534 119.245026,515.181458 118.557892,525.081787 
	C118.215851,530.010132 120.808708,533.657654 125.441124,535.657532 
	C135.072403,539.815552 145.003067,543.396667 154.283890,548.227051 
	C178.128052,560.637146 202.955643,570.618347 228.236588,579.577637 
	C230.742371,580.465698 233.411804,580.916443 235.872589,581.901550 
	C240.194778,583.632019 241.335419,581.373413 241.298950,577.758057 
	C241.188202,566.774353 240.969849,555.791809 240.797012,544.808777 
	C240.769958,543.089294 240.213989,541.523682 239.317368,540.097290 
	C237.839767,537.746826 237.790024,535.512939 239.279587,533.087463 
	C241.359131,529.701355 241.509323,526.624573 237.696686,524.057739 
	C236.403519,523.187134 235.428543,521.587769 234.747040,520.117859 
	C233.314178,517.027466 234.774033,514.898254 238.176605,514.755798 
	C244.736542,514.481140 249.672623,519.943726 248.532166,526.321167 
	C248.174271,528.322571 248.981400,529.945801 249.891769,531.509216 
	C255.172638,540.578308 255.876343,550.399536 254.797104,560.529358 
	C253.468002,573.004272 253.741272,585.475830 254.891953,597.942261 
	C255.773758,607.495972 254.791092,616.882812 252.734802,626.224060 
	C249.781219,639.641541 250.937012,653.445129 249.101562,666.974304 
	C248.748566,669.576294 248.974838,672.476440 246.012466,673.868042 
	C240.738754,676.345398 238.025925,674.472961 237.805084,668.484131 
	C237.090866,649.115479 238.426880,629.955383 242.112015,610.872253 
	C245.012604,595.851868 244.492859,595.450562 230.173767,591.502197 
	C206.156647,584.879578 183.654648,574.324219 160.716934,564.918579 
	C155.530319,562.791870 150.937027,559.245911 145.994308,556.490112 
	C138.810638,552.484985 131.099976,550.071960 122.732201,548.951965 
	C121.054901,554.054016 122.682610,558.763367 123.542412,563.367310 
	C128.634689,590.635132 131.280640,618.061890 130.086639,645.833679 
	C129.740570,653.883240 128.277847,661.689148 126.462418,669.470520 
	C126.035858,671.298950 126.062531,673.984131 123.268333,673.681091 
	C121.020950,673.437317 119.343849,671.661804 118.898354,669.383362 
	C118.357460,666.616943 117.983337,663.774475 117.949287,660.959961 
	C117.814293,649.798584 117.679817,638.632935 117.843201,627.473206 
	C118.102676,609.749756 115.614922,592.285156 113.507927,574.762939 
	C112.864952,569.415771 113.408211,563.926025 112.686211,558.425232 
	C106.080688,563.754333 104.908531,570.969666 104.375862,578.418884 
	C103.618614,589.008789 105.525093,599.376892 107.678291,609.616272 
	C111.474342,627.667969 110.648590,645.537292 108.047112,663.674011 
	C103.459412,695.657837 100.877831,727.813354 102.909286,760.197693 
	C103.419800,768.335938 103.335197,776.519531 103.310005,784.681702 
	C103.262154,800.184387 105.758537,815.467041 106.985893,830.856873 
	C108.242561,846.614380 108.699448,862.444214 108.347397,878.274353 
	C108.298660,880.465515 107.532173,881.883972 105.169624,881.741821 
	C103.059967,881.614868 100.607269,881.813354 100.124695,878.846924 
	C99.938789,877.704163 99.970306,876.523499 99.935417,875.359192 
	C99.397339,857.404175 99.661659,839.358765 96.557182,821.612793 
	C92.738937,799.786621 92.009109,777.683960 89.900635,755.711182 
	C88.118431,737.138611 88.013519,718.517029 91.188271,699.964355 
	C92.579453,691.834595 92.916046,683.524231 93.809402,674.509766 
	C90.236076,676.219421 88.870941,678.917419 87.238083,681.229797 
	C76.215706,696.839600 63.816830,711.153870 48.190224,722.352417 
	C41.106628,727.428711 33.450069,731.435486 24.567482,732.418091 
	C15.103898,733.464966 8.558722,729.610657 4.887581,720.833191 
	C3.732185,718.070740 2.591208,715.302246 1.221808,712.268311 
	C1.000000,695.312439 1.000000,678.624878 1.000000,661.468628 
M386.948914,284.189331 
	C398.001160,282.255707 407.094269,285.372040 414.837006,293.750275 
	C420.689819,300.083466 425.393860,307.003510 429.227020,314.638214 
	C431.507355,319.179993 433.929169,323.650726 436.694855,328.931458 
	C443.791168,322.405060 450.689758,316.865173 456.628540,310.438354 
	C470.879517,295.016327 486.424561,280.902985 500.966827,265.764648 
	C516.984436,249.090454 534.410950,233.769913 551.220520,217.856339 
	C554.122498,215.109070 557.095947,212.439407 559.184387,208.944916 
	C561.336670,205.343552 561.165527,202.068054 558.332642,198.882126 
	C554.509949,194.583008 549.956848,191.234680 544.871277,188.667587 
	C531.175842,181.754379 516.946533,176.362579 502.241425,171.786697 
	C480.295715,164.957703 457.883392,159.932281 435.904724,153.305283 
	C432.798431,152.368683 429.554657,151.774414 426.869812,154.159027 
	C419.603088,160.613174 411.801636,165.643097 401.502350,164.818314 
	C401.345917,164.805771 401.182739,164.905579 401.020050,164.940445 
	C392.561035,166.752563 384.139771,168.770432 375.634552,170.330811 
	C358.275330,173.515549 341.673218,178.595673 326.948578,188.697266 
	C317.590393,195.117279 309.286346,202.866852 300.366089,209.836060 
	C291.869476,216.474228 286.120758,224.942413 284.054382,235.408981 
	C282.384705,243.866440 281.587952,252.544250 282.886658,261.222748 
	C283.204926,263.349304 283.190796,265.555054 284.542236,267.421295 
	C291.986420,277.701263 297.606537,289.099274 304.353333,299.809570 
	C308.239288,305.978424 313.854370,309.945831 320.133209,313.226959 
	C322.897186,314.671326 325.373505,314.426178 328.109436,312.835571 
	C334.763306,308.967163 341.112122,304.605865 346.842773,299.562988 
	C358.132294,289.628387 371.215088,284.879883 386.948914,284.189331 
M663.541687,374.953491 
	C656.868042,377.952209 650.009583,380.601013 643.553650,384.011841 
	C618.993164,396.987671 594.539062,410.157532 571.391235,425.606201 
	C559.821411,433.327820 549.098816,441.643494 541.598328,453.844971 
	C537.664673,460.244080 534.764343,467.221710 530.507202,473.297760 
	C526.649353,478.803894 527.380920,483.068237 530.826538,488.136841 
	C535.783447,495.428467 540.341003,502.994690 544.959229,510.511230 
	C546.082275,512.339111 548.248474,514.768921 544.374695,516.002502 
	C536.988831,518.354553 531.316895,515.679565 527.942688,508.641571 
	C524.875122,502.243164 521.307251,496.152924 516.405090,489.599701 
	C511.220337,497.707733 505.926819,504.501068 502.970062,512.682556 
	C498.991577,523.691101 497.825134,535.224609 499.370239,546.657104 
	C501.578278,562.995178 509.198975,567.724548 522.501770,562.966370 
	C525.658142,561.837463 528.697815,560.536560 531.552673,558.811890 
	C542.140442,552.415527 551.753174,544.775513 560.825684,536.367432 
	C586.254883,512.800659 607.273254,485.500854 627.640808,457.663086 
	C640.530640,440.045776 651.956665,421.458008 662.933655,402.601807 
	C668.115967,393.699585 669.159912,384.520294 663.541687,374.953491 
M23.167685,620.589905 
	C18.011883,638.100037 11.272052,655.161072 9.849634,673.674072 
	C8.874228,686.369202 8.674921,698.916748 11.480237,711.385437 
	C13.550159,720.585388 19.204519,723.873596 28.077671,720.590637 
	C41.853748,715.493774 52.994846,706.523315 62.375328,695.463745 
	C70.558571,685.815796 78.674393,676.070618 85.428108,665.306763 
	C87.146561,662.567932 89.276833,660.043396 92.458763,659.213745 
	C97.275574,657.958008 98.081978,654.560730 98.734009,650.287170 
	C101.617088,631.390747 99.419884,612.790100 96.185913,594.192871 
	C93.445198,578.432190 92.339676,562.762573 99.710846,547.734558 
	C100.989822,545.127014 100.798218,542.215759 100.904579,539.383667 
	C100.990662,537.091431 100.048584,535.562683 97.894264,534.758911 
	C90.325134,531.934998 83.864449,527.137817 77.010223,523.036926 
	C70.565262,519.180847 70.056717,519.216248 66.300873,525.892517 
	C49.364391,555.997925 34.735352,587.167847 23.167685,620.589905 
M839.774414,430.237823 
	C832.412109,432.833862 829.443176,437.526062 829.925903,445.769714 
	C830.766174,460.118530 828.563110,474.306335 824.707031,488.203339 
	C822.173523,497.333801 818.726440,506.394287 817.666992,515.711060 
	C815.622864,533.687195 813.691284,551.675659 811.267029,569.607849 
	C810.644104,574.215515 809.919739,578.810364 809.359680,583.425354 
	C809.039307,586.065063 810.352112,587.388306 813.034790,587.668823 
	C819.485840,588.343506 825.221252,587.088135 830.026855,582.370056 
	C834.700562,577.781311 838.648132,572.698425 841.924133,567.024414 
	C851.747192,550.010742 855.878479,531.145081 859.744446,512.225464 
	C865.104797,485.992859 863.986755,459.956848 856.488831,434.243591 
	C853.718140,424.741943 853.598145,424.777313 844.649719,428.298309 
	C843.254761,428.847198 841.857971,429.391327 839.774414,430.237823 
M360.353699,775.567688 
	C360.960480,789.185120 361.716675,802.798035 362.130829,816.421326 
	C362.522400,829.301575 363.520508,830.437256 376.755890,830.669006 
	C377.755035,830.686523 378.754730,830.670959 379.754028,830.682251 
	C391.492035,830.815369 391.491669,830.815918 390.697815,819.317627 
	C390.674896,818.985596 390.705322,818.648682 390.666779,818.319153 
	C388.483459,799.657959 386.024200,780.946411 379.069061,763.416199 
	C372.632660,747.193359 364.814240,731.517944 357.553864,715.624573 
	C357.042572,714.505249 356.681061,713.005920 354.963470,712.968140 
	C352.726349,716.574219 355.151276,744.467834 360.353699,775.567688 
M196.084305,271.412628 
	C200.656311,275.627075 204.796021,280.370087 210.740555,284.177429 
	C218.246124,259.475342 225.500748,235.599121 232.786499,211.620514 
	C229.910233,211.456268 227.910980,213.345306 225.812088,214.875931 
	C215.288818,222.550171 203.929947,228.126526 190.768204,229.562531 
	C186.593918,230.017975 182.753967,231.694778 179.248932,234.086914 
	C175.724899,236.492020 174.223129,239.468079 176.705612,243.393066 
	C182.654617,252.798798 188.101852,262.554443 196.084305,271.412628 
M863.089233,400.250977 
	C859.364258,392.479767 852.691833,388.149933 844.767822,383.486053 
	C844.015015,390.066528 843.554138,395.375580 845.228760,400.438843 
	C848.017212,408.869476 854.440369,410.269775 860.522766,404.039062 
	C861.436157,403.103363 862.111267,401.935059 863.089233,400.250977 
M673.023071,373.360443 
	C669.587708,373.864838 668.666504,375.988281 669.426331,379.088104 
	C670.243164,382.420410 670.937622,385.805908 672.826538,389.280273 
	C678.902344,383.793213 684.161804,378.143585 688.847046,371.126282 
	C683.121704,370.820892 678.583130,372.767029 673.023071,373.360443 
M839.510620,390.941986 
	C839.599304,386.485687 840.343140,381.960846 835.180115,379.250885 
	C828.568970,375.780792 823.481750,374.445740 820.696228,376.248260 
	C821.192749,376.712921 821.740967,377.567322 822.079529,377.491028 
	C826.346863,376.529572 827.345154,379.692200 828.743591,382.513611 
	C831.090088,387.247833 834.113464,391.482391 838.092224,395.048370 
	C838.573792,394.522827 838.911255,394.317444 838.987793,394.040009 
	C839.206726,393.246277 839.319702,392.423370 839.510620,390.941986 
z"/>
<path fill="#000000" opacity="1.000000" stroke="none" 
	d="
M848.466125,1025.000000 
	C845.864746,999.364624 847.697205,973.754150 848.873901,948.168274 
	C849.483582,934.911743 852.044617,921.791321 854.115967,908.655884 
	C855.035217,902.826172 856.117554,896.773376 853.309570,891.015137 
	C852.760803,889.889648 852.768494,888.731323 853.362671,887.650635 
	C858.036255,879.150574 857.556824,869.641541 858.620850,860.458435 
	C860.841187,841.297241 861.035522,821.956238 863.642273,802.823486 
	C864.975464,793.038330 868.953369,783.935852 870.904114,774.324158 
	C874.062744,758.761292 877.831909,743.302917 877.740295,727.225098 
	C877.713440,722.508423 876.537354,720.659851 871.634583,720.842041 
	C851.335815,721.596558 831.143982,722.931274 811.302124,727.794067 
	C801.586853,730.175049 791.472595,729.862366 781.589722,731.252258 
	C765.437500,733.523804 749.412476,736.380432 733.667114,740.713867 
	C730.649597,741.544312 727.599792,742.011108 724.334595,741.777954 
	C719.892334,741.460876 717.430542,739.429321 717.024597,735.202148 
	C716.599426,730.775146 719.035278,727.755676 723.084229,726.556152 
	C729.451904,724.669556 735.928650,723.123230 742.408813,721.651489 
	C749.537354,720.032471 757.161194,719.720703 763.795654,716.972046 
	C780.225525,710.165222 797.535339,712.626160 814.415283,710.885193 
	C824.174622,709.878601 833.921631,708.775757 843.658508,707.604858 
	C854.905457,706.252319 866.290710,706.904663 877.494995,705.053711 
	C888.308472,703.267334 897.793152,697.823303 907.821533,693.920227 
	C912.876648,691.952820 918.068665,690.002197 922.495178,686.528870 
	C925.473938,684.191467 926.233887,682.105225 923.421265,679.211975 
	C918.300293,673.944397 913.178101,668.729065 906.047791,666.099854 
	C893.426880,661.446106 880.911011,656.856262 867.573914,654.081909 
	C839.663513,648.276123 811.576172,650.348938 783.541382,650.387085 
	C766.544556,650.410217 749.965881,654.214905 733.390747,658.032471 
	C710.483765,663.308411 690.743591,675.289124 670.120300,685.609192 
	C652.096680,694.628479 636.698975,707.451782 620.225891,718.652344 
	C607.040100,727.617676 597.977905,741.021973 590.994690,755.406189 
	C587.832947,761.919067 584.332886,768.003540 579.330139,773.277344 
	C567.587158,785.656494 560.792786,800.195740 556.944580,817.048279 
	C553.000793,834.319275 553.822388,851.791382 551.325378,869.030945 
	C549.986328,878.275879 550.933716,887.846252 549.024902,896.832397 
	C546.267822,909.812195 546.521729,922.935608 544.983154,935.942627 
	C543.988647,944.349915 544.630005,952.991028 543.207336,961.299438 
	C539.638916,982.138611 540.611511,1003.123169 540.049683,1024.533447 
	C534.645081,1025.000000 529.290100,1025.000000 523.400269,1024.535278 
	C523.212097,1005.759521 522.598145,987.355896 524.937744,969.189209 
	C527.528015,949.075134 528.611084,928.848938 530.835693,908.728088 
	C532.135986,896.966736 532.528870,885.177124 533.397095,873.407837 
	C534.056641,864.467896 535.852173,855.542297 534.464111,845.439758 
	C534.201904,857.397827 530.438416,867.705688 529.284119,878.466003 
	C526.430908,905.064392 520.253723,931.143921 516.616333,957.634338 
	C515.012512,969.315063 512.373230,980.837769 511.068207,992.603088 
	C510.178711,1000.622131 510.396454,1008.844604 507.408600,1016.626404 
	C506.418701,1019.204590 505.092194,1022.417725 508.000000,1025.000000 
	C502.645081,1025.000000 497.290131,1025.000000 491.467590,1025.000000 
	C493.554535,1007.937683 495.966278,990.852295 498.721649,973.822510 
	C500.180573,964.805481 502.698975,955.948303 503.935333,946.909058 
	C507.415009,921.468079 513.326477,896.412048 515.768127,870.809143 
	C516.436340,863.802795 518.731934,857.110352 521.586121,850.736633 
	C528.453735,835.400208 534.508545,819.729797 541.601074,804.467712 
	C550.221619,785.917542 562.206116,769.627930 573.262329,752.681458 
	C577.895691,745.579651 582.204163,738.247498 586.783691,731.158020 
	C593.933350,720.089600 603.975586,711.272339 614.526245,703.404053 
	C625.462402,695.248291 636.568848,687.036011 648.214417,680.177368 
	C665.044495,670.265259 682.144836,660.577637 700.555725,653.344543 
	C708.892151,650.069458 717.174377,647.055298 725.754883,644.531067 
	C750.571167,637.230469 775.918701,633.997192 801.658875,635.117432 
	C819.799805,635.906799 838.031555,634.510864 856.065063,636.754333 
	C880.365967,639.777588 903.674927,646.359924 924.683899,659.457275 
	C933.292847,664.824158 939.944458,671.763123 940.899170,682.703186 
	C941.415100,688.615845 940.094299,693.136536 934.997620,696.973022 
	C924.138367,705.147522 911.603455,709.620056 899.122681,714.202942 
	C893.787903,716.161804 891.694275,718.932861 892.004639,724.821106 
	C893.320068,749.778198 888.261841,773.748352 879.621582,797.037842 
	C878.828552,799.175598 879.258789,800.188721 880.927368,801.614685 
	C885.601196,805.609192 885.572571,809.032898 883.929321,814.979004 
	C881.591858,823.436951 877.716125,831.955627 882.039124,841.077454 
	C883.872925,844.946899 882.471924,848.802368 881.754028,852.950134 
	C880.467224,860.385437 880.089966,868.521118 881.794739,875.786377 
	C883.696960,883.893372 883.317200,891.978455 884.046326,900.008606 
	C885.170776,912.391479 885.366699,924.935120 886.545288,937.286072 
	C887.856323,951.025574 887.661926,964.908447 889.678345,978.471680 
	C891.567139,991.176025 891.606201,1004.146667 894.984436,1016.650940 
	C895.615540,1018.987122 895.160828,1021.616699 895.103638,1024.555420 
	C889.977905,1025.000000 884.955811,1025.000000 879.362427,1024.589478 
	C876.824036,1010.891235 874.205444,997.622925 874.283997,984.171509 
	C874.346924,973.385925 870.451782,963.042847 871.582886,952.202332 
	C872.208435,946.206848 869.287048,940.413025 870.049011,934.378540 
	C870.730469,928.981995 870.223267,923.875427 867.079346,919.045898 
	C864.767700,934.245850 862.656433,949.388550 862.413452,964.665344 
	C862.093628,984.774414 861.684448,1004.900146 863.000000,1025.000000 
	C858.310730,1025.000000 853.621521,1025.000000 848.466125,1025.000000 
z"/>
<path fill="#000000" opacity="1.000000" stroke="none" 
	d="
M396.480103,140.565338 
	C399.103302,140.173401 401.303345,140.155441 402.258514,142.736450 
	C402.774780,144.131470 402.126984,145.400070 400.883362,146.154327 
	C399.112579,147.228363 397.052185,149.260422 395.231873,146.901764 
	C393.735901,144.963470 392.975739,142.320724 396.480103,140.565338 
z"/>
<path fill="#000000" opacity="1.000000" stroke="none" 
	d="
M253.720123,228.874786 
	C255.718506,229.795776 257.752441,230.563934 256.704193,232.894379 
	C255.608093,235.331268 253.056412,235.457993 250.780655,235.693314 
	C249.320816,235.844269 248.664810,234.785004 248.811935,233.491348 
	C249.113586,230.839172 250.065216,228.665344 253.720123,228.874786 
z"/>
<path fill="#000000" opacity="1.000000" stroke="none" 
	d="
M744.040894,686.061279 
	C743.786438,689.738831 742.573547,692.060364 738.769348,691.215576 
	C734.968872,690.371643 731.047058,689.280640 730.734497,684.460571 
	C730.525818,681.242737 732.244812,679.134094 735.661011,678.704590 
	C739.448242,678.228394 742.763367,678.520325 743.626953,683.194702 
	C743.777466,684.009338 743.910522,684.827148 744.040894,686.061279 
z"/>
<path fill="#000000" opacity="1.000000" stroke="none" 
	d="
M898.738892,672.969238 
	C901.571716,674.253845 902.510010,676.544312 903.294556,678.924805 
	C904.839111,683.611450 903.830139,685.320740 898.865356,685.865845 
	C895.668762,686.216797 892.010742,686.090698 890.995667,682.431335 
	C889.939453,678.623718 891.501892,675.256165 895.495544,673.610718 
	C896.394043,673.240662 897.398071,673.126648 898.738892,672.969238 
z"/>
</svg>