<svg version="1.1" id="Layer_1" xmlns="http://www.w3.org/2000/svg" xmlns:xlink="http://www.w3.org/1999/xlink" x="0px" y="0px"
	 width="100%" viewBox="0 0 720 1024" enable-background="new 0 0 720 1024" xml:space="preserve">
<path fill="#000000" opacity="1.000000" stroke="none" 
	d="
M0.999998,999.468262 
	C2.210850,988.431580 3.548376,977.875793 4.607058,967.292114 
	C7.057512,942.794983 10.369859,918.405334 13.956214,894.060242 
	C17.928408,867.095764 21.960112,840.124573 26.862309,813.320312 
	C28.780024,802.834473 28.454130,793.839050 23.694611,783.850281 
	C14.710019,764.994324 19.460278,749.487549 36.755131,735.977661 
	C41.469734,732.294800 43.593697,728.059998 44.895493,722.421387 
	C54.679058,680.045227 65.959778,638.123291 83.551811,598.154907 
	C112.907257,531.460510 161.635315,485.088013 229.532043,458.879486 
	C262.244049,446.252472 296.255524,439.790070 331.228058,437.495056 
	C366.331360,435.191498 400.773682,437.864777 434.291351,448.930817 
	C464.614136,458.941986 490.544159,475.532959 509.840729,501.413971 
	C518.149536,512.557861 523.919128,524.855835 523.490173,539.222473 
	C523.101196,552.248169 517.221863,562.465454 507.049622,570.370972 
	C499.161774,576.501160 490.008545,580.093201 480.699707,583.299927 
	C477.591461,584.370728 476.227051,585.701782 476.571960,589.386292 
	C478.013947,604.792053 479.378418,620.217957 480.194031,635.666992 
	C482.564728,680.575073 484.846283,725.491638 484.448853,770.490173 
	C484.410065,774.881836 485.542877,778.966675 487.480255,782.976929 
	C497.625854,803.977173 507.601807,825.059387 517.664001,846.100098 
	C518.494080,847.835815 519.094116,849.776123 521.444580,851.507080 
	C523.215088,843.764160 525.028564,836.575989 526.488281,829.316711 
	C531.765686,803.072021 536.974487,776.813171 542.094788,750.537415 
	C543.493103,743.361877 544.414124,736.094604 545.704590,728.896362 
	C546.338745,725.358582 545.999756,722.230591 544.424011,718.845642 
	C539.106506,707.422607 543.681824,681.217285 558.668030,672.433716 
	C562.115112,670.413330 562.481995,668.246887 561.572327,664.732910 
	C559.129456,655.295410 556.322266,646.353638 548.376160,639.595154 
	C543.233032,635.220825 543.542114,628.676514 547.727722,623.925476 
	C551.991882,619.085449 557.684448,618.501221 563.417908,622.394470 
	C573.956787,629.550598 579.184753,640.075012 582.402832,651.990295 
	C585.046021,661.777100 585.230591,662.142151 595.586060,661.597839 
	C621.070740,660.258118 646.564453,660.971008 672.052795,660.710999 
	C676.019409,660.670593 679.824158,661.178467 682.537659,664.360474 
	C685.464539,667.792542 687.243103,671.614990 685.268799,676.288696 
	C683.084778,681.458679 679.209290,684.157166 673.659241,684.216736 
	C663.160522,684.329468 652.659302,684.220764 642.160767,684.341675 
	C631.000183,684.470154 619.841125,684.742615 608.682373,684.996094 
	C607.216431,685.029480 605.668823,684.828308 603.998230,685.929016 
	C603.944702,690.377563 605.492126,694.825012 605.424988,699.483521 
	C605.156677,718.084290 591.510864,734.011658 573.113220,736.257690 
	C568.656555,736.801758 567.929871,739.330383 567.305969,742.870300 
	C560.057068,783.998535 552.264893,825.018921 542.268127,865.586365 
	C540.869324,871.262817 538.972168,876.787842 535.729248,881.721680 
	C529.584839,891.069458 519.817383,891.883118 512.270935,883.617493 
	C508.422028,879.401794 505.674347,874.405945 503.114014,869.352112 
	C497.175751,857.630676 491.368652,845.842773 484.386810,834.134399 
	C484.386810,838.609009 484.406799,843.083801 484.383453,847.558289 
	C484.259094,871.390503 484.279419,895.224854 483.953735,919.054382 
	C483.527985,950.204712 482.842072,981.351501 482.231537,1012.499146 
	C482.061584,1021.169373 481.744507,1021.418091 473.177673,1021.419800 
	C471.178009,1021.420166 469.173859,1021.375549 467.179443,1021.487793 
	C459.936615,1021.895081 458.719635,1020.926514 458.818176,1013.518127 
	C459.168304,987.193726 459.332031,960.860962 460.170837,934.550659 
	C460.988953,908.889832 460.234711,883.222656 461.040070,857.572693 
	C461.777588,834.081421 461.629425,810.587891 461.661530,787.093384 
	C461.706635,754.099060 460.812897,721.113098 459.470490,688.161499 
	C458.183746,656.576172 455.604126,625.043396 453.568573,593.489075 
	C453.518127,592.707275 453.184937,591.943665 452.840118,590.621155 
	C443.042023,592.329712 433.447998,594.217285 423.785950,595.644165 
	C401.891785,598.877441 379.951111,601.697327 357.867249,603.436035 
	C338.434296,604.966125 319.019592,606.741455 299.508881,606.191223 
	C280.997833,605.669189 262.663574,604.011902 245.035645,597.519287 
	C227.031570,590.888184 213.517380,578.492432 201.408142,564.298706 
	C196.945648,559.068054 197.756729,552.164246 202.449112,548.130432 
	C207.383850,543.888306 213.591980,544.037231 218.644440,549.015686 
	C226.000259,556.263733 232.978638,563.854065 241.786789,569.511719 
	C254.387329,577.605286 268.465210,580.409180 283.007568,581.682251 
	C311.693024,584.193542 340.210785,581.568176 368.729431,578.798889 
	C398.215942,575.935730 427.545959,572.042908 456.478699,565.583435 
	C467.043274,563.224915 477.505188,560.360535 487.192444,555.315247 
	C499.506165,548.901855 503.023895,539.931641 497.583893,527.066589 
	C491.076447,511.677094 479.368591,500.539307 466.116577,490.971039 
	C443.111572,474.360931 416.838898,465.915161 389.090088,462.609833 
	C334.139465,456.064301 280.721344,462.995636 229.577850,484.386993 
	C170.599854,509.055206 129.272263,551.591431 104.115097,610.237061 
	C87.567284,648.812866 76.797661,689.117920 67.378647,729.851807 
	C63.182541,747.998535 59.434090,766.242188 55.867924,784.527710 
	C54.830139,789.849060 56.003670,793.684021 59.223347,797.779053 
	C75.006233,817.852905 92.233910,836.626587 109.961739,854.964539 
	C112.149269,857.227417 114.466743,859.375549 115.994278,862.210205 
	C122.306023,835.354492 127.924194,808.453918 133.205017,781.485168 
	C136.780853,763.223633 140.313599,744.949219 142.840363,726.498718 
	C143.149994,724.237793 143.002213,722.248962 141.886826,720.262634 
	C135.400482,708.711182 140.792160,680.572571 155.505310,672.511047 
	C159.003906,670.594116 159.317383,668.352356 158.379227,664.791748 
	C155.901840,655.389404 153.393616,646.364746 145.188736,639.722229 
	C140.152924,635.645264 140.543640,628.567017 144.562698,623.968567 
	C148.642090,619.301086 154.236496,618.517700 159.878555,622.090027 
	C170.714279,628.950745 175.841583,639.634216 179.131302,651.463196 
	C181.986084,661.728210 181.960770,662.041199 192.344772,661.620850 
	C217.996887,660.582397 243.656937,660.839966 269.315460,660.688538 
	C273.664032,660.662903 277.668396,661.485291 280.509766,665.072693 
	C283.412842,668.738037 284.265442,672.776001 282.221802,677.217224 
	C280.015839,682.011047 276.093903,684.156372 271.056671,684.232117 
	C261.892120,684.370117 252.723389,684.215393 243.558304,684.332703 
	C230.401413,684.501160 217.229446,683.819702 204.090088,684.981018 
	C203.124023,685.066345 202.174103,685.334229 200.807159,685.595581 
	C201.219955,690.697021 202.502411,695.499756 202.397507,700.489807 
	C202.021271,718.386719 187.416565,734.642151 169.590179,736.265930 
	C165.985794,736.594238 164.837631,738.176697 164.287872,741.443481 
	C157.333298,782.769470 149.255508,823.870972 139.339157,864.598267 
	C138.114975,869.626099 136.529877,874.544067 134.219269,879.176392 
	C128.935608,889.769043 118.476593,892.456543 108.726357,885.713989 
	C102.102882,881.133606 96.647179,875.245728 91.125565,869.460022 
	C77.433014,855.112305 63.936546,840.584961 51.222084,825.350952 
	C50.816612,824.865173 50.273735,824.494080 49.444004,823.758423 
	C47.310314,828.636719 47.192757,833.598511 46.456474,838.359863 
	C42.060062,866.790527 37.464718,895.198364 33.662895,923.710754 
	C29.904547,951.896973 26.048315,980.102478 25.167873,1008.591919 
	C25.085836,1011.246521 24.934095,1013.964111 24.288670,1016.519531 
	C23.515409,1019.581238 24.488495,1021.619202 27.274855,1023.486816 
	C30.108707,1020.068115 34.175747,1020.716614 38.077080,1020.719849 
	C89.409019,1020.762634 140.742035,1021.016296 192.072174,1020.737183 
	C206.007172,1020.661438 219.346100,1025.378906 233.628326,1024.826172 
	C161.645767,1025.000000 89.291542,1025.000000 16.598831,1024.763550 
	C16.715878,1023.908203 17.171410,1023.289307 17.739611,1022.517334 
	C13.981329,1020.827148 10.333578,1021.401978 6.800025,1021.436462 
	C3.998979,1021.463745 2.034477,1020.669983 1.000000,1018.000000 
	C1.000000,1011.978821 1.000000,1005.957703 0.999998,999.468262 
z"/>
<path fill="#000000" opacity="1.000000" stroke="none" 
	d="
M376.468658,1025.000000 
	C384.903351,1023.890381 393.267609,1020.276367 402.582397,1020.652466 
	C417.999908,1021.274902 433.464935,1021.071350 448.898834,1020.722717 
	C453.473969,1020.619385 456.144745,1024.592529 460.686218,1024.798584 
	C432.979095,1025.000000 404.958221,1025.000000 376.468658,1025.000000 
z"/>
<path fill="#000000" opacity="1.000000" stroke="none" 
	d="
M305.859741,518.953491 
	C308.363708,520.344238 310.726715,521.329712 312.614655,522.890015 
	C315.671661,525.416504 316.430664,528.855042 314.257629,532.246643 
	C312.075836,535.651855 308.868500,537.201233 304.831543,535.209045 
	C300.806458,533.222778 296.774994,531.370728 292.349426,530.321716 
	C283.329742,528.183838 275.672760,530.934875 268.613220,536.315125 
	C266.896423,537.623535 265.228241,539.020630 263.397369,540.149292 
	C259.280701,542.687012 255.398209,542.087097 252.776566,538.677551 
	C250.099579,535.196045 250.611633,531.573792 254.423691,528.156189 
	C269.531311,514.611694 286.382446,510.471863 305.859741,518.953491 
z"/>
<path fill="#000000" opacity="1.000000" stroke="none" 
	d="
M440.071960,527.355103 
	C433.500366,523.950745 430.908325,519.699707 431.760986,513.726501 
	C432.490540,508.615631 435.692810,505.389038 440.438080,503.768433 
	C445.301727,502.107330 450.542175,503.872650 453.809113,507.999603 
	C457.028656,512.066650 457.287537,518.105774 454.429474,522.471375 
	C451.516357,526.921021 446.301636,528.781860 440.071960,527.355103 
z"/>
</svg>