<svg version="1.1" id="Layer_1" xmlns="http://www.w3.org/2000/svg" xmlns:xlink="http://www.w3.org/1999/xlink" x="0px" y="0px"
	 width="100%" viewBox="0 0 1302 1500" enable-background="new 0 0 1302 1500" xml:space="preserve">
<path fill="#FFFFFF" opacity="1.000000" stroke="none" 
	d="
M1303.000000,709.000000 
	C1303.000000,972.967957 1303.000000,1236.935913 1303.000000,1500.951904 
	C869.084778,1500.951904 435.169586,1500.951904 1.000000,1500.951904 
	C1.000000,1057.638672 1.000000,614.277283 1.368114,170.537125 
	C3.160939,174.830719 4.559219,179.511337 6.015851,184.173737 
	C9.079691,193.980499 11.809910,203.916351 15.458818,213.501633 
	C16.692057,216.741241 19.827782,219.859695 22.898937,221.661972 
	C28.129644,224.731613 33.184097,222.466507 37.559383,218.899185 
	C42.425022,214.932053 44.044643,209.721222 42.659042,203.710953 
	C41.653980,199.351318 40.343769,195.049500 38.945511,190.795563 
	C35.577206,180.548172 32.745598,170.052246 28.445559,160.203156 
	C24.002575,150.026657 13.402649,148.880951 5.605584,156.784470 
	C4.145871,158.264114 2.538976,159.598557 1.000000,161.000000 
	C1.000000,107.688271 1.000000,54.376549 1.000000,1.000000 
	C289.694702,1.000000 578.389404,1.000000 867.606201,1.363222 
	C867.151184,2.491385 866.238159,3.361377 865.186218,4.004069 
	C858.766785,7.926293 856.854553,15.976654 860.952148,22.059074 
	C860.969910,22.015034 860.876282,22.030886 860.895020,22.387413 
	C861.909790,24.212614 862.905884,25.681288 863.935913,27.101044 
	C863.969910,27.052124 863.851990,27.035200 863.851929,27.352142 
	C864.213806,28.146873 864.575623,28.624660 864.952026,29.058054 
	C864.966614,29.013660 864.874390,29.028667 864.884888,29.384508 
	C865.932739,31.499418 866.970154,33.258484 868.005981,35.008595 
	C868.004395,34.999634 867.990234,34.988983 868.037598,35.324547 
	C869.027649,36.817921 869.970215,37.975731 870.943604,39.093605 
	C870.974426,39.053665 870.874878,39.037361 870.864685,39.407249 
	C874.197815,44.899712 877.541138,50.022282 880.926880,55.110756 
	C880.969360,55.076656 880.862488,55.055466 880.806580,55.418465 
	C882.126953,57.574883 883.503174,59.368301 884.921875,61.127045 
	C884.964294,61.092373 884.861816,61.053577 884.827820,61.418655 
	C888.312622,67.440636 894.688904,69.121254 901.280823,66.129257 
	C908.119324,63.025352 912.196960,56.400425 909.403076,50.546413 
	C901.337830,33.647320 893.213318,16.682451 879.658081,3.179282 
	C879.184753,2.707812 879.208130,1.737697 879.000000,0.999998 
	C1020.280334,1.000000 1161.560669,1.000000 1303.000000,1.000000 
	C1303.000000,229.028015 1303.000000,457.056061 1302.656006,685.491333 
	C1301.026123,684.219482 1299.582153,682.637451 1298.480591,680.845093 
	C1292.337769,670.850403 1286.773071,660.457642 1280.053955,650.871582 
	C1272.960083,640.750549 1263.192871,640.101440 1253.604370,647.980042 
	C1250.146729,650.821167 1248.891724,656.917358 1251.992188,662.631104 
	C1259.963135,677.320923 1268.391602,691.767273 1276.876831,706.169739 
	C1278.980469,709.740356 1282.351562,711.797363 1286.977661,711.052002 
	C1292.290771,710.196106 1297.656860,709.669556 1303.000000,709.000000 
M287.257385,120.574181 
	C287.803650,120.836105 288.349945,121.098030 289.405579,121.926323 
	C298.265076,125.509262 306.908447,121.285210 309.150940,112.373032 
	C309.128937,109.947456 309.817535,107.234131 308.970581,105.142616 
	C303.101746,90.649704 297.100983,76.202202 290.713135,61.932362 
	C288.803589,57.666622 285.352264,54.337795 280.036469,53.915279 
	C268.896423,53.029827 260.928009,63.096531 264.872894,73.709862 
	C268.810791,84.304382 273.128326,94.774582 277.731506,105.097702 
	C279.918427,110.002075 283.156555,114.437683 286.098663,119.556725 
	C286.382019,119.720757 286.665405,119.884789 287.257385,120.574181 
M1074.510742,340.867767 
	C1074.780762,340.645233 1074.943481,340.361267 1075.004883,340.003937 
	C1075.004883,340.003937 1075.015015,339.996338 1075.614136,339.666809 
	C1076.436523,337.794952 1077.258911,335.923096 1078.027344,333.987732 
	C1078.027344,333.987732 1078.062012,334.062134 1078.546021,333.901886 
	C1078.711060,333.612823 1078.876099,333.323792 1079.001099,332.998779 
	C1079.001099,332.998779 1079.046021,333.031830 1079.568726,332.620880 
	C1079.737671,331.766357 1079.906616,330.911835 1080.086060,330.070312 
	C1080.086060,330.070312 1080.103394,330.076385 1080.793823,329.962982 
	C1085.605347,323.569366 1086.421265,317.467987 1083.016235,313.008179 
	C1083.016235,313.008179 1083.080322,312.950348 1083.073608,312.258698 
	C1082.403931,311.481995 1081.734253,310.705292 1081.008301,309.938110 
	C1081.008301,309.938110 1081.060913,309.956604 1080.894409,309.470459 
	C1080.611450,309.293427 1080.328613,309.116425 1080.066284,308.984039 
	C1080.066284,308.984039 1080.071411,308.933105 1079.911133,308.233734 
	C1072.981689,302.638031 1064.285645,303.807922 1059.967651,310.958618 
	C1059.967651,310.958618 1059.923584,310.965515 1059.332275,311.233765 
	C1058.534668,312.465820 1057.737061,313.697906 1056.989014,314.960663 
	C1056.989014,314.960663 1056.931030,314.961304 1056.334961,315.279907 
	C1055.864990,316.495270 1055.395142,317.710632 1054.907227,318.974854 
	C1054.907227,318.974854 1054.887939,318.926270 1054.212036,319.003448 
	C1051.451782,323.977509 1048.691406,328.951538 1045.922974,333.983185 
	C1045.922974,333.983185 1045.892090,333.933685 1045.213013,334.007996 
	C1043.467651,336.995056 1041.722290,339.982117 1039.999390,342.991302 
	C1039.999390,342.991302 1039.969849,342.985779 1039.377075,343.313202 
	C1037.928833,346.209473 1036.480591,349.105713 1034.716553,352.570282 
	C1034.497192,353.389801 1034.277832,354.209320 1033.503296,355.518738 
	C1032.623291,361.441742 1035.217651,365.667908 1040.449097,368.978851 
	C1040.449097,368.978851 1040.917969,369.041656 1041.351562,369.697937 
	C1047.023193,372.235992 1053.093506,371.572357 1056.021606,368.015656 
	C1056.021606,368.015656 1056.091064,368.091614 1056.779785,368.015564 
	C1058.213379,366.030396 1059.646851,364.045227 1061.022705,362.065338 
	C1061.022705,362.065338 1061.086426,362.077545 1061.752197,361.957642 
	C1063.167236,359.637604 1064.582153,357.317596 1066.099487,354.632538 
	C1066.099487,354.632538 1066.082275,354.253845 1066.525024,353.947266 
	C1066.693604,353.637054 1066.862305,353.326843 1066.997925,353.007446 
	C1066.997925,353.007446 1067.027588,353.029755 1067.612549,352.711212 
	C1068.423096,351.152985 1069.233643,349.594727 1070.009521,348.002899 
	C1070.009521,348.002899 1070.037842,348.033936 1070.593628,347.729034 
	C1071.063232,346.822784 1071.532837,345.916504 1072.491455,344.698608 
	C1072.674194,344.161316 1072.856812,343.623993 1073.531616,342.731842 
	C1073.713135,342.168335 1073.894775,341.604858 1074.019531,340.991547 
	C1074.019531,340.991547 1074.049438,341.060974 1074.510742,340.867767 
M826.248230,356.022186 
	C825.463562,357.669037 824.678955,359.315918 823.969604,360.930237 
	C823.969604,360.930237 823.907532,360.876648 823.232483,360.977814 
	C819.773254,367.304565 816.314026,373.631287 812.949463,379.946960 
	C812.949463,379.946960 812.910706,379.859802 812.224182,380.097321 
	C807.689209,387.374390 812.859863,399.142120 821.653381,400.562653 
	C824.752563,401.063324 828.163513,399.633972 831.761902,399.087158 
	C831.761902,399.087158 832.020508,398.882538 832.643555,398.782410 
	C833.439392,397.858246 834.235229,396.934113 834.997864,395.997864 
	C834.997864,395.997864 835.011169,396.030579 835.607788,395.722107 
	C838.074280,391.816650 840.540771,387.911194 843.000000,384.000000 
	C843.000000,384.000000 843.006287,384.006714 843.523865,383.682556 
	C843.972290,382.803741 844.420715,381.924927 845.088074,380.764954 
	C845.088074,380.764954 845.109558,380.409332 845.687805,380.057678 
	C846.425720,378.711700 847.163574,377.365753 848.103210,375.736786 
	C848.103210,375.736786 848.102844,375.389252 848.685425,375.046814 
	C849.426147,373.709167 850.166870,372.371552 851.104675,370.746826 
	C851.104675,370.746826 851.100769,370.398590 851.695618,370.018311 
	C852.843140,367.695038 853.990601,365.371765 855.052551,363.070618 
	C855.052551,363.070618 855.107361,363.139954 855.764771,362.969757 
	C857.183044,360.555145 858.744690,358.212128 859.992859,355.712555 
	C863.806824,348.074921 860.553406,339.062988 852.904297,335.780060 
	C845.486816,332.596527 836.832153,336.753418 833.926086,344.878754 
	C833.926086,344.878754 833.853943,344.830017 833.185608,344.941315 
	C831.087097,348.617279 828.988647,352.293274 826.968994,355.947357 
	C826.968994,355.947357 826.922119,355.880280 826.248230,356.022186 
M54.041153,443.321228 
	C54.151505,442.642273 54.261856,441.963318 54.821495,440.658417 
	C57.627235,430.952881 53.991409,423.547211 44.987507,420.627838 
	C38.253853,418.444550 31.516617,422.158234 28.281944,429.987152 
	C28.086109,430.256989 27.976419,430.558167 27.451515,431.411224 
	C23.268888,445.708282 18.806688,459.931885 15.024040,474.333984 
	C13.190025,481.316833 16.078003,485.885895 22.694962,489.193756 
	C29.200384,492.445770 34.032562,491.570221 39.797310,485.831238 
	C40.884502,484.013580 42.384304,482.323364 42.991405,480.357452 
	C46.724770,468.268433 50.256470,456.117096 54.041153,443.321228 
M617.528259,336.602997 
	C616.942139,340.216461 614.909424,344.369324 616.020813,347.349854 
	C620.787598,360.133698 626.479797,372.572449 631.896545,385.869354 
	C633.339355,388.643433 634.507324,391.609528 636.283020,394.151031 
	C639.819458,399.212524 646.607422,400.502411 652.815796,397.650269 
	C658.884460,394.862274 663.383606,387.924164 661.432861,382.541504 
	C657.332886,371.228821 652.507385,360.179077 647.899902,348.298248 
	C646.112183,344.596191 644.653809,340.686401 642.474365,337.231384 
	C636.108337,327.139282 625.815796,326.801971 617.528259,336.602997 
M1253.924805,299.753937 
	C1260.078125,296.300323 1262.523804,292.070099 1260.711914,285.482269 
	C1257.070679,272.241638 1252.861816,259.157074 1248.849365,245.584839 
	C1248.769653,245.293625 1248.596069,245.077927 1248.196045,244.189545 
	C1247.870605,243.253281 1247.590698,242.298096 1247.212402,241.383728 
	C1244.150146,233.981995 1236.911743,229.967255 1230.134888,232.147842 
	C1222.467651,234.614883 1217.005005,242.512268 1219.628174,249.828415 
	C1222.133667,256.815765 1223.542725,264.188110 1225.782227,271.281189 
	C1228.305176,279.272614 1231.217651,287.141052 1233.978882,294.993835 
	C1233.978882,294.993835 1233.923096,295.038422 1234.009277,295.729492 
	C1239.418335,303.483063 1246.503784,305.094147 1253.924805,299.753937 
M1229.345581,1118.979614 
	C1234.761475,1122.360718 1240.195679,1121.904785 1245.056885,1118.207153 
	C1249.264893,1115.006348 1252.209961,1110.824585 1250.328857,1104.159546 
	C1249.282715,1100.844604 1248.480591,1097.427734 1247.146118,1094.233154 
	C1242.600098,1083.350830 1238.041870,1072.466431 1233.127319,1061.748413 
	C1230.811523,1056.697876 1227.568237,1052.176880 1221.106201,1051.834229 
	C1209.360596,1051.211792 1201.948486,1059.934814 1206.067505,1070.845825 
	C1211.452759,1085.110840 1217.889526,1098.985107 1224.111572,1112.921387 
	C1225.061768,1115.049927 1227.290283,1116.607666 1229.345581,1118.979614 
M753.000000,208.999954 
	C753.000000,208.999954 753.025208,208.979248 753.081970,209.709946 
	C754.382874,210.848404 755.501709,212.444565 757.015930,213.046829 
	C763.895569,215.783310 771.700134,213.534622 775.801453,207.248184 
	C783.183777,195.932755 790.616699,184.613403 797.215881,172.840225 
	C800.328064,167.287872 803.560547,160.814117 798.906372,154.174515 
	C792.337952,144.804153 785.611267,141.089630 775.670532,149.976013 
	C773.405273,152.001053 771.727173,154.789673 770.132385,157.439606 
	C763.007446,169.278610 755.692383,181.021729 749.097717,193.153717 
	C745.664856,199.469223 748.038513,206.712296 753.000000,208.999954 
M593.677246,72.896683 
	C598.484070,64.856903 603.774109,57.059044 607.955811,48.706276 
	C611.800110,41.027657 606.725464,31.378340 598.047363,26.411652 
	C591.712341,22.785973 585.353333,26.529385 580.544128,33.535587 
	C572.311096,45.529766 565.023560,58.205658 557.871033,70.895210 
	C554.225830,77.362350 552.532410,82.182999 558.727722,89.032890 
	C562.839600,93.579277 568.255676,96.631042 574.270630,94.552986 
	C584.370422,91.063721 589.940063,82.958366 593.000000,73.000000 
	C593.000000,73.000000 592.995117,72.994995 593.677246,72.896683 
M80.914848,814.333618 
	C78.417213,810.865845 75.805794,807.473389 73.448708,803.912537 
	C69.945747,798.620667 58.664379,799.289246 53.380569,801.505066 
	C49.216202,803.251343 45.626133,812.883423 47.780682,818.238464 
	C50.766151,825.658630 54.596081,832.767334 58.456165,839.794189 
	C60.118797,842.820801 62.763462,845.307983 64.998009,848.505493 
	C64.998009,848.505493 65.044403,848.969849 65.021156,849.707275 
	C67.415794,853.396484 70.403488,856.843079 72.039398,860.842590 
	C73.698166,864.897888 76.552032,866.401367 80.244926,866.785522 
	C83.344086,867.107971 86.621666,867.151245 89.633972,866.480957 
	C92.832710,865.769104 97.330101,864.916260 98.596588,862.641785 
	C102.108673,856.334473 102.182228,849.401123 98.238144,842.758301 
	C94.049133,835.703064 90.278931,828.397705 86.034576,821.377686 
	C84.935394,819.559692 82.746605,818.400513 81.008911,816.309631 
	C80.979050,815.890442 80.949181,815.471191 80.914848,814.333618 
M1183.147217,821.768311 
	C1195.713745,778.675842 1201.886230,734.514587 1202.713135,689.800842 
	C1203.393433,653.013977 1201.774414,616.185791 1201.368530,579.373779 
	C1201.348511,577.552002 1202.768799,575.234863 1204.227417,573.958801 
	C1210.723633,568.275391 1218.546143,563.764343 1223.924316,557.215759 
	C1236.477051,541.931274 1248.339600,526.024170 1259.622925,509.773010 
	C1266.921631,499.260925 1261.505981,485.118744 1249.627319,480.575623 
	C1240.722900,477.170044 1231.681396,480.677002 1225.146729,489.972717 
	C1217.295166,501.141724 1209.358765,512.251282 1201.537476,523.441589 
	C1200.708130,524.628174 1200.405029,526.182678 1199.857666,527.566528 
	C1199.184448,527.013245 1198.511230,526.460022 1197.837891,525.906799 
	C1196.889771,516.828552 1195.996094,507.744202 1194.975342,498.674133 
	C1194.221680,491.977997 1192.966064,485.449951 1187.147827,480.967010 
	C1180.306030,475.695465 1171.688843,475.182526 1164.245605,479.606079 
	C1157.353149,483.702301 1154.002563,491.783142 1155.226196,500.792633 
	C1156.219360,508.105072 1156.976929,515.449524 1157.994995,524.106140 
	C1155.395508,522.381226 1153.945190,521.402954 1152.479248,520.448486 
	C1138.816772,511.552673 1125.421509,502.204193 1111.395264,493.924286 
	C1101.602905,488.143707 1090.485962,491.763550 1085.088745,501.063629 
	C1079.679565,510.384247 1082.650391,521.735840 1092.179932,528.022400 
	C1095.792847,530.405823 1099.473755,532.685608 1103.095581,535.055603 
	C1120.783325,546.629883 1138.344971,558.404053 1156.239136,569.649231 
	C1159.907471,571.954468 1161.811157,574.093262 1161.890747,578.389343 
	C1162.457886,609.038757 1163.698242,639.686035 1163.673828,670.333191 
	C1163.645386,706.016663 1160.452271,741.487610 1153.470459,776.560486 
	C1145.269897,817.754761 1130.806641,856.773499 1113.112183,894.732239 
	C1092.903320,938.084900 1068.796509,979.297913 1044.628540,1020.484314 
	C1044.229492,1021.164429 1043.348755,1021.561951 1042.706787,1022.080139 
	C1042.706787,1014.273132 1042.466553,1006.810486 1042.746338,999.367432 
	C1044.366333,956.259644 1046.167480,913.158752 1047.779663,870.050659 
	C1048.382812,853.918457 1049.350098,837.751404 1048.849243,821.640686 
	C1048.396729,807.086853 1042.099121,795.376465 1027.533447,789.611572 
	C1024.459595,788.395020 1021.611633,786.584839 1018.712463,784.954102 
	C996.963196,772.720886 975.227051,760.464478 953.487549,748.213989 
	C952.149597,747.460022 950.818176,746.694519 948.690796,745.482788 
	C952.006287,744.469482 954.218201,743.773071 956.442139,743.117065 
	C974.759033,737.714111 993.205078,732.710205 1011.364685,726.822632 
	C1034.644043,719.275330 1057.501953,710.610107 1078.016968,696.814819 
	C1104.908325,678.731812 1116.996094,650.931396 1110.904663,620.055603 
	C1106.362061,597.029663 1094.252808,577.810242 1079.382080,560.190002 
	C1052.857422,528.761108 1019.730469,506.326935 982.352173,489.872742 
	C934.123901,468.642273 883.174011,460.088196 830.915283,458.228729 
	C795.893066,456.982574 761.017883,459.015381 726.254761,463.732880 
	C678.574646,470.203247 632.071350,481.312012 587.464844,499.346222 
	C478.980103,543.205994 397.367493,616.390076 345.831940,722.196228 
	C312.051300,791.550171 291.092438,865.143555 273.021942,939.729248 
	C272.706299,941.031921 272.294037,942.311279 271.612244,944.707153 
	C270.165253,942.223145 269.285278,940.866699 268.554810,939.434082 
	C263.185516,928.903076 257.732117,918.412903 252.517776,907.805359 
	C233.105087,868.314636 216.827591,827.664978 207.517502,784.488708 
	C200.304291,751.036804 196.182999,717.171265 196.056000,682.971252 
	C195.928589,648.657837 196.912415,614.341125 197.263275,580.024353 
	C197.315598,574.907349 199.186813,571.939270 203.711639,569.091248 
	C225.259964,555.528259 246.469162,541.425964 267.781494,527.488770 
	C274.539612,523.069397 277.648468,516.635742 276.789001,508.737823 
	C275.951263,501.040009 271.603149,495.552856 264.346375,492.570862 
	C257.353729,489.697449 250.864563,491.399017 244.890488,495.262238 
	C232.171387,503.487091 219.593063,511.929626 206.946762,520.267334 
	C205.388672,521.294556 203.767838,522.226746 201.542847,523.591370 
	C202.484985,514.068665 203.670837,505.668335 204.063553,497.231079 
	C204.587799,485.967438 197.196060,477.702576 186.537247,476.840973 
	C175.265274,475.929810 166.521835,483.013916 165.018631,494.426392 
	C164.192902,500.695374 163.619812,506.997192 162.879700,513.277954 
	C162.373627,517.572693 161.775894,521.856689 161.057404,527.391357 
	C159.091370,524.843201 157.952515,523.462036 156.915680,522.008179 
	C148.893372,510.758911 140.887772,499.497772 132.883026,488.235992 
	C126.248192,478.901550 114.502876,476.701294 105.191750,483.057159 
	C96.723206,488.837921 93.973328,500.041962 99.501488,509.155823 
	C104.582893,517.533142 110.300491,525.539490 115.988808,533.530579 
	C126.735283,548.627625 138.003632,563.301941 154.113983,573.218018 
	C157.175995,575.102722 158.234070,577.047180 158.058487,580.712769 
	C156.184723,619.828796 154.298355,658.982849 157.108536,698.104187 
	C158.823013,721.971802 160.905670,745.892456 164.538773,769.525574 
	C171.286194,813.417053 185.143967,855.311890 203.191513,895.840393 
	C218.753113,930.786255 236.569153,964.566467 255.472107,997.803650 
	C257.115112,1000.692444 258.095276,1004.864868 257.427429,1008.028198 
	C242.304825,1079.657471 230.124832,1151.810425 219.229721,1224.173340 
	C212.493805,1268.911743 206.161346,1313.737793 201.020920,1358.681519 
	C196.521927,1398.016846 193.866455,1437.565430 190.579010,1477.034912 
	C189.981766,1484.205688 192.252731,1490.664673 198.649933,1494.743896 
	C212.997757,1503.893188 229.186996,1494.930664 229.940125,1477.337036 
	C231.828690,1433.219482 236.562347,1389.359253 242.219254,1345.610718 
	C247.316711,1306.188721 252.812912,1266.804810 258.998383,1227.540527 
	C266.915894,1177.281250 275.677277,1127.154785 284.136108,1076.981445 
	C285.385254,1069.572144 286.970459,1062.219727 288.618286,1053.715454 
	C290.096649,1055.861816 290.873108,1056.885864 291.542297,1057.975830 
	C301.544525,1074.268311 311.416901,1090.641846 321.572632,1106.837891 
	C326.664093,1114.957397 334.954651,1117.957397 343.544159,1115.460083 
	C357.337189,1111.449585 362.131744,1097.503784 354.026855,1084.152100 
	C337.357300,1056.691284 320.593201,1029.286865 303.663757,1001.985901 
	C301.251770,998.096252 300.696564,994.570068 301.803894,990.228210 
	C311.654419,951.603149 320.660095,912.746582 331.310974,874.345520 
	C345.551025,823.004028 363.685852,773.068604 388.603821,725.742065 
	C431.267944,644.710327 494.773895,585.780823 577.276794,546.934631 
	C637.453003,518.600891 701.301392,504.428406 767.277161,499.182587 
	C808.411926,495.911896 849.456909,496.873322 890.243225,503.958649 
	C932.308655,511.266174 972.021240,524.695618 1007.555542,548.921326 
	C1029.781616,564.074097 1049.188965,582.092285 1063.153931,605.430969 
	C1068.163696,613.803528 1071.884155,622.681396 1072.719849,632.438232 
	C1073.854614,645.687317 1067.987671,656.189758 1057.083740,662.763611 
	C1045.045776,670.021240 1032.384521,676.551392 1019.347290,681.786011 
	C985.176147,695.506165 949.553223,704.639038 913.757446,712.988342 
	C867.203613,723.846924 820.146912,731.668884 772.532593,736.216675 
	C729.001892,740.374512 685.477661,742.513123 641.845154,738.051514 
	C610.222229,734.817932 580.246338,726.270020 552.329895,710.751160 
	C538.683960,703.165222 524.955933,695.649109 510.829163,689.031921 
	C500.611053,684.245789 497.015503,687.389282 499.328400,698.533752 
	C501.787201,710.381287 505.032745,722.070862 508.108582,733.783813 
	C513.719482,755.150452 522.949097,774.584351 538.215454,790.942566 
	C553.912109,807.761841 572.549988,820.366089 593.222290,830.063965 
	C649.540466,856.484375 709.360229,867.708130 771.060852,869.838501 
	C820.617676,871.549561 869.911499,867.907471 918.849731,859.881653 
	C949.270691,854.892578 979.225525,848.177795 1007.155579,834.468384 
	C1007.952576,834.077209 1008.945740,834.085815 1010.005493,833.876831 
	C1010.005493,835.022949 1010.045227,835.845886 1009.999756,836.664062 
	C1008.067261,871.421875 1005.283997,906.157349 1004.380920,940.941711 
	C1002.941345,996.385620 1002.535461,1051.860229 1002.079712,1107.325073 
	C1001.100586,1226.477539 1000.363525,1345.632202 999.549805,1464.786011 
	C999.512329,1470.273804 999.282959,1475.806396 999.857788,1481.242676 
	C1001.029419,1492.322510 1010.613220,1499.632446 1021.668335,1498.119385 
	C1030.313354,1496.936157 1038.935181,1490.762939 1039.073120,1475.689819 
	C1039.722900,1404.700317 1040.947998,1333.716064 1041.553101,1262.726318 
	C1041.992065,1211.230957 1041.744019,1159.730103 1041.944092,1108.232178 
	C1041.958618,1104.520386 1042.342407,1100.421509 1043.940796,1097.188110 
	C1046.949341,1091.102295 1051.073120,1085.578003 1054.553345,1079.713379 
	C1074.845825,1045.517822 1095.666138,1011.618652 1115.204590,976.996582 
	C1142.948120,927.834839 1167.262817,877.050903 1183.147217,821.768311 
M1036.199341,154.761581 
	C1035.050781,158.573898 1033.774292,162.353165 1032.780151,166.205338 
	C1030.653320,174.447433 1034.372803,181.960342 1041.614990,184.351868 
	C1050.039185,187.133728 1057.770508,183.959290 1060.566895,175.543076 
	C1065.331421,161.203369 1069.610718,146.692627 1073.699463,132.142899 
	C1075.407349,126.064896 1073.413696,120.318932 1068.444092,116.492043 
	C1063.860840,112.962654 1058.073364,112.815292 1053.413818,116.046921 
	C1049.966309,118.437965 1046.573853,122.087059 1045.108521,125.921509 
	C1041.619629,135.052048 1039.287354,144.624542 1036.199341,154.761581 
M459.503326,406.890778 
	C458.824799,403.894073 458.825043,400.503448 457.353088,397.967224 
	C450.017975,385.328644 442.607117,372.707214 434.507355,360.556732 
	C432.272034,357.203552 427.798828,353.844360 423.970795,353.330353 
	C412.271881,351.759491 404.108307,363.945251 409.795898,374.305145 
	C416.665863,386.818634 424.402344,398.854645 431.681213,411.146240 
	C434.998413,416.747955 439.693207,420.323273 446.267487,419.763916 
	C453.443176,419.153320 457.189423,414.109314 459.503326,406.890778 
M617.820007,626.239685 
	C616.769287,627.304565 615.583801,628.267700 614.690002,629.451050 
	C609.437561,636.404968 608.334900,643.919434 611.978088,651.943359 
	C615.600708,659.922180 622.222717,663.767700 630.614136,663.890564 
	C639.239990,664.016785 645.974854,660.054565 649.953003,652.117920 
	C654.083740,643.877075 652.194397,633.524170 645.517822,627.372864 
	C637.985779,620.433411 627.991699,619.868225 617.820007,626.239685 
M957.207214,612.986816 
	C957.464172,613.949463 957.709900,614.915222 957.979797,615.874146 
	C961.317078,627.727356 973.377258,634.005371 985.063538,629.975586 
	C996.583374,626.003296 1002.308411,613.315674 997.683167,602.008118 
	C993.865723,592.675232 984.158386,587.413086 974.249023,589.304932 
	C963.402893,591.375610 956.945251,599.968994 957.207214,612.986816 
M232.002441,241.546951 
	C230.713440,240.249664 229.479813,238.891174 228.125504,237.666077 
	C223.220947,233.229492 217.346848,232.851974 211.778397,236.553970 
	C204.776962,241.208633 202.541931,249.681488 206.384338,257.381226 
	C208.582565,261.786224 210.618698,266.319641 213.285645,270.433624 
	C219.571228,280.129669 226.119034,289.658966 232.701843,299.157959 
	C236.910400,305.230896 246.452194,303.589783 252.666718,299.544006 
	C256.798279,296.854309 258.792908,286.340912 256.024994,281.627045 
	C248.257874,268.399414 240.328964,255.266800 232.002441,241.546951 
M1145.812378,1174.352417 
	C1151.695923,1165.197876 1157.826782,1156.189331 1163.361084,1146.828369 
	C1166.215576,1142.000000 1167.446655,1136.830933 1165.631714,1130.718018 
	C1163.451416,1123.375366 1157.956787,1121.630859 1151.960571,1120.216553 
	C1146.500610,1118.928955 1141.679688,1120.452637 1138.343994,1125.237793 
	C1136.090820,1128.469727 1134.018677,1131.830811 1131.936157,1135.178101 
	C1126.256104,1144.307739 1120.759644,1153.555664 1114.900269,1162.568115 
	C1111.492432,1167.809814 1110.944214,1175.386475 1114.270630,1180.457886 
	C1117.659058,1185.623779 1125.203247,1188.429321 1131.190918,1187.506348 
	C1138.788940,1186.335449 1141.976562,1180.610962 1145.812378,1174.352417 
M517.170959,224.841949 
	C516.451111,221.331329 516.558960,217.346786 514.867371,214.392609 
	C507.764374,201.988022 500.316406,189.767822 492.605286,177.729614 
	C488.086761,170.675613 479.819275,168.770111 473.470886,172.559952 
	C465.760162,177.163055 463.394409,184.540207 467.997498,192.539551 
	C475.288971,205.210831 483.137054,217.562088 490.765564,230.039001 
	C494.043030,235.399490 498.734467,238.235687 505.040588,236.780731 
	C511.020477,235.401062 515.755798,232.227859 517.170959,224.841949 
M1210.340698,964.048767 
	C1219.070679,971.695129 1227.433594,971.174500 1233.796021,961.363525 
	C1242.191406,948.417603 1249.754395,934.923950 1257.406860,921.512573 
	C1258.512451,919.574829 1258.710571,916.680237 1258.310547,914.407654 
	C1257.260986,908.445557 1253.323608,904.668579 1247.546631,903.223999 
	C1241.114868,901.615723 1235.481201,903.372864 1231.919556,909.143494 
	C1224.067993,921.864258 1216.324341,934.659485 1208.898804,947.631592 
	C1205.923584,952.829407 1205.817627,958.456909 1210.340698,964.048767 
M160.284760,1048.213745 
	C159.251923,1046.701538 158.235641,1045.177734 157.183411,1043.679077 
	C152.351349,1036.796875 144.448273,1034.738647 138.041656,1038.682983 
	C130.785263,1043.150513 128.268433,1051.073975 132.552002,1058.488892 
	C140.041809,1071.454102 147.778366,1084.294189 155.958511,1096.829712 
	C157.802322,1099.655273 161.741287,1102.455200 164.976883,1102.797119 
	C178.456940,1104.222168 186.023788,1093.091064 179.683868,1081.076782 
	C173.866348,1070.052734 167.049149,1059.556152 160.284760,1048.213745 
M353.217896,550.645264 
	C348.384033,562.667480 343.169220,574.555725 338.875793,586.768005 
	C336.704865,592.942932 339.977234,598.468750 345.884460,601.683105 
	C351.971558,604.995361 357.395111,604.361511 362.181122,599.361572 
	C364.105774,597.350891 365.870056,594.958252 366.963623,592.419128 
	C372.490509,579.586609 377.962036,566.723022 383.067291,553.718933 
	C386.001953,546.243713 383.194427,540.248047 375.789612,536.344299 
	C369.322723,532.934998 362.753632,534.428711 358.386688,540.720276 
	C356.419464,543.554504 355.153809,546.875671 353.217896,550.645264 
M25.206209,981.104614 
	C31.289751,981.116211 34.647457,977.274475 36.793129,972.327576 
	C42.618958,958.895874 48.388786,945.433594 53.810368,931.835693 
	C56.569839,924.914551 53.179729,917.203857 46.773888,914.102173 
	C39.807877,910.729187 32.614410,912.457764 28.238823,918.758789 
	C26.634241,921.069519 25.194622,923.563110 24.107403,926.152893 
	C19.340982,937.506165 14.557671,948.858032 10.111294,960.338562 
	C5.209676,972.994568 10.814689,981.001221 25.206209,981.104614 
z"/>
<path fill="#F89ECB" opacity="1.000000" stroke="none" 
	d="
M1.000000,161.449982 
	C2.538976,159.598557 4.145871,158.264114 5.605584,156.784470 
	C13.402649,148.880951 24.002575,150.026657 28.445559,160.203156 
	C32.745598,170.052246 35.577206,180.548172 38.945511,190.795563 
	C40.343769,195.049500 41.653980,199.351318 42.659042,203.710953 
	C44.044643,209.721222 42.425022,214.932053 37.559383,218.899185 
	C33.184097,222.466507 28.129644,224.731613 22.898937,221.661972 
	C19.827782,219.859695 16.692057,216.741241 15.458818,213.501633 
	C11.809910,203.916351 9.079691,193.980499 6.015851,184.173737 
	C4.559219,179.511337 3.160939,174.830719 1.368114,170.079178 
	C1.000000,167.299988 1.000000,164.599976 1.000000,161.449982 
z"/>
<path fill="#FEF4AD" opacity="1.000000" stroke="none" 
	d="
M1303.000000,690.000000 
	C1303.000000,693.692932 1303.000000,697.385803 1302.644043,701.579102 
	C1299.158325,703.563477 1296.148438,705.430481 1292.874756,706.453186 
	C1285.657715,708.707886 1279.846680,706.289062 1275.972900,699.916077 
	C1269.391846,689.089355 1262.677246,678.339661 1256.333008,667.375793 
	C1254.640015,664.449768 1253.791870,660.924866 1253.093384,657.563171 
	C1252.340820,653.940857 1254.062378,651.158081 1257.294556,649.332275 
	C1258.877197,648.438171 1260.321167,646.961548 1261.997192,646.645264 
	C1264.827393,646.111267 1268.716064,645.058716 1270.518555,646.411194 
	C1275.068970,649.825439 1279.499390,653.950745 1282.536621,658.710815 
	C1288.163330,667.529175 1292.640503,677.073914 1297.895386,686.143005 
	C1298.880737,687.843689 1301.262573,688.735168 1303.000000,690.000000 
z"/>
<path fill="#57C5F8" opacity="1.000000" stroke="none" 
	d="
M870.000000,1.000007 
	C872.041748,1.000000 874.083496,1.000000 876.587646,1.367494 
	C879.227661,4.278515 881.831604,6.569929 883.510254,9.408527 
	C891.502808,22.923916 899.293274,36.560020 907.039673,50.218922 
	C908.976013,53.633327 908.162781,56.916801 905.631836,59.858479 
	C899.717773,66.732262 893.229980,67.122276 884.861816,61.053577 
	C884.861816,61.053577 884.964294,61.092373 884.933960,60.765461 
	C883.556580,58.644184 882.209534,56.849815 880.862488,55.055458 
	C880.862488,55.055466 880.969360,55.076656 880.936035,54.744347 
	C877.560120,49.287144 874.217529,44.162251 870.874878,39.037361 
	C870.874878,39.037361 870.974426,39.053665 870.947876,38.734421 
	C869.944275,37.273106 868.967285,36.131031 867.990234,34.988968 
	C867.990234,34.988983 868.004395,34.999634 868.002441,34.641609 
	C866.958374,32.531948 865.916382,30.780315 864.874390,29.028675 
	C864.874390,29.028667 864.966614,29.013660 864.949341,28.737476 
	C864.572021,27.985922 864.212036,27.510551 863.851990,27.035191 
	C863.851990,27.035200 863.969910,27.052124 863.938354,26.743736 
	C862.896667,24.967203 861.886475,23.499058 860.876221,22.030899 
	C860.876282,22.030886 860.969910,22.015034 860.960693,21.644062 
	C858.335144,13.987989 861.748230,9.074749 867.228943,4.825147 
	C868.423218,3.899078 869.090210,2.292923 870.000000,1.000007 
z"/>
<path fill="#FDF8D1" opacity="1.000000" stroke="none" 
	d="
M1303.000000,689.600098 
	C1301.262573,688.735168 1298.880737,687.843689 1297.895386,686.143005 
	C1292.640503,677.073914 1288.163330,667.529175 1282.536621,658.710815 
	C1279.499390,653.950745 1275.068970,649.825439 1270.518555,646.411194 
	C1268.716064,645.058716 1264.827393,646.111267 1261.997192,646.645264 
	C1260.321167,646.961548 1258.877197,648.438171 1257.294556,649.332275 
	C1254.062378,651.158081 1252.340820,653.940857 1253.093384,657.563171 
	C1253.791870,660.924866 1254.640015,664.449768 1256.333008,667.375793 
	C1262.677246,678.339661 1269.391846,689.089355 1275.972900,699.916077 
	C1279.846680,706.289062 1285.657715,708.707886 1292.874756,706.453186 
	C1296.148438,705.430481 1299.158325,703.563477 1302.644043,702.039673 
	C1303.000000,704.041687 1303.000000,706.083313 1303.000000,708.562500 
	C1297.656860,709.669556 1292.290771,710.196106 1286.977661,711.052002 
	C1282.351562,711.797363 1278.980469,709.740356 1276.876831,706.169739 
	C1268.391602,691.767273 1259.963135,677.320923 1251.992188,662.631104 
	C1248.891724,656.917358 1250.146729,650.821167 1253.604370,647.980042 
	C1263.192871,640.101440 1272.960083,640.750549 1280.053955,650.871582 
	C1286.773071,660.457642 1292.337769,670.850403 1298.480591,680.845093 
	C1299.582153,682.637451 1301.026123,684.219482 1302.656006,685.949280 
	C1303.000000,687.066711 1303.000000,688.133362 1303.000000,689.600098 
z"/>
<path fill="#5FA5C6" opacity="1.000000" stroke="none" 
	d="
M884.827820,61.418655 
	C893.229980,67.122276 899.717773,66.732262 905.631836,59.858479 
	C908.162781,56.916801 908.976013,53.633327 907.039673,50.218922 
	C899.293274,36.560020 891.502808,22.923916 883.510254,9.408527 
	C881.831604,6.569929 879.227661,4.278515 877.025024,1.367494 
	C877.444458,1.000000 877.888916,1.000000 878.666687,0.999998 
	C879.208130,1.737697 879.184753,2.707812 879.658081,3.179282 
	C893.213318,16.682451 901.337830,33.647320 909.403076,50.546413 
	C912.196960,56.400425 908.119324,63.025352 901.280823,66.129257 
	C894.688904,69.121254 888.312622,67.440636 884.827820,61.418655 
z"/>
<path fill="#5FA5C6" opacity="1.000000" stroke="none" 
	d="
M869.666687,1.000007 
	C869.090210,2.292923 868.423218,3.899078 867.228943,4.825147 
	C861.748230,9.074749 858.335144,13.987989 860.942932,21.688103 
	C856.854553,15.976654 858.766785,7.926293 865.186218,4.004069 
	C866.238159,3.361377 867.151184,2.491385 868.064209,1.363222 
	C868.444458,1.000000 868.888916,1.000000 869.666687,1.000007 
z"/>
<path fill="#020202" opacity="1.000000" stroke="none" 
	d="
M1183.071289,822.164673 
	C1167.262817,877.050903 1142.948120,927.834839 1115.204590,976.996582 
	C1095.666138,1011.618652 1074.845825,1045.517822 1054.553345,1079.713379 
	C1051.073120,1085.578003 1046.949341,1091.102295 1043.940796,1097.188110 
	C1042.342407,1100.421509 1041.958618,1104.520386 1041.944092,1108.232178 
	C1041.744019,1159.730103 1041.992065,1211.230957 1041.553101,1262.726318 
	C1040.947998,1333.716064 1039.722900,1404.700317 1039.073120,1475.689819 
	C1038.935181,1490.762939 1030.313354,1496.936157 1021.668335,1498.119385 
	C1010.613220,1499.632446 1001.029419,1492.322510 999.857788,1481.242676 
	C999.282959,1475.806396 999.512329,1470.273804 999.549805,1464.786011 
	C1000.363525,1345.632202 1001.100586,1226.477539 1002.079712,1107.325073 
	C1002.535461,1051.860229 1002.941345,996.385620 1004.380920,940.941711 
	C1005.283997,906.157349 1008.067261,871.421875 1009.999756,836.664062 
	C1010.045227,835.845886 1010.005493,835.022949 1010.005493,833.876831 
	C1008.945740,834.085815 1007.952576,834.077209 1007.155579,834.468384 
	C979.225525,848.177795 949.270691,854.892578 918.849731,859.881653 
	C869.911499,867.907471 820.617676,871.549561 771.060852,869.838501 
	C709.360229,867.708130 649.540466,856.484375 593.222290,830.063965 
	C572.549988,820.366089 553.912109,807.761841 538.215454,790.942566 
	C522.949097,774.584351 513.719482,755.150452 508.108582,733.783813 
	C505.032745,722.070862 501.787201,710.381287 499.328400,698.533752 
	C497.015503,687.389282 500.611053,684.245789 510.829163,689.031921 
	C524.955933,695.649109 538.683960,703.165222 552.329895,710.751160 
	C580.246338,726.270020 610.222229,734.817932 641.845154,738.051514 
	C685.477661,742.513123 729.001892,740.374512 772.532593,736.216675 
	C820.146912,731.668884 867.203613,723.846924 913.757446,712.988342 
	C949.553223,704.639038 985.176147,695.506165 1019.347290,681.786011 
	C1032.384521,676.551392 1045.045776,670.021240 1057.083740,662.763611 
	C1067.987671,656.189758 1073.854614,645.687317 1072.719849,632.438232 
	C1071.884155,622.681396 1068.163696,613.803528 1063.153931,605.430969 
	C1049.188965,582.092285 1029.781616,564.074097 1007.555542,548.921326 
	C972.021240,524.695618 932.308655,511.266174 890.243225,503.958649 
	C849.456909,496.873322 808.411926,495.911896 767.277161,499.182587 
	C701.301392,504.428406 637.453003,518.600891 577.276794,546.934631 
	C494.773895,585.780823 431.267944,644.710327 388.603821,725.742065 
	C363.685852,773.068604 345.551025,823.004028 331.310974,874.345520 
	C320.660095,912.746582 311.654419,951.603149 301.803894,990.228210 
	C300.696564,994.570068 301.251770,998.096252 303.663757,1001.985901 
	C320.593201,1029.286865 337.357300,1056.691284 354.026855,1084.152100 
	C362.131744,1097.503784 357.337189,1111.449585 343.544159,1115.460083 
	C334.954651,1117.957397 326.664093,1114.957397 321.572632,1106.837891 
	C311.416901,1090.641846 301.544525,1074.268311 291.542297,1057.975830 
	C290.873108,1056.885864 290.096649,1055.861816 288.618286,1053.715454 
	C286.970459,1062.219727 285.385254,1069.572144 284.136108,1076.981445 
	C275.677277,1127.154785 266.915894,1177.281250 258.998383,1227.540527 
	C252.812912,1266.804810 247.316711,1306.188721 242.219254,1345.610718 
	C236.562347,1389.359253 231.828690,1433.219482 229.940125,1477.337036 
	C229.186996,1494.930664 212.997757,1503.893188 198.649933,1494.743896 
	C192.252731,1490.664673 189.981766,1484.205688 190.579010,1477.034912 
	C193.866455,1437.565430 196.521927,1398.016846 201.020920,1358.681519 
	C206.161346,1313.737793 212.493805,1268.911743 219.229721,1224.173340 
	C230.124832,1151.810425 242.304825,1079.657471 257.427429,1008.028198 
	C258.095276,1004.864868 257.115112,1000.692444 255.472107,997.803650 
	C236.569153,964.566467 218.753113,930.786255 203.191513,895.840393 
	C185.143967,855.311890 171.286194,813.417053 164.538773,769.525574 
	C160.905670,745.892456 158.823013,721.971802 157.108536,698.104187 
	C154.298355,658.982849 156.184723,619.828796 158.058487,580.712769 
	C158.234070,577.047180 157.175995,575.102722 154.113983,573.218018 
	C138.003632,563.301941 126.735283,548.627625 115.988808,533.530579 
	C110.300491,525.539490 104.582893,517.533142 99.501488,509.155823 
	C93.973328,500.041962 96.723206,488.837921 105.191750,483.057159 
	C114.502876,476.701294 126.248192,478.901550 132.883026,488.235992 
	C140.887772,499.497772 148.893372,510.758911 156.915680,522.008179 
	C157.952515,523.462036 159.091370,524.843201 161.057404,527.391357 
	C161.775894,521.856689 162.373627,517.572693 162.879700,513.277954 
	C163.619812,506.997192 164.192902,500.695374 165.018631,494.426392 
	C166.521835,483.013916 175.265274,475.929810 186.537247,476.840973 
	C197.196060,477.702576 204.587799,485.967438 204.063553,497.231079 
	C203.670837,505.668335 202.484985,514.068665 201.542847,523.591370 
	C203.767838,522.226746 205.388672,521.294556 206.946762,520.267334 
	C219.593063,511.929626 232.171387,503.487091 244.890488,495.262238 
	C250.864563,491.399017 257.353729,489.697449 264.346375,492.570862 
	C271.603149,495.552856 275.951263,501.040009 276.789001,508.737823 
	C277.648468,516.635742 274.539612,523.069397 267.781494,527.488770 
	C246.469162,541.425964 225.259964,555.528259 203.711639,569.091248 
	C199.186813,571.939270 197.315598,574.907349 197.263275,580.024353 
	C196.912415,614.341125 195.928589,648.657837 196.056000,682.971252 
	C196.182999,717.171265 200.304291,751.036804 207.517502,784.488708 
	C216.827591,827.664978 233.105087,868.314636 252.517776,907.805359 
	C257.732117,918.412903 263.185516,928.903076 268.554810,939.434082 
	C269.285278,940.866699 270.165253,942.223145 271.612244,944.707153 
	C272.294037,942.311279 272.706299,941.031921 273.021942,939.729248 
	C291.092438,865.143555 312.051300,791.550171 345.831940,722.196228 
	C397.367493,616.390076 478.980103,543.205994 587.464844,499.346222 
	C632.071350,481.312012 678.574646,470.203247 726.254761,463.732880 
	C761.017883,459.015381 795.893066,456.982574 830.915283,458.228729 
	C883.174011,460.088196 934.123901,468.642273 982.352173,489.872742 
	C1019.730469,506.326935 1052.857422,528.761108 1079.382080,560.190002 
	C1094.252808,577.810242 1106.362061,597.029663 1110.904663,620.055603 
	C1116.996094,650.931396 1104.908325,678.731812 1078.016968,696.814819 
	C1057.501953,710.610107 1034.644043,719.275330 1011.364685,726.822632 
	C993.205078,732.710205 974.759033,737.714111 956.442139,743.117065 
	C954.218201,743.773071 952.006287,744.469482 948.690796,745.482788 
	C950.818176,746.694519 952.149597,747.460022 953.487549,748.213989 
	C975.227051,760.464478 996.963196,772.720886 1018.712463,784.954102 
	C1021.611633,786.584839 1024.459595,788.395020 1027.533447,789.611572 
	C1042.099121,795.376465 1048.396729,807.086853 1048.849243,821.640686 
	C1049.350098,837.751404 1048.382812,853.918457 1047.779663,870.050659 
	C1046.167480,913.158752 1044.366333,956.259644 1042.746338,999.367432 
	C1042.466553,1006.810486 1042.706787,1014.273132 1042.706787,1022.080139 
	C1043.348755,1021.561951 1044.229492,1021.164429 1044.628540,1020.484314 
	C1068.796509,979.297913 1092.903320,938.084900 1113.112183,894.732239 
	C1130.806641,856.773499 1145.269897,817.754761 1153.470459,776.560486 
	C1160.452271,741.487610 1163.645386,706.016663 1163.673828,670.333191 
	C1163.698242,639.686035 1162.457886,609.038757 1161.890747,578.389343 
	C1161.811157,574.093262 1159.907471,571.954468 1156.239136,569.649231 
	C1138.344971,558.404053 1120.783325,546.629883 1103.095581,535.055603 
	C1099.473755,532.685608 1095.792847,530.405823 1092.179932,528.022400 
	C1082.650391,521.735840 1079.679565,510.384247 1085.088745,501.063629 
	C1090.485962,491.763550 1101.602905,488.143707 1111.395264,493.924286 
	C1125.421509,502.204193 1138.816772,511.552673 1152.479248,520.448486 
	C1153.945190,521.402954 1155.395508,522.381226 1157.994995,524.106140 
	C1156.976929,515.449524 1156.219360,508.105072 1155.226196,500.792633 
	C1154.002563,491.783142 1157.353149,483.702301 1164.245605,479.606079 
	C1171.688843,475.182526 1180.306030,475.695465 1187.147827,480.967010 
	C1192.966064,485.449951 1194.221680,491.977997 1194.975342,498.674133 
	C1195.996094,507.744202 1196.889771,516.828552 1197.837891,525.906799 
	C1198.511230,526.460022 1199.184448,527.013245 1199.857666,527.566528 
	C1200.405029,526.182678 1200.708130,524.628174 1201.537476,523.441589 
	C1209.358765,512.251282 1217.295166,501.141724 1225.146729,489.972717 
	C1231.681396,480.677002 1240.722900,477.170044 1249.627319,480.575623 
	C1261.505981,485.118744 1266.921631,499.260925 1259.622925,509.773010 
	C1248.339600,526.024170 1236.477051,541.931274 1223.924316,557.215759 
	C1218.546143,563.764343 1210.723633,568.275391 1204.227417,573.958801 
	C1202.768799,575.234863 1201.348511,577.552002 1201.368530,579.373779 
	C1201.774414,616.185791 1203.393433,653.013977 1202.713135,689.800842 
	C1201.886230,734.514587 1195.713745,778.675842 1183.071289,822.164673 
M572.299011,769.198364 
	C584.380554,780.725464 598.630371,788.961853 613.663696,795.831665 
	C662.178467,818.001465 713.610657,827.499084 766.505249,829.864685 
	C801.154236,831.414185 835.751099,829.997192 870.268738,826.245361 
	C900.895142,822.916565 931.321716,818.689514 960.967590,810.002197 
	C965.135864,808.780823 969.250671,807.377014 973.569702,806.000366 
	C972.941956,804.925720 972.849243,804.523132 972.606506,804.386047 
	C946.690979,789.746216 920.804443,775.053650 894.770020,760.628052 
	C892.404602,759.317383 888.921753,758.921204 886.231995,759.462402 
	C842.493530,768.264587 798.372620,774.403198 753.913269,777.778687 
	C721.691711,780.225098 689.400879,781.163818 657.064514,779.141235 
	C629.055786,777.389404 601.588867,773.093506 574.943176,764.074829 
	C572.170654,763.136475 569.262634,762.598450 566.417480,761.874695 
	C566.284729,762.138123 566.151978,762.401611 566.019226,762.665039 
	C567.935730,764.685181 569.852295,766.705383 572.299011,769.198364 
z"/>
<path fill="#F89FCC" opacity="1.000000" stroke="none" 
	d="
M1036.343628,154.390045 
	C1039.287354,144.624542 1041.619629,135.052048 1045.108521,125.921509 
	C1046.573853,122.087059 1049.966309,118.437965 1053.413818,116.046921 
	C1058.073364,112.815292 1063.860840,112.962654 1068.444092,116.492043 
	C1073.413696,120.318932 1075.407349,126.064896 1073.699463,132.142899 
	C1069.610718,146.692627 1065.331421,161.203369 1060.566895,175.543076 
	C1057.770508,183.959290 1050.039185,187.133728 1041.614990,184.351868 
	C1034.372803,181.960342 1030.653320,174.447433 1032.780151,166.205338 
	C1033.774292,162.353165 1035.050781,158.573898 1036.343628,154.390045 
z"/>
<path fill="#F89FC9" opacity="1.000000" stroke="none" 
	d="
M459.367188,407.254089 
	C457.189423,414.109314 453.443176,419.153320 446.267487,419.763916 
	C439.693207,420.323273 434.998413,416.747955 431.681213,411.146240 
	C424.402344,398.854645 416.665863,386.818634 409.795898,374.305145 
	C404.108307,363.945251 412.271881,351.759491 423.970795,353.330353 
	C427.798828,353.844360 432.272034,357.203552 434.507355,360.556732 
	C442.607117,372.707214 450.017975,385.328644 457.353088,397.967224 
	C458.825043,400.503448 458.824799,403.894073 459.367188,407.254089 
z"/>
<path fill="#FEF3B0" opacity="1.000000" stroke="none" 
	d="
M65.044395,848.969849 
	C65.044403,848.969849 64.998009,848.505493 64.993317,847.899048 
	C60.813026,839.504883 56.630692,831.720825 52.463665,823.928528 
	C48.169952,815.899353 48.649254,811.683289 54.596394,804.909119 
	C59.041225,799.846069 68.109924,801.049194 73.121399,807.124695 
	C75.470978,809.973145 78.304901,812.422058 80.919312,815.052002 
	C80.949181,815.471191 80.979050,815.890442 81.044739,816.985352 
	C86.209801,826.493835 91.412903,835.285217 96.414421,844.189819 
	C97.610634,846.319458 98.500832,848.766785 98.892479,851.172119 
	C99.699333,856.127380 97.215096,860.897034 93.567596,862.259827 
	C82.535904,866.381531 78.566948,865.799255 74.403770,860.118713 
	C71.541740,856.213562 68.181786,852.673279 65.044395,848.969849 
z"/>
<path fill="#F99DCB" opacity="1.000000" stroke="none" 
	d="
M1034.058472,355.028870 
	C1034.277832,354.209320 1034.497192,353.389801 1035.217285,352.231506 
	C1037.135254,348.923737 1038.552612,345.954773 1039.969971,342.985779 
	C1039.969849,342.985779 1039.999390,342.991302 1040.332642,342.942810 
	C1042.407959,339.907440 1044.150024,336.920563 1045.892090,333.933655 
	C1045.892090,333.933685 1045.922974,333.983185 1046.245605,333.830536 
	C1049.341553,328.760681 1052.114746,323.843445 1054.887939,318.926270 
	C1054.887939,318.926270 1054.907227,318.974854 1055.240601,318.821960 
	C1056.026245,317.433167 1056.478638,316.197235 1056.931030,314.961304 
	C1056.931030,314.961304 1056.989014,314.960663 1057.328613,314.932190 
	C1058.419922,313.591003 1059.171753,312.278259 1059.923584,310.965515 
	C1059.923584,310.965515 1059.967651,310.958618 1060.329834,310.959686 
	C1066.769775,306.632355 1073.124512,304.952667 1080.071411,308.933105 
	C1080.071411,308.933105 1080.066284,308.984039 1080.150757,309.196350 
	C1080.510498,309.591278 1080.785645,309.773956 1081.060913,309.956604 
	C1081.060913,309.956604 1081.008301,309.938110 1081.038818,310.265320 
	C1081.739746,311.378479 1082.410034,312.164429 1083.080322,312.950378 
	C1083.080322,312.950348 1083.016235,313.008179 1083.018799,313.434204 
	C1082.048584,319.265594 1081.076050,324.670990 1080.103394,330.076385 
	C1080.103394,330.076385 1080.086060,330.070312 1079.797607,330.247101 
	C1079.354736,331.293213 1079.200439,332.162537 1079.046143,333.031860 
	C1079.046021,333.031830 1079.001099,332.998779 1078.791992,333.116302 
	C1078.297852,333.439941 1078.124268,333.716034 1078.062012,334.062134 
	C1078.062012,334.062134 1078.027344,333.987732 1077.759155,334.192871 
	C1076.665649,336.264099 1075.840332,338.130219 1075.015015,339.996338 
	C1075.015015,339.996338 1075.004883,340.003937 1074.780640,340.119019 
	C1074.281860,340.444977 1074.112915,340.720612 1074.049438,341.060974 
	C1074.049438,341.060974 1074.019531,340.991547 1073.779297,341.170441 
	C1073.372559,341.928467 1073.206055,342.507599 1073.039551,343.086700 
	C1072.856812,343.623993 1072.674194,344.161316 1071.899780,344.904114 
	C1070.884644,346.084412 1070.461304,347.059174 1070.037842,348.033936 
	C1070.037842,348.033936 1070.009521,348.002899 1069.671631,348.058716 
	C1068.564941,349.752930 1067.796265,351.391327 1067.027588,353.029724 
	C1067.027588,353.029755 1066.997925,353.007446 1066.771240,353.141479 
	C1066.390381,353.601593 1066.236328,353.927734 1066.082275,354.253845 
	C1066.082275,354.253845 1066.099487,354.632538 1065.697510,354.853516 
	C1063.892334,357.408813 1062.489380,359.743164 1061.086426,362.077515 
	C1061.086426,362.077545 1061.022705,362.065338 1060.735107,362.180054 
	C1058.995361,364.227081 1057.543213,366.159363 1056.091064,368.091614 
	C1056.091064,368.091614 1056.021606,368.015656 1055.662109,368.060547 
	C1050.684937,371.142273 1045.761597,369.478455 1040.917969,369.041656 
	C1040.917969,369.041656 1040.449097,368.978851 1040.219849,368.550262 
	C1038.013184,363.757416 1036.035889,359.393127 1034.058472,355.028870 
z"/>
<path fill="#59C4F7" opacity="1.000000" stroke="none" 
	d="
M832.020508,398.882538 
	C832.020508,398.882538 831.761902,399.087158 831.170532,399.065887 
	C818.258850,402.237793 808.806274,389.799469 812.910706,379.859802 
	C812.910706,379.859802 812.949463,379.946960 813.233887,379.832245 
	C816.981323,373.437225 820.444397,367.156921 823.907532,360.876648 
	C823.907532,360.876648 823.969604,360.930237 824.256836,360.827759 
	C825.336731,359.110291 826.129395,357.495270 826.922119,355.880280 
	C826.922119,355.880280 826.968994,355.947357 827.254272,355.837097 
	C829.644348,352.094574 831.749146,348.462280 833.853943,344.830017 
	C833.853943,344.830017 833.926086,344.878754 834.221558,344.812622 
	C835.603638,343.736237 836.720764,342.756592 837.771667,341.710419 
	C842.760315,336.743805 849.291260,335.297974 853.716614,338.457550 
	C858.087585,341.578217 862.320862,347.923798 858.079590,355.893799 
	C856.859314,358.187073 856.085754,360.717987 855.107361,363.139954 
	C855.107361,363.139954 855.052551,363.070618 854.761841,363.176025 
	C853.347717,365.653809 852.224243,368.026184 851.100769,370.398590 
	C851.100769,370.398590 851.104675,370.746826 850.665527,370.942871 
	C849.518494,372.555725 848.810669,373.972473 848.102783,375.389221 
	C848.102844,375.389252 848.103210,375.736786 847.661316,375.936218 
	C846.516174,377.560211 845.812866,378.984772 845.109558,380.409332 
	C845.109558,380.409332 845.088074,380.764954 844.648804,380.956604 
	C843.808411,382.101105 843.407349,383.053894 843.006287,384.006714 
	C843.006287,384.006714 843.000000,384.000000 842.663696,384.052307 
	C839.888611,388.079956 837.449890,392.055267 835.011169,396.030579 
	C835.011169,396.030579 834.997864,395.997864 834.677856,396.032776 
	C833.578796,397.005981 832.799622,397.944244 832.020508,398.882538 
z"/>
<path fill="#DC73F4" opacity="1.000000" stroke="none" 
	d="
M1248.328735,244.937714 
	C1248.596069,245.077927 1248.769653,245.293625 1248.610352,246.052185 
	C1248.459595,247.791687 1248.324951,249.128281 1248.671265,250.325775 
	C1251.460938,259.974304 1254.307129,269.606903 1257.204834,279.223633 
	C1259.440063,286.641541 1261.060181,293.845215 1252.443604,298.593689 
	C1252.116333,298.773987 1252.074951,299.473175 1251.584106,299.941956 
	C1250.845215,299.968079 1250.422607,299.982819 1249.829468,299.772003 
	C1249.083496,300.015717 1248.508057,300.485016 1247.531494,300.955475 
	C1244.552856,300.191650 1241.877686,299.652283 1239.428955,298.590546 
	C1237.451904,297.733337 1235.748169,296.246124 1233.923096,295.038422 
	C1233.923096,295.038422 1233.978882,294.993835 1233.993896,294.601868 
	C1233.350342,291.545319 1232.791992,288.851105 1232.015747,286.221222 
	C1228.514771,274.361816 1224.970703,262.515045 1221.403442,250.675354 
	C1219.701538,245.026535 1222.505371,238.922836 1228.590454,235.229828 
	C1232.750000,232.705399 1238.135132,233.572937 1242.093140,237.644211 
	C1244.318115,239.932983 1246.259644,242.497421 1248.328735,244.937714 
z"/>
<path fill="#050304" opacity="1.000000" stroke="none" 
	d="
M618.126404,626.040466 
	C627.991699,619.868225 637.985779,620.433411 645.517822,627.372864 
	C652.194397,633.524170 654.083740,643.877075 649.953003,652.117920 
	C645.974854,660.054565 639.239990,664.016785 630.614136,663.890564 
	C622.222717,663.767700 615.600708,659.922180 611.978088,651.943359 
	C608.334900,643.919434 609.437561,636.404968 614.690002,629.451050 
	C615.583801,628.267700 616.769287,627.304565 618.126404,626.040466 
z"/>
<path fill="#050304" opacity="1.000000" stroke="none" 
	d="
M957.148682,612.562744 
	C956.945251,599.968994 963.402893,591.375610 974.249023,589.304932 
	C984.158386,587.413086 993.865723,592.675232 997.683167,602.008118 
	C1002.308411,613.315674 996.583374,626.003296 985.063538,629.975586 
	C973.377258,634.005371 961.317078,627.727356 957.979797,615.874146 
	C957.709900,614.915222 957.464172,613.949463 957.148682,612.562744 
z"/>
<path fill="#FEF6C7" opacity="1.000000" stroke="none" 
	d="
M232.233154,241.821838 
	C240.328964,255.266800 248.257874,268.399414 256.024994,281.627045 
	C258.792908,286.340912 256.798279,296.854309 252.666718,299.544006 
	C246.452194,303.589783 236.910400,305.230896 232.701843,299.157959 
	C226.119034,289.658966 219.571228,280.129669 213.285645,270.433624 
	C210.618698,266.319641 208.582565,261.786224 206.384338,257.381226 
	C202.541931,249.681488 204.776962,241.208633 211.778397,236.553970 
	C217.346848,232.851974 223.220947,233.229492 228.125504,237.666077 
	C229.479813,238.891174 230.713440,240.249664 232.233154,241.821838 
M230.171265,292.390381 
	C234.254791,298.112396 241.490494,299.813110 249.139374,296.848724 
	C253.496094,295.160248 256.093719,289.711945 254.141556,285.479919 
	C252.365356,281.629364 250.024658,278.040527 247.957062,274.322815 
	C243.582748,266.457397 239.703323,258.259186 234.681122,250.833069 
	C231.628021,246.318573 229.454742,240.556702 222.680725,239.132935 
	C217.574753,238.059738 214.107483,240.254745 210.650131,242.937851 
	C207.162796,245.644211 206.269699,249.193802 207.692841,253.606659 
	C212.318756,267.950623 222.421143,279.058136 230.171265,292.390381 
z"/>
<path fill="#FDF8D1" opacity="1.000000" stroke="none" 
	d="
M592.995117,72.995712 
	C589.940063,82.958366 584.370422,91.063721 574.270630,94.552986 
	C568.255676,96.631042 562.839600,93.579277 558.727722,89.032890 
	C552.532410,82.182999 554.225830,77.362350 557.871033,70.895210 
	C565.023560,58.205658 572.311096,45.529766 580.544128,33.535587 
	C585.353333,26.529385 591.712341,22.785973 598.047363,26.411652 
	C606.725464,31.378340 611.800110,41.027657 607.955811,48.706276 
	C603.774109,57.059044 598.484070,64.856903 593.329468,72.559135 
	C595.493652,67.477249 597.897339,62.671497 600.543335,58.003101 
	C604.427429,51.150520 609.705994,44.634514 603.964905,36.240200 
	C601.275146,32.307442 598.220642,27.887871 593.334351,28.387562 
	C589.873779,28.741451 586.094727,31.648170 583.604309,34.438545 
	C580.220276,38.230129 577.870422,42.961624 575.184265,47.355560 
	C569.851929,56.078003 564.387634,64.729904 559.382263,73.638168 
	C556.472717,78.816467 557.551636,83.964546 561.791016,88.161804 
	C565.368713,91.703987 569.449890,92.783150 574.545105,91.108459 
	C580.224670,89.241684 583.508057,85.354767 586.395752,80.473763 
	C588.058411,77.663307 590.760742,75.467949 592.995117,72.995712 
z"/>
<path fill="#FDF8D1" opacity="1.000000" stroke="none" 
	d="
M1145.614990,1174.659180 
	C1141.976562,1180.610962 1138.788940,1186.335449 1131.190918,1187.506348 
	C1125.203247,1188.429321 1117.659058,1185.623779 1114.270630,1180.457886 
	C1110.944214,1175.386475 1111.492432,1167.809814 1114.900269,1162.568115 
	C1120.759644,1153.555664 1126.256104,1144.307739 1131.936157,1135.178101 
	C1134.018677,1131.830811 1136.090820,1128.469727 1138.343994,1125.237793 
	C1141.679688,1120.452637 1146.500610,1118.928955 1151.960571,1120.216553 
	C1157.956787,1121.630859 1163.451416,1123.375366 1165.631714,1130.718018 
	C1167.446655,1136.830933 1166.215576,1142.000000 1163.361084,1146.828369 
	C1157.826782,1156.189331 1151.695923,1165.197876 1145.614990,1174.659180 
M1159.519043,1127.054443 
	C1158.688965,1126.505249 1157.831909,1125.992188 1157.032959,1125.401001 
	C1150.154907,1120.311646 1146.113770,1120.656982 1140.601685,1126.936768 
	C1139.403809,1128.301514 1138.344116,1129.812500 1137.385254,1131.358154 
	C1130.257202,1142.848755 1123.146240,1154.350220 1116.111206,1165.897705 
	C1115.453003,1166.977905 1115.150879,1168.382690 1115.036255,1169.668213 
	C1114.487915,1175.811279 1117.936523,1181.640015 1123.516357,1184.230713 
	C1128.544556,1186.565186 1135.151123,1185.051147 1139.235352,1180.149902 
	C1141.960327,1176.879639 1144.369873,1173.291260 1146.525391,1169.613525 
	C1150.678467,1162.527954 1154.050415,1154.934082 1158.679565,1148.191895 
	C1163.425659,1141.279297 1165.859009,1134.883301 1159.519043,1127.054443 
z"/>
<path fill="#FDF8D1" opacity="1.000000" stroke="none" 
	d="
M753.020752,208.974777 
	C748.038513,206.712296 745.664856,199.469223 749.097717,193.153717 
	C755.692383,181.021729 763.007446,169.278610 770.132385,157.439606 
	C771.727173,154.789673 773.405273,152.001053 775.670532,149.976013 
	C785.611267,141.089630 792.337952,144.804153 798.906372,154.174515 
	C803.560547,160.814117 800.328064,167.287872 797.215881,172.840225 
	C790.616699,184.613403 783.183777,195.932755 775.801453,207.248184 
	C771.700134,213.534622 763.895569,215.783310 757.015930,213.046829 
	C755.501709,212.444565 754.382874,210.848404 753.466492,209.346222 
	C754.846558,209.039764 755.904785,208.896698 756.828003,209.185257 
	C766.156006,212.100952 769.883850,211.073227 775.379272,203.233673 
	C778.305176,199.059692 780.736206,194.532364 783.297424,190.110565 
	C787.759155,182.407883 792.426758,174.805893 796.481384,166.891861 
	C799.772156,160.468933 796.417175,152.286545 789.725281,149.086075 
	C787.643311,148.090317 785.661926,146.351685 783.067627,148.742767 
	C780.133972,151.446747 775.869019,153.053558 773.715881,156.189865 
	C768.054688,164.435898 763.807373,173.679855 757.906189,181.726456 
	C751.618591,190.299942 749.148621,198.898331 753.020752,208.974777 
z"/>
<path fill="#68B1D5" opacity="1.000000" stroke="none" 
	d="
M517.114502,225.220795 
	C515.755798,232.227859 511.020477,235.401062 505.040588,236.780731 
	C498.734467,238.235687 494.043030,235.399490 490.765564,230.039001 
	C483.137054,217.562088 475.288971,205.210831 467.997498,192.539551 
	C463.394409,184.540207 465.760162,177.163055 473.470886,172.559952 
	C479.819275,168.770111 488.086761,170.675613 492.605286,177.729614 
	C500.316406,189.767822 507.764374,201.988022 514.867371,214.392609 
	C516.558960,217.346786 516.451111,221.331329 517.114502,225.220795 
M483.845337,214.722244 
	C485.899994,218.292206 487.766296,221.987793 490.046753,225.407181 
	C495.597076,233.729568 499.391907,235.599579 506.177094,233.789383 
	C515.220764,231.376678 517.751282,222.890778 512.132141,213.342880 
	C506.178162,203.225967 500.304108,193.049286 493.932281,183.198105 
	C491.787689,179.882446 488.656067,176.617432 485.196106,174.895599 
	C481.258270,172.935944 476.052460,172.555267 472.615448,176.186234 
	C469.678589,179.288849 466.085907,183.200470 468.662476,188.075882 
	C473.322968,196.894470 478.494568,205.442917 483.845337,214.722244 
z"/>
<path fill="#68B1D5" opacity="1.000000" stroke="none" 
	d="
M1210.059082,963.806763 
	C1205.817627,958.456909 1205.923584,952.829407 1208.898804,947.631592 
	C1216.324341,934.659485 1224.067993,921.864258 1231.919556,909.143494 
	C1235.481201,903.372864 1241.114868,901.615723 1247.546631,903.223999 
	C1253.323608,904.668579 1257.260986,908.445557 1258.310547,914.407654 
	C1258.710571,916.680237 1258.512451,919.574829 1257.406860,921.512573 
	C1249.754395,934.923950 1242.191406,948.417603 1233.796021,961.363525 
	C1227.433594,971.174500 1219.070679,971.695129 1210.059082,963.806763 
M1229.516724,916.968384 
	C1227.253540,920.810791 1224.944580,924.627075 1222.737061,928.501160 
	C1218.401855,936.109375 1213.863403,943.618286 1209.914795,951.424194 
	C1207.388062,956.419006 1209.107544,960.511597 1214.367798,964.833435 
	C1217.983887,967.804443 1222.731689,968.098389 1226.729614,965.058533 
	C1229.192017,963.186279 1231.657837,960.955750 1233.239624,958.350220 
	C1240.474243,946.433289 1247.428467,934.345337 1254.420654,922.282410 
	C1258.877197,914.593811 1253.927612,905.651550 1244.961792,905.006897 
	C1236.589722,904.404968 1233.099609,910.139221 1229.516724,916.968384 
z"/>
<path fill="#68B1D5" opacity="1.000000" stroke="none" 
	d="
M160.478577,1048.520386 
	C167.049149,1059.556152 173.866348,1070.052734 179.683868,1081.076782 
	C186.023788,1093.091064 178.456940,1104.222168 164.976883,1102.797119 
	C161.741287,1102.455200 157.802322,1099.655273 155.958511,1096.829712 
	C147.778366,1084.294189 140.041809,1071.454102 132.552002,1058.488892 
	C128.268433,1051.073975 130.785263,1043.150513 138.041656,1038.682983 
	C144.448273,1034.738647 152.351349,1036.796875 157.183411,1043.679077 
	C158.235641,1045.177734 159.251923,1046.701538 160.478577,1048.520386 
M166.537750,1101.024170 
	C176.475662,1100.804443 183.112564,1091.563721 177.970627,1082.927979 
	C170.450043,1070.297607 163.341507,1057.395752 155.267609,1045.129395 
	C149.325653,1036.101929 139.310425,1037.047363 134.094742,1046.497192 
	C131.594452,1051.027100 132.855286,1055.490234 135.379028,1059.657837 
	C141.882935,1070.398560 148.193924,1081.266846 155.058365,1091.772827 
	C157.606689,1095.672974 159.396606,1101.152954 166.537750,1101.024170 
z"/>
<path fill="#AD6FB8" opacity="1.000000" stroke="none" 
	d="
M353.393860,550.310547 
	C355.153809,546.875671 356.419464,543.554504 358.386688,540.720276 
	C362.753632,534.428711 369.322723,532.934998 375.789612,536.344299 
	C383.194427,540.248047 386.001953,546.243713 383.067291,553.718933 
	C377.962036,566.723022 372.490509,579.586609 366.963623,592.419128 
	C365.870056,594.958252 364.105774,597.350891 362.181122,599.361572 
	C357.395111,604.361511 351.971558,604.995361 345.884460,601.683105 
	C339.977234,598.468750 336.704865,592.942932 338.875793,586.768005 
	C343.169220,574.555725 348.384033,562.667480 353.393860,550.310547 
M371.802002,576.262756 
	C374.918488,568.738525 378.132660,561.252686 381.109253,553.673523 
	C382.543182,550.022339 382.934845,546.404663 380.030731,542.926208 
	C372.789368,534.252686 363.534241,534.861938 358.557892,545.083374 
	C352.526703,557.471619 347.082092,570.155029 341.728607,582.856140 
	C340.572418,585.599182 340.132660,589.104187 340.682220,592.008667 
	C341.765991,597.736755 346.564209,600.469299 351.680634,601.630371 
	C356.454895,602.713806 360.235199,599.509155 362.411865,595.769775 
	C365.903564,589.771362 368.521332,583.264160 371.802002,576.262756 
z"/>
<path fill="#C582D0" opacity="1.000000" stroke="none" 
	d="
M24.766359,981.113525 
	C10.814689,981.001221 5.209676,972.994568 10.111294,960.338562 
	C14.557671,948.858032 19.340982,937.506165 24.107403,926.152893 
	C25.194622,923.563110 26.634241,921.069519 28.238823,918.758789 
	C32.614410,912.457764 39.807877,910.729187 46.773888,914.102173 
	C53.179729,917.203857 56.569839,924.914551 53.810368,931.835693 
	C48.388786,945.433594 42.618958,958.895874 36.793129,972.327576 
	C34.647457,977.274475 31.289751,981.116211 24.766359,981.113525 
M52.959423,925.879395 
	C51.080112,918.730835 44.966557,914.161804 38.551517,914.936462 
	C32.594093,915.655823 29.453062,919.991638 27.417528,924.513123 
	C21.729353,937.148071 16.624830,950.052979 11.541775,962.950562 
	C8.386547,970.956726 14.262288,978.980957 22.971920,979.010315 
	C29.861715,979.033569 33.795876,975.731506 36.933350,967.907288 
	C40.344734,959.400024 44.173527,951.059753 47.560730,942.543396 
	C49.622334,937.359985 51.193424,931.981384 52.959423,925.879395 
z"/>
<path fill="#B877C2" opacity="1.000000" stroke="none" 
	d="
M1228.927612,1118.429443 
	C1227.290283,1116.607666 1225.061768,1115.049927 1224.111572,1112.921387 
	C1217.889526,1098.985107 1211.452759,1085.110840 1206.067505,1070.845825 
	C1201.948486,1059.934814 1209.360596,1051.211792 1221.106201,1051.834229 
	C1227.568237,1052.176880 1230.811523,1056.697876 1233.127319,1061.748413 
	C1238.041870,1072.466431 1242.600098,1083.350830 1247.146118,1094.233154 
	C1248.480591,1097.427734 1249.282715,1100.844604 1250.037354,1104.569458 
	C1249.504639,1104.986938 1249.263428,1104.994507 1248.874023,1104.659790 
	C1245.310425,1095.532715 1242.056763,1086.680298 1238.424438,1077.986206 
	C1235.873047,1071.879272 1233.200928,1065.756592 1229.865723,1060.060791 
	C1225.991821,1053.445312 1220.283325,1052.500244 1212.600708,1056.298218 
	C1206.691650,1059.219360 1205.415039,1063.084473 1207.985107,1070.452515 
	C1208.585449,1072.173462 1209.259644,1073.876221 1210.018799,1075.532837 
	C1216.347412,1089.343384 1222.703979,1103.141357 1229.020752,1117.314697 
	C1228.968750,1117.933960 1228.948242,1118.181763 1228.927612,1118.429443 
z"/>
<path fill="#B877C2" opacity="1.000000" stroke="none" 
	d="
M285.918457,119.085655 
	C283.156555,114.437683 279.918427,110.002075 277.731506,105.097702 
	C273.128326,94.774582 268.810791,84.304382 264.872894,73.709862 
	C260.928009,63.096531 268.896423,53.029827 280.036469,53.915279 
	C285.352264,54.337795 288.803589,57.666622 290.713135,61.932362 
	C297.100983,76.202202 303.101746,90.649704 308.970581,105.142616 
	C309.817535,107.234131 309.128937,109.947456 308.781067,112.674866 
	C308.411163,112.976692 307.947357,112.983940 307.960083,112.560150 
	C307.592072,109.701187 307.634552,107.101067 306.760315,104.858261 
	C301.949890,92.517181 297.076019,80.194458 291.850464,68.025787 
	C290.452393,64.770081 288.037811,61.800571 285.571838,59.188763 
	C281.810760,55.205212 277.764679,55.130112 272.523865,58.253803 
	C266.433319,61.883965 264.221710,65.337448 266.025787,70.497704 
	C269.404053,80.160477 273.206390,89.683647 277.101990,99.153938 
	C279.856384,105.849937 283.054993,112.363205 286.019897,118.988670 
	C285.984497,119.019295 285.918457,119.085655 285.918457,119.085655 
z"/>
<path fill="#FDF8D1" opacity="1.000000" stroke="none" 
	d="
M65.032776,849.338562 
	C68.181786,852.673279 71.541740,856.213562 74.403770,860.118713 
	C78.566948,865.799255 82.535904,866.381531 93.567596,862.259827 
	C97.215096,860.897034 99.699333,856.127380 98.892479,851.172119 
	C98.500832,848.766785 97.610634,846.319458 96.414421,844.189819 
	C91.412903,835.285217 86.209801,826.493835 81.069443,817.299805 
	C82.746605,818.400513 84.935394,819.559692 86.034576,821.377686 
	C90.278931,828.397705 94.049133,835.703064 98.238144,842.758301 
	C102.182228,849.401123 102.108673,856.334473 98.596588,862.641785 
	C97.330101,864.916260 92.832710,865.769104 89.633972,866.480957 
	C86.621666,867.151245 83.344086,867.107971 80.244926,866.785522 
	C76.552032,866.401367 73.698166,864.897888 72.039398,860.842590 
	C70.403488,856.843079 67.415794,853.396484 65.032776,849.338562 
z"/>
<path fill="#FDF8D1" opacity="1.000000" stroke="none" 
	d="
M80.917084,814.692810 
	C78.304901,812.422058 75.470978,809.973145 73.121399,807.124695 
	C68.109924,801.049194 59.041225,799.846069 54.596394,804.909119 
	C48.649254,811.683289 48.169952,815.899353 52.463665,823.928528 
	C56.630692,831.720825 60.813026,839.504883 64.975319,847.666382 
	C62.763462,845.307983 60.118797,842.820801 58.456165,839.794189 
	C54.596081,832.767334 50.766151,825.658630 47.780682,818.238464 
	C45.626133,812.883423 49.216202,803.251343 53.380569,801.505066 
	C58.664379,799.289246 69.945747,798.620667 73.448708,803.912537 
	C75.805794,807.473389 78.417213,810.865845 80.917084,814.692810 
z"/>
<path fill="#C582D0" opacity="1.000000" stroke="none" 
	d="
M1248.262451,244.563629 
	C1246.259644,242.497421 1244.318115,239.932983 1242.093140,237.644211 
	C1238.135132,233.572937 1232.750000,232.705399 1228.590454,235.229828 
	C1222.505371,238.922836 1219.701538,245.026535 1221.403442,250.675354 
	C1224.970703,262.515045 1228.514771,274.361816 1232.015747,286.221222 
	C1232.791992,288.851105 1233.350342,291.545319 1233.984863,294.636475 
	C1231.217651,287.141052 1228.305176,279.272614 1225.782227,271.281189 
	C1223.542725,264.188110 1222.133667,256.815765 1219.628174,249.828415 
	C1217.005005,242.512268 1222.467651,234.614883 1230.134888,232.147842 
	C1236.911743,229.967255 1244.150146,233.981995 1247.212402,241.383728 
	C1247.590698,242.298096 1247.870605,243.253281 1248.262451,244.563629 
z"/>
<path fill="#C785D3" opacity="1.000000" stroke="none" 
	d="
M647.979736,349.021423 
	C652.507385,360.179077 657.332886,371.228821 661.432861,382.541504 
	C663.383606,387.924164 658.884460,394.862274 652.815796,397.650269 
	C646.607422,400.502411 639.819458,399.212524 636.283020,394.151031 
	C634.507324,391.609528 633.339355,388.643433 631.918091,385.459412 
	C631.939636,385.049469 632.042847,384.959900 632.386536,385.021606 
	C633.421082,385.962067 634.279846,386.755554 634.776672,387.732941 
	C639.256714,396.546600 649.128113,398.882111 656.395691,392.040283 
	C661.583679,387.156250 659.499451,381.431183 657.433472,376.016907 
	C654.104126,367.291504 650.505310,358.668976 647.231201,349.895660 
	C647.692932,349.583038 647.872192,349.327393 647.979736,349.021423 
z"/>
<path fill="#C582D0" opacity="1.000000" stroke="none" 
	d="
M39.217133,486.200073 
	C34.032562,491.570221 29.200384,492.445770 22.694962,489.193756 
	C16.078003,485.885895 13.190025,481.316833 15.024040,474.333984 
	C18.806688,459.931885 23.268888,445.708282 27.746944,431.462585 
	C28.356956,432.016144 28.671541,432.518372 28.985836,433.398926 
	C28.952723,434.106842 28.976366,434.454163 28.878941,434.763336 
	C24.725367,447.945648 20.421053,461.083496 16.535009,474.343964 
	C15.882910,476.569122 16.127161,480.134888 17.515543,481.689545 
	C22.918093,487.739014 27.865192,492.340210 36.062210,486.559570 
	C36.799236,486.039795 37.962540,486.124512 39.000004,485.996521 
	C39.072155,486.064636 39.217133,486.200073 39.217133,486.200073 
z"/>
<path fill="#C785D3" opacity="1.000000" stroke="none" 
	d="
M1251.900391,299.930573 
	C1252.074951,299.473175 1252.116333,298.773987 1252.443604,298.593689 
	C1261.060181,293.845215 1259.440063,286.641541 1257.204834,279.223633 
	C1254.307129,269.606903 1251.460938,259.974304 1248.671265,250.325775 
	C1248.324951,249.128281 1248.459595,247.791687 1248.629395,246.263824 
	C1252.861816,259.157074 1257.070679,272.241638 1260.711914,285.482269 
	C1262.523804,292.070099 1260.078125,296.300323 1253.279785,299.891632 
	C1252.390015,299.996399 1252.145142,299.963501 1251.900391,299.930573 
z"/>
<path fill="#5FA5C6" opacity="1.000000" stroke="none" 
	d="
M855.436035,363.054871 
	C856.085754,360.717987 856.859314,358.187073 858.079590,355.893799 
	C862.320862,347.923798 858.087585,341.578217 853.716614,338.457550 
	C849.291260,335.297974 842.760315,336.743805 837.771667,341.710419 
	C836.720764,342.756592 835.603638,343.736237 834.186157,344.837982 
	C836.832153,336.753418 845.486816,332.596527 852.904297,335.780060 
	C860.553406,339.062988 863.806824,348.074921 859.992859,355.712555 
	C858.744690,358.212128 857.183044,360.555145 855.436035,363.054871 
z"/>
<path fill="#C785D3" opacity="1.000000" stroke="none" 
	d="
M631.887207,385.093201 
	C626.479797,372.572449 620.787598,360.133698 616.020813,347.349854 
	C614.909424,344.369324 616.942139,340.216461 617.926270,336.593872 
	C618.510132,336.814148 618.744507,336.971069 619.008545,337.440430 
	C616.882019,341.820557 616.450500,345.780060 618.499146,350.047089 
	C620.991577,355.238434 623.310303,360.530640 625.373108,365.906250 
	C627.782898,372.185883 629.835388,378.602631 632.042847,384.959900 
	C632.042847,384.959900 631.939636,385.049469 631.887207,385.093201 
z"/>
<path fill="#AD6FB8" opacity="1.000000" stroke="none" 
	d="
M28.627867,429.645569 
	C31.516617,422.158234 38.253853,418.444550 44.987507,420.627838 
	C53.991409,423.547211 57.627235,430.952881 54.471375,440.878937 
	C54.121254,441.099457 53.873699,440.914520 53.881111,440.472076 
	C53.924183,438.536285 53.980965,437.043060 53.991680,435.549530 
	C54.028709,430.387390 50.189667,424.855347 45.515640,423.310699 
	C39.801281,421.422180 34.781788,423.209595 31.275150,428.276764 
	C30.755344,429.027924 29.861856,429.520477 29.013119,430.010681 
	C28.884983,429.888702 28.627867,429.645569 28.627867,429.645569 
z"/>
<path fill="#B877C2" opacity="1.000000" stroke="none" 
	d="
M619.027527,337.055481 
	C618.744507,336.971069 618.510132,336.814148 618.220764,336.398590 
	C625.815796,326.801971 636.108337,327.139282 642.474365,337.231384 
	C644.653809,340.686401 646.112183,344.596191 647.939819,348.659851 
	C647.872192,349.327393 647.692932,349.583038 647.083374,349.578369 
	C645.073303,346.166779 643.572449,342.875580 641.734863,339.784607 
	C639.002258,335.187897 635.162964,331.364502 629.534729,332.213531 
	C625.872192,332.766022 622.519226,335.370361 619.027527,337.055481 
z"/>
<path fill="#C582D0" opacity="1.000000" stroke="none" 
	d="
M53.855270,443.986511 
	C50.256470,456.117096 46.724770,468.268433 42.991405,480.357452 
	C42.384304,482.323364 40.884502,484.013580 39.507221,486.015656 
	C39.217133,486.200073 39.072155,486.064636 39.015331,485.624939 
	C41.902905,476.538239 44.874676,467.900421 47.781246,459.240753 
	C49.479580,454.180847 51.073769,449.085968 52.999966,444.004395 
	C53.475174,443.996796 53.665222,443.991669 53.855270,443.986511 
z"/>
<path fill="#C785D3" opacity="1.000000" stroke="none" 
	d="
M1229.136597,1118.704590 
	C1228.948242,1118.181763 1228.968750,1117.933960 1229.403076,1117.336548 
	C1231.049316,1117.350220 1232.260986,1117.845459 1233.519531,1118.047241 
	C1235.542480,1118.371704 1237.872559,1119.231934 1239.587646,1118.583130 
	C1245.668213,1116.282837 1248.756348,1111.531860 1249.022217,1105.002075 
	C1249.263428,1104.994507 1249.504639,1104.986938 1250.110962,1104.974121 
	C1252.209961,1110.824585 1249.264893,1115.006348 1245.056885,1118.207153 
	C1240.195679,1121.904785 1234.761475,1122.360718 1229.136597,1118.704590 
z"/>
<path fill="#5FA5C6" opacity="1.000000" stroke="none" 
	d="
M812.567444,379.978577 
	C808.806274,389.799469 818.258850,402.237793 831.005615,399.065216 
	C828.163513,399.633972 824.752563,401.063324 821.653381,400.562653 
	C812.859863,399.142120 807.689209,387.374390 812.567444,379.978577 
z"/>
<path fill="#C785D3" opacity="1.000000" stroke="none" 
	d="
M307.947357,112.983940 
	C307.947357,112.983940 308.411163,112.976692 308.642578,112.971031 
	C306.908447,121.285210 298.265076,125.509262 289.185211,121.301865 
	C288.982483,120.450546 289.000092,120.223694 289.422180,120.049728 
	C298.070435,123.338783 303.356812,119.047020 307.947357,112.983940 
z"/>
<path fill="#C582D0" opacity="1.000000" stroke="none" 
	d="
M1251.584106,299.941956 
	C1252.145142,299.963501 1252.390015,299.996399 1253.003906,300.080872 
	C1246.503784,305.094147 1239.418335,303.483063 1233.966187,295.383972 
	C1235.748169,296.246124 1237.451904,297.733337 1239.428955,298.590546 
	C1241.877686,299.652283 1244.552856,300.191650 1247.838623,300.951721 
	C1249.031372,300.630402 1249.515625,300.313965 1250.000000,299.997559 
	C1250.422607,299.982819 1250.845215,299.968079 1251.584106,299.941956 
z"/>
<path fill="#F89FC9" opacity="1.000000" stroke="none" 
	d="
M1079.991211,308.583435 
	C1073.124512,304.952667 1066.769775,306.632355 1060.318970,310.940247 
	C1064.285645,303.807922 1072.981689,302.638031 1079.991211,308.583435 
z"/>
<path fill="#5FA5C6" opacity="1.000000" stroke="none" 
	d="
M823.570007,360.927246 
	C820.444397,367.156921 816.981323,373.437225 813.186523,379.837769 
	C816.314026,373.631287 819.773254,367.304565 823.570007,360.927246 
z"/>
<path fill="#F89FC9" opacity="1.000000" stroke="none" 
	d="
M1054.550049,318.964844 
	C1052.114746,323.843445 1049.341553,328.760681 1046.249756,333.801758 
	C1048.691406,328.951538 1051.451782,323.977509 1054.550049,318.964844 
z"/>
<path fill="#5FA5C6" opacity="1.000000" stroke="none" 
	d="
M870.864685,39.407249 
	C874.217529,44.162251 877.560120,49.287144 880.893555,54.778446 
	C877.541138,50.022282 874.197815,44.899712 870.864685,39.407249 
z"/>
<path fill="#F89FC9" opacity="1.000000" stroke="none" 
	d="
M1080.448608,330.019684 
	C1081.076050,324.670990 1082.048584,319.265594 1083.045410,313.402283 
	C1086.421265,317.467987 1085.605347,323.569366 1080.448608,330.019684 
z"/>
<path fill="#F89FC9" opacity="1.000000" stroke="none" 
	d="
M1033.780884,355.273804 
	C1036.035889,359.393127 1038.013184,363.757416 1039.996216,368.473114 
	C1035.217651,365.667908 1032.623291,361.441742 1033.780884,355.273804 
z"/>
<path fill="#5FA5C6" opacity="1.000000" stroke="none" 
	d="
M835.309448,395.876343 
	C837.449890,392.055267 839.888611,388.079956 842.667297,384.055176 
	C840.540771,387.911194 838.074280,391.816650 835.309448,395.876343 
z"/>
<path fill="#5FA5C6" opacity="1.000000" stroke="none" 
	d="
M833.519775,344.885681 
	C831.749146,348.462280 829.644348,352.094574 827.214844,355.848053 
	C828.988647,352.293274 831.087097,348.617279 833.519775,344.885681 
z"/>
<path fill="#F89FC9" opacity="1.000000" stroke="none" 
	d="
M1041.134766,369.369812 
	C1045.761597,369.478455 1050.684937,371.142273 1055.693604,368.096313 
	C1053.093506,371.572357 1047.023193,372.235992 1041.134766,369.369812 
z"/>
<path fill="#F89FC9" opacity="1.000000" stroke="none" 
	d="
M1045.552490,333.970825 
	C1044.150024,336.920563 1042.407959,339.907440 1040.321289,342.931763 
	C1041.722290,339.982117 1043.467651,336.995056 1045.552490,333.970825 
z"/>
<path fill="#F89FC9" opacity="1.000000" stroke="none" 
	d="
M1039.673584,343.149506 
	C1038.552612,345.954773 1037.135254,348.923737 1035.375244,351.947327 
	C1036.480591,349.105713 1037.928833,346.209473 1039.673584,343.149506 
z"/>
<path fill="#F89FC9" opacity="1.000000" stroke="none" 
	d="
M1061.419312,362.017578 
	C1062.489380,359.743164 1063.892334,357.408813 1065.646240,355.036011 
	C1064.582153,357.317596 1063.167236,359.637604 1061.419312,362.017578 
z"/>
<path fill="#F89FC9" opacity="1.000000" stroke="none" 
	d="
M1056.435425,368.053589 
	C1057.543213,366.159363 1058.995361,364.227081 1060.763916,362.177429 
	C1059.646851,364.045227 1058.213379,366.030396 1056.435425,368.053589 
z"/>
<path fill="#5FA5C6" opacity="1.000000" stroke="none" 
	d="
M880.806580,55.418457 
	C882.209534,56.849815 883.556580,58.644184 884.891541,60.800133 
	C883.503174,59.368301 882.126953,57.574883 880.806580,55.418457 
z"/>
<path fill="#5FA5C6" opacity="1.000000" stroke="none" 
	d="
M851.398193,370.208435 
	C852.224243,368.026184 853.347717,365.653809 854.804688,363.164948 
	C853.990601,365.371765 852.843140,367.695038 851.398193,370.208435 
z"/>
<path fill="#5FA5C6" opacity="1.000000" stroke="none" 
	d="
M864.884888,29.384514 
	C865.916382,30.780315 866.958374,32.531948 868.003967,34.650570 
	C866.970154,33.258484 865.932739,31.499418 864.884888,29.384514 
z"/>
<path fill="#F89FC9" opacity="1.000000" stroke="none" 
	d="
M1075.314575,339.831573 
	C1075.840332,338.130219 1076.665649,336.264099 1077.786133,334.224609 
	C1077.258911,335.923096 1076.436523,337.794952 1075.314575,339.831573 
z"/>
<path fill="#5FA5C6" opacity="1.000000" stroke="none" 
	d="
M860.895020,22.387424 
	C861.886475,23.499058 862.896667,24.967203 863.904419,26.792656 
	C862.905884,25.681288 861.909790,24.212614 860.895020,22.387424 
z"/>
<path fill="#5FA5C6" opacity="1.000000" stroke="none" 
	d="
M826.585205,355.951233 
	C826.129395,357.495270 825.336731,359.110291 824.219238,360.844055 
	C824.678955,359.315918 825.463562,357.669037 826.585205,355.951233 
z"/>
<path fill="#F89FC9" opacity="1.000000" stroke="none" 
	d="
M1067.320068,352.870483 
	C1067.796265,351.391327 1068.564941,349.752930 1069.688965,348.075500 
	C1069.233643,349.594727 1068.423096,351.152985 1067.320068,352.870483 
z"/>
<path fill="#5FA5C6" opacity="1.000000" stroke="none" 
	d="
M845.398682,380.233521 
	C845.812866,378.984772 846.516174,377.560211 847.560425,376.077698 
	C847.163574,377.365753 846.425720,378.711700 845.398682,380.233521 
z"/>
<path fill="#5FA5C6" opacity="1.000000" stroke="none" 
	d="
M868.037598,35.324532 
	C868.967285,36.131031 869.944275,37.273106 870.917053,38.774361 
	C869.970215,37.975731 869.027649,36.817921 868.037598,35.324532 
z"/>
<path fill="#5FA5C6" opacity="1.000000" stroke="none" 
	d="
M848.394104,375.218018 
	C848.810669,373.972473 849.518494,372.555725 850.566956,371.086426 
	C850.166870,372.371552 849.426147,373.709167 848.394104,375.218018 
z"/>
<path fill="#F89FC9" opacity="1.000000" stroke="none" 
	d="
M1059.627930,311.099609 
	C1059.171753,312.278259 1058.419922,313.591003 1057.303711,314.916870 
	C1057.737061,313.697906 1058.534668,312.465820 1059.627930,311.099609 
z"/>
<path fill="#5FA5C6" opacity="1.000000" stroke="none" 
	d="
M832.332031,398.832458 
	C832.799622,397.944244 833.578796,397.005981 834.694519,396.038849 
	C834.235229,396.934113 833.439392,397.858246 832.332031,398.832458 
z"/>
<path fill="#F89FC9" opacity="1.000000" stroke="none" 
	d="
M1056.633057,315.120605 
	C1056.478638,316.197235 1056.026245,317.433167 1055.249512,318.797546 
	C1055.395142,317.710632 1055.864990,316.495270 1056.633057,315.120605 
z"/>
<path fill="#F89FC9" opacity="1.000000" stroke="none" 
	d="
M1070.315674,347.881470 
	C1070.461304,347.059174 1070.884644,346.084412 1071.655273,345.059937 
	C1071.532837,345.916504 1071.063232,346.822784 1070.315674,347.881470 
z"/>
<path fill="#F89FC9" opacity="1.000000" stroke="none" 
	d="
M1083.076904,312.604553 
	C1082.410034,312.164429 1081.739746,311.378479 1081.066895,310.260559 
	C1081.734253,310.705292 1082.403931,311.481995 1083.076904,312.604553 
z"/>
<path fill="#5FA5C6" opacity="1.000000" stroke="none" 
	d="
M843.265076,383.844635 
	C843.407349,383.053894 843.808411,382.101105 844.539307,381.097229 
	C844.420715,381.924927 843.972290,382.803741 843.265076,383.844635 
z"/>
<path fill="#F89FC9" opacity="1.000000" stroke="none" 
	d="
M1079.307373,332.826355 
	C1079.200439,332.162537 1079.354736,331.293213 1079.792236,330.240601 
	C1079.906616,330.911835 1079.737671,331.766357 1079.307373,332.826355 
z"/>
<path fill="#AD6FB8" opacity="1.000000" stroke="none" 
	d="
M28.986124,433.020569 
	C28.671541,432.518372 28.356956,432.016144 27.997625,431.202332 
	C27.976419,430.558167 28.086109,430.256989 28.454906,429.816345 
	C28.627867,429.645569 28.884983,429.888702 28.994259,430.368103 
	C29.064396,431.571838 29.025259,432.296204 28.986124,433.020569 
z"/>
<path fill="#AD6FB8" opacity="1.000000" stroke="none" 
	d="
M53.948212,443.653870 
	C53.665222,443.991669 53.475174,443.996796 53.068882,443.662415 
	C53.192989,442.520142 53.533344,441.717316 53.873699,440.914520 
	C53.873699,440.914520 54.121254,441.099457 54.246731,441.191895 
	C54.261856,441.963318 54.151505,442.642273 53.948212,443.653870 
z"/>
<path fill="#5FA5C6" opacity="1.000000" stroke="none" 
	d="
M863.851929,27.352133 
	C864.212036,27.510551 864.572021,27.985922 864.934753,28.781872 
	C864.575623,28.624660 864.213806,28.146873 863.851929,27.352133 
z"/>
<path fill="#F89FC9" opacity="1.000000" stroke="none" 
	d="
M1073.285645,342.909271 
	C1073.206055,342.507599 1073.372559,341.928467 1073.807739,341.195374 
	C1073.894775,341.604858 1073.713135,342.168335 1073.285645,342.909271 
z"/>
<path fill="#B877C2" opacity="1.000000" stroke="none" 
	d="
M289.017670,119.996841 
	C289.000092,120.223694 288.982483,120.450546 288.930542,121.018684 
	C288.349945,121.098030 287.803650,120.836105 287.125366,120.288849 
	C286.993317,120.003510 287.034058,119.954697 287.364655,119.950150 
	C288.136047,119.962677 288.576874,119.979759 289.017670,119.996841 
z"/>
<path fill="#F89FC9" opacity="1.000000" stroke="none" 
	d="
M1080.977661,309.713531 
	C1080.785645,309.773956 1080.510498,309.591278 1080.140381,309.174011 
	C1080.328613,309.116425 1080.611450,309.293427 1080.977661,309.713531 
z"/>
<path fill="#B877C2" opacity="1.000000" stroke="none" 
	d="
M286.971039,120.026161 
	C286.665405,119.884789 286.382019,119.720757 286.008545,119.321190 
	C285.918457,119.085655 285.984497,119.019295 286.242859,119.087875 
	C286.781738,119.353844 286.959351,119.619926 287.034058,119.954697 
	C287.034058,119.954697 286.993317,120.003510 286.971039,120.026161 
z"/>
<path fill="#F89FC9" opacity="1.000000" stroke="none" 
	d="
M1066.303711,354.100555 
	C1066.236328,353.927734 1066.390381,353.601593 1066.787720,353.146057 
	C1066.862305,353.326843 1066.693604,353.637054 1066.303711,354.100555 
z"/>
<path fill="#F89FC9" opacity="1.000000" stroke="none" 
	d="
M1078.303955,333.981995 
	C1078.124268,333.716034 1078.297852,333.439941 1078.812012,333.134277 
	C1078.876099,333.323792 1078.711060,333.612823 1078.303955,333.981995 
z"/>
<path fill="#F89FC9" opacity="1.000000" stroke="none" 
	d="
M1074.280029,340.964355 
	C1074.112915,340.720612 1074.281860,340.444977 1074.777588,340.124939 
	C1074.943481,340.361267 1074.780762,340.645233 1074.280029,340.964355 
z"/>
<path fill="#FDFDFD" opacity="1.000000" stroke="none" 
	d="
M572.033936,768.961914 
	C569.852295,766.705383 567.935730,764.685181 566.019226,762.665039 
	C566.151978,762.401611 566.284729,762.138123 566.417480,761.874695 
	C569.262634,762.598450 572.170654,763.136475 574.943176,764.074829 
	C601.588867,773.093506 629.055786,777.389404 657.064514,779.141235 
	C689.400879,781.163818 721.691711,780.225098 753.913269,777.778687 
	C798.372620,774.403198 842.493530,768.264587 886.231995,759.462402 
	C888.921753,758.921204 892.404602,759.317383 894.770020,760.628052 
	C920.804443,775.053650 946.690979,789.746216 972.606506,804.386047 
	C972.849243,804.523132 972.941956,804.925720 973.569702,806.000366 
	C969.250671,807.377014 965.135864,808.780823 960.967590,810.002197 
	C931.321716,818.689514 900.895142,822.916565 870.268738,826.245361 
	C835.751099,829.997192 801.154236,831.414185 766.505249,829.864685 
	C713.610657,827.499084 662.178467,818.001465 613.663696,795.831665 
	C598.630371,788.961853 584.380554,780.725464 572.033936,768.961914 
z"/>
<path fill="#C785D3" opacity="1.000000" stroke="none" 
	d="
M1249.829468,299.771973 
	C1249.515625,300.313965 1249.031372,300.630402 1248.239746,300.950562 
	C1248.508057,300.485016 1249.083496,300.015717 1249.829468,299.771973 
z"/>
<path fill="#FEF3AC" opacity="1.000000" stroke="none" 
	d="
M230.015915,292.061768 
	C222.421143,279.058136 212.318756,267.950623 207.692841,253.606659 
	C206.269699,249.193802 207.162796,245.644211 210.650131,242.937851 
	C214.107483,240.254745 217.574753,238.059738 222.680725,239.132935 
	C229.454742,240.556702 231.628021,246.318573 234.681122,250.833069 
	C239.703323,258.259186 243.582748,266.457397 247.957062,274.322815 
	C250.024658,278.040527 252.365356,281.629364 254.141556,285.479919 
	C256.093719,289.711945 253.496094,295.160248 249.139374,296.848724 
	C241.490494,299.813110 234.254791,298.112396 230.015915,292.061768 
z"/>
<path fill="#FEF4AD" opacity="1.000000" stroke="none" 
	d="
M592.997559,72.997856 
	C590.760742,75.467949 588.058411,77.663307 586.395752,80.473763 
	C583.508057,85.354767 580.224670,89.241684 574.545105,91.108459 
	C569.449890,92.783150 565.368713,91.703987 561.791016,88.161804 
	C557.551636,83.964546 556.472717,78.816467 559.382263,73.638168 
	C564.387634,64.729904 569.851929,56.078003 575.184265,47.355560 
	C577.870422,42.961624 580.220276,38.230129 583.604309,34.438545 
	C586.094727,31.648170 589.873779,28.741451 593.334351,28.387562 
	C598.220642,27.887871 601.275146,32.307442 603.964905,36.240200 
	C609.705994,44.634514 604.427429,51.150520 600.543335,58.003101 
	C597.897339,62.671497 595.493652,67.477249 592.988403,72.608292 
	C592.995117,72.994995 593.000000,73.000000 592.997559,72.997856 
z"/>
<path fill="#FEF4AD" opacity="1.000000" stroke="none" 
	d="
M1159.777344,1127.319946 
	C1165.859009,1134.883301 1163.425659,1141.279297 1158.679565,1148.191895 
	C1154.050415,1154.934082 1150.678467,1162.527954 1146.525391,1169.613525 
	C1144.369873,1173.291260 1141.960327,1176.879639 1139.235352,1180.149902 
	C1135.151123,1185.051147 1128.544556,1186.565186 1123.516357,1184.230713 
	C1117.936523,1181.640015 1114.487915,1175.811279 1115.036255,1169.668213 
	C1115.150879,1168.382690 1115.453003,1166.977905 1116.111206,1165.897705 
	C1123.146240,1154.350220 1130.257202,1142.848755 1137.385254,1131.358154 
	C1138.344116,1129.812500 1139.403809,1128.301514 1140.601685,1126.936768 
	C1146.113770,1120.656982 1150.154907,1120.311646 1157.032959,1125.401001 
	C1157.831909,1125.992188 1158.688965,1126.505249 1159.777344,1127.319946 
z"/>
<path fill="#FEF3AC" opacity="1.000000" stroke="none" 
	d="
M753.010376,208.987366 
	C749.148621,198.898331 751.618591,190.299942 757.906189,181.726456 
	C763.807373,173.679855 768.054688,164.435898 773.715881,156.189865 
	C775.869019,153.053558 780.133972,151.446747 783.067627,148.742767 
	C785.661926,146.351685 787.643311,148.090317 789.725281,149.086075 
	C796.417175,152.286545 799.772156,160.468933 796.481384,166.891861 
	C792.426758,174.805893 787.759155,182.407883 783.297424,190.110565 
	C780.736206,194.532364 778.305176,199.059692 775.379272,203.233673 
	C769.883850,211.073227 766.156006,212.100952 756.828003,209.185257 
	C755.904785,208.896698 754.846558,209.039764 753.438110,208.980865 
	C753.025208,208.979248 753.000000,208.999954 753.010376,208.987366 
z"/>
<path fill="#55C6FB" opacity="1.000000" stroke="none" 
	d="
M483.649048,214.413208 
	C478.494568,205.442917 473.322968,196.894470 468.662476,188.075882 
	C466.085907,183.200470 469.678589,179.288849 472.615448,176.186234 
	C476.052460,172.555267 481.258270,172.935944 485.196106,174.895599 
	C488.656067,176.617432 491.787689,179.882446 493.932281,183.198105 
	C500.304108,193.049286 506.178162,203.225967 512.132141,213.342880 
	C517.751282,222.890778 515.220764,231.376678 506.177094,233.789383 
	C499.391907,235.599579 495.597076,233.729568 490.046753,225.407181 
	C487.766296,221.987793 485.899994,218.292206 483.649048,214.413208 
z"/>
<path fill="#55C6FB" opacity="1.000000" stroke="none" 
	d="
M1229.764282,916.697327 
	C1233.099609,910.139221 1236.589722,904.404968 1244.961792,905.006897 
	C1253.927612,905.651550 1258.877197,914.593811 1254.420654,922.282410 
	C1247.428467,934.345337 1240.474243,946.433289 1233.239624,958.350220 
	C1231.657837,960.955750 1229.192017,963.186279 1226.729614,965.058533 
	C1222.731689,968.098389 1217.983887,967.804443 1214.367798,964.833435 
	C1209.107544,960.511597 1207.388062,956.419006 1209.914795,951.424194 
	C1213.863403,943.618286 1218.401855,936.109375 1222.737061,928.501160 
	C1224.944580,924.627075 1227.253540,920.810791 1229.764282,916.697327 
z"/>
<path fill="#57C5FB" opacity="1.000000" stroke="none" 
	d="
M166.119904,1101.022217 
	C159.396606,1101.152954 157.606689,1095.672974 155.058365,1091.772827 
	C148.193924,1081.266846 141.882935,1070.398560 135.379028,1059.657837 
	C132.855286,1055.490234 131.594452,1051.027100 134.094742,1046.497192 
	C139.310425,1037.047363 149.325653,1036.101929 155.267609,1045.129395 
	C163.341507,1057.395752 170.450043,1070.297607 177.970627,1082.927979 
	C183.112564,1091.563721 176.475662,1100.804443 166.119904,1101.022217 
z"/>
<path fill="#DD72F5" opacity="1.000000" stroke="none" 
	d="
M371.655212,576.617371 
	C368.521332,583.264160 365.903564,589.771362 362.411865,595.769775 
	C360.235199,599.509155 356.454895,602.713806 351.680634,601.630371 
	C346.564209,600.469299 341.765991,597.736755 340.682220,592.008667 
	C340.132660,589.104187 340.572418,585.599182 341.728607,582.856140 
	C347.082092,570.155029 352.526703,557.471619 358.557892,545.083374 
	C363.534241,534.861938 372.789368,534.252686 380.030731,542.926208 
	C382.934845,546.404663 382.543182,550.022339 381.109253,553.673523 
	C378.132660,561.252686 374.918488,568.738525 371.655212,576.617371 
z"/>
<path fill="#DC73F4" opacity="1.000000" stroke="none" 
	d="
M52.972134,926.284912 
	C51.193424,931.981384 49.622334,937.359985 47.560730,942.543396 
	C44.173527,951.059753 40.344734,959.400024 36.933350,967.907288 
	C33.795876,975.731506 29.861715,979.033569 22.971920,979.010315 
	C14.262288,978.980957 8.386547,970.956726 11.541775,962.950562 
	C16.624830,950.052979 21.729353,937.148071 27.417528,924.513123 
	C29.453062,919.991638 32.594093,915.655823 38.551517,914.936462 
	C44.966557,914.161804 51.080112,918.730835 52.972134,926.284912 
z"/>
<path fill="#DD72F4" opacity="1.000000" stroke="none" 
	d="
M1248.874023,1104.659790 
	C1248.756348,1111.531860 1245.668213,1116.282837 1239.587646,1118.583130 
	C1237.872559,1119.231934 1235.542480,1118.371704 1233.519531,1118.047241 
	C1232.260986,1117.845459 1231.049316,1117.350220 1229.434326,1116.964844 
	C1222.703979,1103.141357 1216.347412,1089.343384 1210.018799,1075.532837 
	C1209.259644,1073.876221 1208.585449,1072.173462 1207.985107,1070.452515 
	C1205.415039,1063.084473 1206.691650,1059.219360 1212.600708,1056.298218 
	C1220.283325,1052.500244 1225.991821,1053.445312 1229.865723,1060.060791 
	C1233.200928,1065.756592 1235.873047,1071.879272 1238.424438,1077.986206 
	C1242.056763,1086.680298 1245.310425,1095.532715 1248.874023,1104.659790 
z"/>
<path fill="#DD72F5" opacity="1.000000" stroke="none" 
	d="
M287.364655,119.950150 
	C286.959351,119.619926 286.781738,119.353844 286.278259,119.057251 
	C283.054993,112.363205 279.856384,105.849937 277.101990,99.153938 
	C273.206390,89.683647 269.404053,80.160477 266.025787,70.497704 
	C264.221710,65.337448 266.433319,61.883965 272.523865,58.253803 
	C277.764679,55.130112 281.810760,55.205212 285.571838,59.188763 
	C288.037811,61.800571 290.452393,64.770081 291.850464,68.025787 
	C297.076019,80.194458 301.949890,92.517181 306.760315,104.858261 
	C307.634552,107.101067 307.592072,109.701187 307.960083,112.560150 
	C303.356812,119.047020 298.070435,123.338783 289.422180,120.049728 
	C288.576874,119.979759 288.136047,119.962677 287.364655,119.950150 
z"/>
<path fill="#DD72F4" opacity="1.000000" stroke="none" 
	d="
M619.008545,337.440430 
	C622.519226,335.370361 625.872192,332.766022 629.534729,332.213531 
	C635.162964,331.364502 639.002258,335.187897 641.734863,339.784607 
	C643.572449,342.875580 645.073303,346.166779 646.872559,349.685669 
	C650.505310,358.668976 654.104126,367.291504 657.433472,376.016907 
	C659.499451,381.431183 661.583679,387.156250 656.395691,392.040283 
	C649.128113,398.882111 639.256714,396.546600 634.776672,387.732941 
	C634.279846,386.755554 633.421082,385.962067 632.386536,385.021606 
	C629.835388,378.602631 627.782898,372.185883 625.373108,365.906250 
	C623.310303,360.530640 620.991577,355.238434 618.499146,350.047089 
	C616.450500,345.780060 616.882019,341.820557 619.008545,337.440430 
z"/>
<path fill="#DD72F4" opacity="1.000000" stroke="none" 
	d="
M53.881111,440.472076 
	C53.533344,441.717316 53.192989,442.520142 52.783718,443.664886 
	C51.073769,449.085968 49.479580,454.180847 47.781246,459.240753 
	C44.874676,467.900421 41.902905,476.538239 38.943180,485.556824 
	C37.962540,486.124512 36.799236,486.039795 36.062210,486.559570 
	C27.865192,492.340210 22.918093,487.739014 17.515543,481.689545 
	C16.127161,480.134888 15.882910,476.569122 16.535009,474.343964 
	C20.421053,461.083496 24.725367,447.945648 28.878941,434.763336 
	C28.976366,434.454163 28.952723,434.106842 28.985832,433.398926 
	C29.025259,432.296204 29.064396,431.571838 29.122395,430.490082 
	C29.861856,429.520477 30.755344,429.027924 31.275150,428.276764 
	C34.781788,423.209595 39.801281,421.422180 45.515640,423.310699 
	C50.189667,424.855347 54.028709,430.387390 53.991680,435.549530 
	C53.980965,437.043060 53.924183,438.536285 53.881111,440.472076 
z"/>
</svg>